<svg width="25" height="27" viewBox="0 0 25 27" fill="none" xmlns="http://www.w3.org/2000/svg">
<path d="M6.83301 1.33301V4.83301" stroke="#262626" stroke-width="1.75" stroke-miterlimit="10" stroke-linecap="round" stroke-linejoin="round"/>
<path d="M16.167 1.33301V4.83301" stroke="#262626" stroke-width="1.75" stroke-miterlimit="10" stroke-linecap="round" stroke-linejoin="round"/>
<path d="M1.58301 9.60498H21.4163" stroke="#262626" stroke-width="1.75" stroke-miterlimit="10" stroke-linecap="round" stroke-linejoin="round"/>
<path d="M18.4997 25.8333C21.077 25.8333 23.1663 23.744 23.1663 21.1667C23.1663 18.5893 21.077 16.5 18.4997 16.5C15.9223 16.5 13.833 18.5893 13.833 21.1667C13.833 23.744 15.9223 25.8333 18.4997 25.8333Z" stroke="#262626" stroke-width="1.75" stroke-miterlimit="10" stroke-linecap="round" stroke-linejoin="round"/>
<path d="M20.2384 21.2251H16.7617" stroke="#262626" stroke-width="1.75" stroke-miterlimit="10" stroke-linecap="round" stroke-linejoin="round"/>
<path d="M18.5 19.5215V23.0098" stroke="#262626" stroke-width="1.75" stroke-miterlimit="10" stroke-linecap="round" stroke-linejoin="round"/>
<path d="M22 8.91634V18.0863C21.1483 17.118 19.9 16.4997 18.5 16.4997C15.9217 16.4997 13.8333 18.588 13.8333 21.1663C13.8333 22.0413 14.0783 22.8697 14.51 23.5697C14.755 23.9897 15.07 24.363 15.4317 24.6663H6.83333C2.75 24.6663 1 22.333 1 18.833V8.91634C1 5.41634 2.75 3.08301 6.83333 3.08301H16.1667C20.25 3.08301 22 5.41634 22 8.91634Z" stroke="#262626" stroke-width="1.75" stroke-miterlimit="10" stroke-linecap="round" stroke-linejoin="round"/>
<path d="M11.4944 14.9832H11.5049" stroke="#262626" stroke-width="2.33333" stroke-linecap="round" stroke-linejoin="round"/>
<path d="M7.17702 14.9832H7.1875" stroke="#262626" stroke-width="2.33333" stroke-linecap="round" stroke-linejoin="round"/>
<path d="M7.17702 18.4832H7.1875" stroke="#262626" stroke-width="2.33333" stroke-linecap="round" stroke-linejoin="round"/>
</svg>
