<svg width="26" height="26" viewBox="0 0 26 26" fill="none" xmlns="http://www.w3.org/2000/svg">
<circle cx="13" cy="13" r="12.5" fill="#E7E2FC" stroke="#F79C39"/>
<path d="M15.833 12L14.1663 13.6667L14.8663 14.3667L15.2997 13.9333C15.233 14.5222 14.983 15.014 14.5497 15.4087C14.1163 15.8029 13.5997 16 12.9997 16C12.8441 16 12.6997 15.9862 12.5663 15.9587C12.433 15.9307 12.2997 15.8889 12.1663 15.8333L11.433 16.5667C11.6663 16.7 11.9137 16.8056 12.175 16.8833C12.4359 16.9611 12.7108 17 12.9997 17C13.8886 17 14.6468 16.7 15.2743 16.1C15.9023 15.5 16.2441 14.7667 16.2997 13.9L16.7997 14.3667L17.4997 13.6667L15.833 12ZM10.1663 15.3333L11.833 13.6667L11.133 12.9667L10.6997 13.4C10.7663 12.8111 11.0163 12.3193 11.4497 11.9247C11.883 11.5304 12.3997 11.3333 12.9997 11.3333C13.1552 11.3333 13.2997 11.3471 13.433 11.3747C13.5663 11.4027 13.6997 11.4444 13.833 11.5L14.5663 10.7667C14.333 10.6333 14.0859 10.5278 13.825 10.45C13.5637 10.3722 13.2886 10.3333 12.9997 10.3333C12.1108 10.3333 11.3526 10.6333 10.725 11.2333C10.097 11.8333 9.75523 12.5667 9.69967 13.4333L9.19967 12.9667L8.49967 13.6667L10.1663 15.3333ZM7.66634 19C7.29967 19 6.9859 18.8696 6.72501 18.6087C6.46367 18.3473 6.33301 18.0333 6.33301 17.6667V9.66667C6.33301 9.3 6.46367 8.98622 6.72501 8.72533C6.9859 8.464 7.29967 8.33333 7.66634 8.33333H9.76634L10.9997 7H14.9997L16.233 8.33333H18.333C18.6997 8.33333 19.0137 8.464 19.275 8.72533C19.5359 8.98622 19.6663 9.3 19.6663 9.66667V17.6667C19.6663 18.0333 19.5359 18.3473 19.275 18.6087C19.0137 18.8696 18.6997 19 18.333 19H7.66634ZM18.333 17.6667V9.66667H15.633L14.4163 8.33333H11.583L10.3663 9.66667H7.66634V17.6667H18.333Z" fill="#F79C39"/>
</svg>
