<svg width="8" height="8" viewBox="0 0 8 8" fill="none" xmlns="http://www.w3.org/2000/svg">
<g clip-path="url(#clip0_4770_35175)">
<path fill-rule="evenodd" clip-rule="evenodd" d="M0.666504 3.99996C0.666504 2.15996 2.15984 0.666626 3.99984 0.666626C5.84317 0.666626 7.33317 2.15996 7.33317 3.99996C7.33317 5.83996 5.83984 7.33329 3.99984 7.33329C2.15984 7.33329 0.666504 5.83996 0.666504 3.99996ZM4.00016 1.33337C2.5274 1.33337 1.3335 2.52728 1.3335 4.00004C1.3335 5.4728 2.5274 6.66671 4.00016 6.66671C5.47292 6.66671 6.66683 5.4728 6.66683 4.00004C6.66683 2.52728 5.47292 1.33337 4.00016 1.33337Z" fill="#888AA0"/>
<path fill-rule="evenodd" clip-rule="evenodd" d="M2 4C2 2.896 2.896 2 4 2C5.106 2 6 2.896 6 4C6 5.104 5.104 6 4 6C2.896 6 2 5.104 2 4ZM3.99984 2.66663C3.26346 2.66663 2.6665 3.26358 2.6665 3.99996C2.6665 4.73634 3.26346 5.33329 3.99984 5.33329C4.73622 5.33329 5.33317 4.73634 5.33317 3.99996C5.33317 3.26358 4.73622 2.66663 3.99984 2.66663Z" fill="#888AA0"/>
<rect x="3.6665" y="5.66663" width="0.666667" height="1.33333" fill="#888AA0"/>
<rect x="5.6665" y="3.66663" width="1.33333" height="0.666667" fill="#888AA0"/>
<rect x="1" y="3.66663" width="1.33333" height="0.666667" fill="#888AA0"/>
</g>
<defs>
<clipPath id="clip0_4770_35175">
<rect width="8" height="8" fill="white"/>
</clipPath>
</defs>
</svg>
