<svg width="20" height="16" viewBox="0 0 20 16" fill="none" xmlns="http://www.w3.org/2000/svg">
<path d="M1.66342 5.08333H9.58009" stroke="#888AA0" stroke-width="1.5" stroke-miterlimit="10" stroke-linecap="round" stroke-linejoin="round"/>
<path d="M4.99677 11.75H6.66343" stroke="#888AA0" stroke-width="1.5" stroke-miterlimit="10" stroke-linecap="round" stroke-linejoin="round"/>
<path d="M8.74677 11.75H12.0801" stroke="#888AA0" stroke-width="1.5" stroke-miterlimit="10" stroke-linecap="round" stroke-linejoin="round"/>
<path d="M18.3301 8.025V11.425C18.3301 14.35 17.5884 15.0833 14.6301 15.0833H5.36342C2.40509 15.0833 1.66342 14.35 1.66342 11.425V4.575C1.66342 1.65 2.40509 0.916664 5.36342 0.916664H12.0801" stroke="#888AA0" stroke-width="1.5" stroke-linecap="round" stroke-linejoin="round"/>
<path d="M15.8968 1.44166L12.8051 4.53332C12.6884 4.64999 12.5718 4.88332 12.5468 5.04999L12.3801 6.23332C12.3218 6.65832 12.6218 6.95832 13.0468 6.89999L14.2301 6.73332C14.3968 6.70832 14.6301 6.59166 14.7468 6.47499L17.8384 3.38332C18.3718 2.84999 18.6218 2.23332 17.8384 1.44999C17.0468 0.658323 16.4301 0.908323 15.8968 1.44166Z" stroke="#888AA0" stroke-width="1.5" stroke-miterlimit="10" stroke-linecap="round" stroke-linejoin="round"/>
<path d="M15.4551 1.88335C15.7217 2.82501 16.4551 3.55835 17.3884 3.81668" stroke="#888AA0" stroke-width="1.5" stroke-miterlimit="10" stroke-linecap="round" stroke-linejoin="round"/>
</svg>
