<svg width="24" height="24" viewBox="0 0 24 24" fill="none" xmlns="http://www.w3.org/2000/svg">
<path fill-rule="evenodd" clip-rule="evenodd" d="M7.20091 13.199C7.86332 13.199 8.40092 12.6614 8.40092 11.999C8.40092 11.3365 7.86332 10.799 7.20091 10.799C6.53852 10.799 6.00092 11.3365 6.00092 11.999C6.00092 12.6614 6.53852 13.199 7.20091 13.199ZM12.0009 13.199C12.6633 13.199 13.2009 12.6614 13.2009 11.999C13.2009 11.3365 12.6633 10.799 12.0009 10.799C11.3385 10.799 10.8009 11.3365 10.8009 11.999C10.8009 12.6614 11.3385 13.199 12.0009 13.199ZM16.8009 13.199C17.4633 13.199 18.0009 12.6614 18.0009 11.999C18.0009 11.3365 17.4633 10.799 16.8009 10.799C16.1385 10.799 15.6009 11.3365 15.6009 11.999C15.6009 12.6614 16.1385 13.199 16.8009 13.199ZM3.51576 3.51381C6.25656 0.773006 10.0498 -0.449794 13.9246 0.149006C18.817 0.912205 22.873 4.85301 23.7886 9.73341C24.229 12.083 23.9758 14.4758 23.0554 16.6514C22.9378 16.9274 22.9018 17.1866 22.9486 17.4182L23.977 22.5638C24.0562 22.9574 23.9326 23.3642 23.6494 23.6474C23.4226 23.8742 23.1166 23.999 22.801 23.999C22.723 23.999 22.6438 23.9918 22.5658 23.975L17.4262 22.9478C17.131 22.8914 16.8442 22.9742 16.6534 23.0534C14.4766 23.9738 12.0838 24.2258 9.73536 23.7866C4.85496 22.871 0.91416 18.815 0.150959 13.9226C-0.452641 10.049 0.77376 6.25581 3.51576 3.51381Z" fill="#F79B39"/>
</svg>
