<svg width="19" height="18" viewBox="0 0 19 18" fill="none" xmlns="http://www.w3.org/2000/svg">
<g id="Vector">
<path d="M6.81678 2.52214C8.53482 1.81051 10.4652 1.81051 12.1832 2.52214C13.9013 3.23377 15.2662 4.59875 15.9779 6.31678C16.6895 8.03482 16.6895 9.96518 15.9779 11.6832C15.2662 13.4013 13.9013 14.7662 12.1832 15.4779C10.4652 16.1895 8.53482 16.1895 6.81678 15.4779C5.09875 14.7662 3.73377 13.4013 3.02214 11.6832C2.31051 9.96518 2.31051 8.03482 3.02214 6.31678C3.73377 4.59875 5.09875 3.23377 6.81678 2.52214Z" stroke="#22C55E" stroke-linecap="round" stroke-linejoin="round"/>
<path d="M9.50244 3.95166L9.5 0.5L9.49756 3.95166C9.49919 3.95166 9.50081 3.95166 9.50244 3.95166Z" stroke="#22C55E" stroke-linecap="round" stroke-linejoin="round"/>
<path d="M14.5483 8.99756C14.5483 8.99919 14.5483 9.00081 14.5483 9.00244L18 9L14.5483 8.99756Z" stroke="#22C55E" stroke-linecap="round" stroke-linejoin="round"/>
<path d="M9.50244 14.0483C9.50081 14.0483 9.49919 14.0483 9.49756 14.0483L9.5 17.5L9.50244 14.0483Z" stroke="#22C55E" stroke-linecap="round" stroke-linejoin="round"/>
<path d="M4.45166 9.00244C4.45166 9.00081 4.45166 8.99919 4.45166 8.99756L1 9L4.45166 9.00244Z" stroke="#22C55E" stroke-linecap="round" stroke-linejoin="round"/>
<path d="M8.42671 6.40886C9.11393 6.1242 9.88607 6.1242 10.5733 6.40886C11.2605 6.69351 11.8065 7.2395 12.0911 7.92671C12.3758 8.61393 12.3758 9.38607 12.0911 10.0733C11.8065 10.7605 11.2605 11.3065 10.5733 11.5911C9.88607 11.8758 9.11393 11.8758 8.42671 11.5911C7.7395 11.3065 7.19351 10.7605 6.90886 10.0733C6.6242 9.38607 6.6242 8.61393 6.90886 7.92671C7.19351 7.2395 7.7395 6.69351 8.42671 6.40886Z" stroke="#22C55E" stroke-linecap="round" stroke-linejoin="round"/>
</g>
</svg>
