<svg width="8" height="14" viewBox="0 0 8 14" fill="none" xmlns="http://www.w3.org/2000/svg">
<path d="M0.25 9.25H1.75C1.75 10.06 2.7775 10.75 4 10.75C5.2225 10.75 6.25 10.06 6.25 9.25C6.25 8.425 5.47 8.125 3.82 7.7275C2.23 7.33 0.25 6.835 0.25 4.75C0.25 3.4075 1.3525 2.2675 2.875 1.885V0.25H5.125V1.885C6.6475 2.2675 7.75 3.4075 7.75 4.75H6.25C6.25 3.94 5.2225 3.25 4 3.25C2.7775 3.25 1.75 3.94 1.75 4.75C1.75 5.575 2.53 5.875 4.18 6.2725C5.77 6.67 7.75 7.165 7.75 9.25C7.75 10.5925 6.6475 11.7325 5.125 12.115V13.75H2.875V12.115C1.3525 11.7325 0.25 10.5925 0.25 9.25Z" fill="white"/>
</svg>
