<svg width="20" height="20" viewBox="0 0 20 20" fill="none" xmlns="http://www.w3.org/2000/svg">
<path d="M10.8748 13.5416H9.30818C8.19985 13.5416 7.2915 12.6083 7.2915 11.4583C7.2915 11.1166 7.57484 10.8333 7.9165 10.8333C8.25817 10.8333 8.5415 11.1166 8.5415 11.4583C8.5415 11.9166 8.88318 12.2916 9.30818 12.2916H10.8748C11.1998 12.2916 11.4582 11.9999 11.4582 11.6416C11.4582 11.1916 11.3332 11.1249 11.0498 11.0249L8.5415 10.1499C8.00817 9.95827 7.2915 9.57495 7.2915 8.34995C7.2915 7.30828 8.11651 6.44995 9.12485 6.44995H10.6915C11.7998 6.44995 12.7082 7.38328 12.7082 8.53328C12.7082 8.87495 12.4248 9.15828 12.0832 9.15828C11.7415 9.15828 11.4582 8.87495 11.4582 8.53328C11.4582 8.07495 11.1165 7.69995 10.6915 7.69995H9.12485C8.79985 7.69995 8.5415 7.99162 8.5415 8.34995C8.5415 8.79995 8.6665 8.86661 8.94983 8.96661L11.4582 9.84161C11.9915 10.0333 12.7082 10.4166 12.7082 11.6416C12.7082 12.6916 11.8832 13.5416 10.8748 13.5416Z" fill="#292B49"/>
<path d="M10 14.375C9.65833 14.375 9.375 14.0917 9.375 13.75V6.25C9.375 5.90833 9.65833 5.625 10 5.625C10.3417 5.625 10.625 5.90833 10.625 6.25V13.75C10.625 14.0917 10.3417 14.375 10 14.375Z" fill="#292B49"/>
<path d="M9.99984 18.9583C5.05817 18.9583 1.0415 14.9416 1.0415 9.99996C1.0415 5.05829 5.05817 1.04163 9.99984 1.04163C10.3415 1.04163 10.6248 1.32496 10.6248 1.66663C10.6248 2.00829 10.3415 2.29163 9.99984 2.29163C5.74984 2.29163 2.2915 5.74996 2.2915 9.99996C2.2915 14.25 5.74984 17.7083 9.99984 17.7083C14.2498 17.7083 17.7082 14.25 17.7082 9.99996C17.7082 9.65829 17.9915 9.37496 18.3332 9.37496C18.6748 9.37496 18.9582 9.65829 18.9582 9.99996C18.9582 14.9416 14.9415 18.9583 9.99984 18.9583Z" fill="#292B49"/>
<path d="M18.3333 5.62496C17.9917 5.62496 17.7083 5.34163 17.7083 4.99996V2.29163H15C14.6583 2.29163 14.375 2.00829 14.375 1.66663C14.375 1.32496 14.6583 1.04163 15 1.04163H18.3333C18.675 1.04163 18.9583 1.32496 18.9583 1.66663V4.99996C18.9583 5.34163 18.675 5.62496 18.3333 5.62496Z" fill="#292B49"/>
<path d="M14.1669 6.45828C14.0085 6.45828 13.8502 6.39995 13.7252 6.27495C13.4835 6.03328 13.4835 5.63328 13.7252 5.39162L17.8919 1.22495C18.1335 0.983285 18.5335 0.983285 18.7752 1.22495C19.0169 1.46662 19.0169 1.86662 18.7752 2.10828L14.6085 6.27495C14.4835 6.39995 14.3252 6.45828 14.1669 6.45828Z" fill="#292B49"/>
</svg>
