<svg width="20" height="20" viewBox="0 0 20 20" fill="none" xmlns="http://www.w3.org/2000/svg">
<path d="M11.1668 14.5166H9.07513C7.70846 14.5166 6.60013 13.3666 6.60013 11.9499C6.60013 11.6083 6.88346 11.3249 7.22513 11.3249C7.5668 11.3249 7.85013 11.6083 7.85013 11.9499C7.85013 12.6749 8.40013 13.2666 9.07513 13.2666H11.1668C11.7085 13.2666 12.1585 12.7833 12.1585 12.1999C12.1585 11.4749 11.9001 11.3333 11.4751 11.1833L8.1168 9.99994C7.4668 9.77494 6.5918 9.29161 6.5918 7.79994C6.5918 6.51661 7.60013 5.48328 8.83346 5.48328H10.9251C12.2918 5.48328 13.4001 6.63328 13.4001 8.04994C13.4001 8.39161 13.1168 8.67494 12.7751 8.67494C12.4335 8.67494 12.1501 8.39161 12.1501 8.04994C12.1501 7.32494 11.6001 6.73328 10.9251 6.73328H8.83346C8.2918 6.73328 7.8418 7.21661 7.8418 7.79994C7.8418 8.52494 8.10013 8.66661 8.52513 8.81661L11.8835 9.99994C12.5335 10.2249 13.4085 10.7083 13.4085 12.1999C13.4001 13.4749 12.4001 14.5166 11.1668 14.5166Z" fill="#292B49"/>
<path d="M10 15.625C9.65833 15.625 9.375 15.3417 9.375 15V5C9.375 4.65833 9.65833 4.375 10 4.375C10.3417 4.375 10.625 4.65833 10.625 5V15C10.625 15.3417 10.3417 15.625 10 15.625Z" fill="#292B49"/>
<path d="M9.99984 18.9583C5.05817 18.9583 1.0415 14.9416 1.0415 9.99996C1.0415 5.05829 5.05817 1.04163 9.99984 1.04163C14.9415 1.04163 18.9582 5.05829 18.9582 9.99996C18.9582 14.9416 14.9415 18.9583 9.99984 18.9583ZM9.99984 2.29163C5.74984 2.29163 2.2915 5.74996 2.2915 9.99996C2.2915 14.25 5.74984 17.7083 9.99984 17.7083C14.2498 17.7083 17.7082 14.25 17.7082 9.99996C17.7082 5.74996 14.2498 2.29163 9.99984 2.29163Z" fill="#292B49"/>
</svg>
