<svg width="18" height="18" viewBox="0 0 18 18" fill="none" xmlns="http://www.w3.org/2000/svg">
<path d="M13.3499 6.50999H4.64991C4.47741 6.50999 4.31991 6.43502 4.21491 6.30002C4.10991 6.16502 4.06492 5.99251 4.10242 5.82751L4.71741 2.88748C4.91991 1.91998 5.36241 0.9375 7.08741 0.9375H10.9124C12.6449 0.9375 13.0874 1.92748 13.2824 2.88748L13.8974 5.82751C13.9349 5.99251 13.8899 6.16502 13.7849 6.30002C13.6799 6.43502 13.5224 6.50999 13.3499 6.50999ZM5.33991 5.38499H12.6524L12.1799 3.12749C12.0299 2.40749 11.8574 2.07001 10.9049 2.07001H7.07992C6.13492 2.07001 5.95492 2.40749 5.80492 3.12749L5.33991 5.38499Z" fill="#888AA0"/>
<path d="M13.3273 12.4873H12.3073C11.3173 12.4873 11.1148 11.8723 11.0023 11.5423L10.8898 11.2123C10.7698 10.8523 10.7698 10.8522 10.3873 10.8522H7.60476C7.22226 10.8522 7.22226 10.8598 7.10226 11.2123L6.98977 11.5423C6.87727 11.8723 6.67476 12.4873 5.68476 12.4873H4.66476C4.19226 12.4873 3.73476 12.2848 3.41976 11.9398C3.11226 11.6023 2.95476 11.1448 2.99976 10.6873L3.30726 7.37979C3.40476 6.34479 3.74226 5.38477 5.52726 5.38477H12.4648C14.2498 5.38477 14.5873 6.34479 14.6848 7.37979L14.9923 10.6948C15.0373 11.1523 14.8798 11.6098 14.5723 11.9473C14.2573 12.2923 13.7998 12.4873 13.3273 12.4873ZM12.1348 11.3548C12.1498 11.3548 12.2098 11.3623 12.3073 11.3623H13.3273C13.4848 11.3623 13.6348 11.3023 13.7398 11.1823C13.8373 11.0773 13.8823 10.9348 13.8748 10.7923L13.5673 7.47725C13.5073 6.80975 13.4773 6.50226 12.4723 6.50226H5.53476C4.52976 6.50226 4.49976 6.80975 4.43976 7.47725L4.13226 10.7923C4.11726 10.9348 4.16226 11.0773 4.26726 11.1823C4.37226 11.2948 4.52227 11.3623 4.67977 11.3623H5.69977C5.84977 11.3623 5.89476 11.3398 5.90226 11.3398C5.89476 11.3398 5.91726 11.2498 5.93976 11.1898L6.05227 10.8598C6.19477 10.4398 6.42726 9.72725 7.61976 9.72725H10.4023C11.4898 9.72725 11.7673 10.2598 11.9623 10.8448L12.0748 11.1823C12.0898 11.2498 12.1123 11.3248 12.1348 11.3548C12.1348 11.3548 12.1273 11.3548 12.1348 11.3548Z" fill="#888AA0"/>
<path d="M4.65004 4.875H4.10254C3.79504 4.875 3.54004 4.62 3.54004 4.3125C3.54004 4.005 3.79504 3.75 4.10254 3.75H4.65004C4.95754 3.75 5.21254 4.005 5.21254 4.3125C5.21254 4.62 4.95754 4.875 4.65004 4.875Z" fill="#888AA0"/>
<path d="M13.8971 4.875H13.3496C13.0421 4.875 12.7871 4.62 12.7871 4.3125C12.7871 4.005 13.0421 3.75 13.3496 3.75H13.8971C14.2046 3.75 14.4596 4.005 14.4596 4.3125C14.4596 4.62 14.2046 4.875 13.8971 4.875Z" fill="#888AA0"/>
<path d="M7.36499 8.68506H5.72998C5.42248 8.68506 5.16748 8.43006 5.16748 8.12256C5.16748 7.81506 5.42248 7.56006 5.72998 7.56006H7.36499C7.67249 7.56006 7.92749 7.81506 7.92749 8.12256C7.92749 8.43006 7.67999 8.68506 7.36499 8.68506Z" fill="#888AA0"/>
<path d="M12.2624 8.68506H10.6274C10.3199 8.68506 10.0649 8.43006 10.0649 8.12256C10.0649 7.81506 10.3199 7.56006 10.6274 7.56006H12.2624C12.5699 7.56006 12.8249 7.81506 12.8249 8.12256C12.8249 8.43006 12.5699 8.68506 12.2624 8.68506Z" fill="#888AA0"/>
<path d="M9 14.0625C8.6925 14.0625 8.4375 13.8075 8.4375 13.5V12.75C8.4375 12.4425 8.6925 12.1875 9 12.1875C9.3075 12.1875 9.5625 12.4425 9.5625 12.75V13.5C9.5625 13.8075 9.3075 14.0625 9 14.0625Z" fill="#888AA0"/>
<path d="M9 17.0625C8.6925 17.0625 8.4375 16.8075 8.4375 16.5V15.75C8.4375 15.4425 8.6925 15.1875 9 15.1875C9.3075 15.1875 9.5625 15.4425 9.5625 15.75V16.5C9.5625 16.8075 9.3075 17.0625 9 17.0625Z" fill="#888AA0"/>
<path d="M1.50007 17.0626C1.45507 17.0626 1.41008 17.055 1.36508 17.0475C1.06508 16.9725 0.877573 16.6651 0.952573 16.3651L1.70257 13.3651C1.77757 13.0651 2.07756 12.8776 2.38506 12.9526C2.68506 13.0276 2.87257 13.3351 2.79757 13.6351L2.04757 16.6351C1.98007 16.8901 1.75507 17.0626 1.50007 17.0626Z" fill="#888AA0"/>
<path d="M16.5 17.0625C16.245 17.0625 16.02 16.89 15.9525 16.635L15.2025 13.635C15.1275 13.335 15.3075 13.0275 15.615 12.9525C15.915 12.8775 16.2225 13.0575 16.2975 13.365L17.0475 16.365C17.1225 16.665 16.9425 16.9725 16.635 17.0475C16.59 17.055 16.545 17.0625 16.5 17.0625Z" fill="#888AA0"/>
</svg>
