<svg width="8" height="8" viewBox="0 0 8 8" fill="none" xmlns="http://www.w3.org/2000/svg">
<path d="M7.4465 3.10996L6.77984 2.77663C6.6565 2.71663 6.50317 2.76329 6.44317 2.88663C6.37984 3.01329 6.42984 3.16329 6.55317 3.22329L7.08317 3.48663V5.08329L5.83317 5.08663V1.66663C5.83317 0.999959 5.3865 0.666626 4.83317 0.666626H2.1665C1.61317 0.666626 1.1665 0.999959 1.1665 1.66663V7.08329H0.666504C0.529837 7.08329 0.416504 7.19663 0.416504 7.33329C0.416504 7.46996 0.529837 7.58329 0.666504 7.58329H6.33317C6.46984 7.58329 6.58317 7.46996 6.58317 7.33329C6.58317 7.19663 6.46984 7.08329 6.33317 7.08329H5.83317V5.58663L7.33317 5.58329C7.47317 5.58329 7.58317 5.46996 7.58317 5.33329V3.33329C7.58317 3.23996 7.52984 3.15329 7.4465 3.10996ZM1.99984 2.29663C1.99984 1.83329 2.28317 1.66663 2.62984 1.66663H4.37317C4.7165 1.66663 4.99984 1.83329 4.99984 2.29663V2.70663C4.99984 3.16663 4.7165 3.33329 4.36984 3.33329H2.62984C2.28317 3.33329 1.99984 3.16663 1.99984 2.70329V2.29663ZM2.1665 4.08329H3.1665C3.30317 4.08329 3.4165 4.19663 3.4165 4.33329C3.4165 4.46996 3.30317 4.58329 3.1665 4.58329H2.1665C2.02984 4.58329 1.9165 4.46996 1.9165 4.33329C1.9165 4.19663 2.02984 4.08329 2.1665 4.08329Z" fill="#888AA0"/>
</svg>
