<svg width="29" height="29" viewBox="0 0 29 29" fill="none" xmlns="http://www.w3.org/2000/svg">
<path opacity="0.4" d="M9.08081 12.3185C9.69802 12.8669 10.4084 13.2419 11.2869 13.2864C11.3633 13.2913 11.4383 13.2925 11.5121 13.2913C12.6003 13.2864 13.4517 12.8031 14.1543 12.0504C15.227 10.8997 15.6643 9.52655 15.7083 7.82638C15.6799 7.59902 15.6592 7.16988 15.5724 6.75255C15.2063 4.98747 13.8554 3.83921 11.9572 3.65031C11.7761 3.63355 11.5962 3.62508 11.4202 3.62508C9.72907 3.62879 8.31222 4.47878 7.6588 5.91684C6.75561 7.90205 7.4013 10.8288 9.08081 12.3185Z" fill="#F79B39"/>
<path d="M18.125 15.378C18.084 15.3285 18.0421 15.2795 17.9992 15.2311C17.1436 14.2674 15.9158 13.5826 14.5127 13.3517C14.3576 13.326 14.2004 13.306 14.0412 13.2917L14.0398 13.2932C14.0362 13.2932 14.0326 13.2932 14.0291 13.2917C13.8064 13.5519 13.555 13.7698 13.2835 13.9444C12.7263 14.3051 12.0858 14.4842 11.4461 14.4842C10.8042 14.4842 10.1638 14.3046 9.60607 13.9432C9.33506 13.7691 9.08409 13.5516 8.86172 13.2917C8.85813 13.2932 8.85503 13.2932 8.85147 13.2932V13.2917C8.69224 13.306 8.53446 13.326 8.37954 13.3517C6.9752 13.5826 5.74749 14.2674 4.89181 15.2311C4.3112 15.8844 3.90197 16.6662 3.72439 17.5212C3.65909 17.8341 3.625 18.1575 3.625 18.4877V23.1364C4.09598 23.5355 4.68564 23.896 5.37041 24.2041C5.43476 24.2332 5.50007 24.2618 5.56633 24.2899C5.73486 24.3628 5.90884 24.4319 6.08783 24.4975C6.14765 24.5189 6.20987 24.5419 6.27208 24.5636C6.27517 24.5646 6.27827 24.5657 6.28138 24.5665V20.5686L7.0641 24.8104C8.36309 25.1697 9.85656 25.375 11.4461 25.375C12.3049 25.375 13.136 25.3148 13.9235 25.2027C13.2637 24.1936 12.88 22.986 12.88 21.6888C12.88 18.5385 15.1423 15.9186 18.125 15.378Z" fill="#F79B39"/>
<path d="M24.4258 24.2071C24.2593 24.5265 24.0594 24.8258 23.8305 25.1002C23.2054 24.8217 23.0765 24.2624 23.0948 23.7932C23.1144 23.2913 23.3115 22.8133 23.6389 22.432C24.2291 21.7449 24.7882 21.9028 24.9444 21.9664C24.9444 21.9778 24.9446 21.9888 24.9446 22C24.9446 22.7933 24.7577 23.5428 24.4258 24.2071ZM21.5479 20.3593C21.5479 20.3593 20.5995 20.088 20.0003 20.1149C19.4006 20.088 18.4522 20.3593 18.4522 20.3593C16.9459 20.9046 15.6879 20.9234 15.2654 20.9113C15.2335 20.9102 15.2047 20.8977 15.1834 20.8777C15.6748 18.7599 17.5273 17.1636 19.7691 17.0609C19.8455 17.0573 19.9225 17.0554 19.9999 17.0554C22.3447 17.0554 24.3081 18.6876 24.8164 20.8773C24.7951 20.8975 24.7665 20.91 24.7343 20.9107C24.3102 20.9225 23.0473 20.902 21.5479 20.3593ZM19.0429 22C19.0429 21.4721 19.472 21.043 19.9999 21.0427C20.5274 21.0427 20.9574 21.4721 20.9574 22C20.9574 22.5279 20.5278 22.9573 20.0003 22.9573C19.4724 22.957 19.0429 22.5279 19.0429 22ZM19.9999 26.9158C18.9465 26.9158 17.969 26.5889 17.164 26.0313C17.408 25.6533 18.5847 25.3663 20.0003 25.3663C21.415 25.3663 22.5919 25.6533 22.8358 26.0313C22.0308 26.5889 21.0536 26.9158 19.9999 26.9158ZM16.364 24.9951C16.3051 25.0336 16.2407 25.069 16.1697 25.1005C15.9389 24.8242 15.7376 24.5222 15.5706 24.1996C15.2407 23.5372 15.0554 22.7905 15.0554 22V21.9664C15.2112 21.9028 15.7707 21.7447 16.361 22.432C16.5139 22.6099 16.6383 22.8088 16.7295 23.0216C16.8338 23.2647 16.8949 23.5256 16.9054 23.7932C16.9214 24.2092 16.8218 24.696 16.364 24.9951ZM25.9996 21.9309C25.9996 21.9236 25.9993 21.9167 25.9993 21.9096C25.9991 21.901 25.9991 21.8924 25.9989 21.884C25.9989 21.8724 25.9983 21.8606 25.9979 21.849C25.9979 21.8443 25.9978 21.8395 25.9978 21.8346C25.9976 21.8236 25.997 21.8126 25.9968 21.8015C25.9964 21.7946 25.9963 21.7877 25.9959 21.7808C25.995 21.7488 25.9935 21.7167 25.9918 21.6849C25.9918 21.6831 25.9916 21.6816 25.9916 21.6801C25.991 21.6726 25.9908 21.6651 25.9903 21.658C25.989 21.6334 25.9875 21.6087 25.9858 21.5844C25.9852 21.5782 25.9849 21.5719 25.9845 21.5657C25.9845 21.5648 25.9841 21.5637 25.9841 21.5629C25.9828 21.545 25.9817 21.527 25.98 21.5091C25.9796 21.5018 25.9791 21.4947 25.9783 21.4878C25.9783 21.4857 25.978 21.4839 25.9778 21.4818C25.9768 21.4684 25.9755 21.4547 25.9742 21.4411C25.9735 21.4314 25.9723 21.4218 25.9714 21.4121C25.9703 21.3994 25.969 21.3865 25.9677 21.3736C25.9675 21.3727 25.9675 21.3719 25.9673 21.3708C25.966 21.3581 25.9647 21.3452 25.9632 21.3321C25.9628 21.3293 25.9626 21.3265 25.9624 21.3237C25.9613 21.3161 25.9606 21.3084 25.9596 21.3005C25.9596 21.3002 25.9596 21.2994 25.9593 21.2985C25.9585 21.2921 25.9578 21.2856 25.957 21.2791C25.955 21.2619 25.9529 21.2447 25.9507 21.2275C25.9495 21.2194 25.9486 21.2112 25.9475 21.203C25.9466 21.1948 25.9452 21.1864 25.9441 21.1781C25.9439 21.1765 25.9438 21.1748 25.9434 21.1729C25.9421 21.1638 25.9408 21.1544 25.9396 21.1453C25.9393 21.1434 25.9391 21.1417 25.9389 21.1398C25.9378 21.1326 25.9365 21.1251 25.9355 21.1178C25.9337 21.106 25.9322 21.0942 25.9303 21.0825C25.9301 21.0819 25.9301 21.0812 25.9301 21.0806C25.9288 21.0728 25.9275 21.0647 25.9262 21.0569C25.915 20.9853 25.9025 20.9141 25.8886 20.8433C25.8875 20.8386 25.8868 20.8337 25.8858 20.8289C25.8847 20.8235 25.8834 20.8182 25.8825 20.8124C25.8797 20.7986 25.8767 20.7848 25.8739 20.7713C25.8731 20.7676 25.8727 20.7642 25.8718 20.7611C25.8709 20.7556 25.8696 20.7504 25.8686 20.7452C25.8655 20.7312 25.8625 20.7171 25.8593 20.7033C25.8578 20.6957 25.8559 20.6876 25.8542 20.68C25.8509 20.6652 25.8475 20.6504 25.8442 20.6357C25.8432 20.6317 25.8425 20.6282 25.8414 20.6243C25.8328 20.5863 25.8234 20.5484 25.8137 20.5108C25.8137 20.5103 25.8135 20.5097 25.8135 20.5092C25.8094 20.4938 25.8053 20.4781 25.8012 20.4626C25.7993 20.4561 25.7976 20.4495 25.7959 20.4428C25.7918 20.4282 25.7881 20.4139 25.784 20.3993C25.7819 20.3918 25.7799 20.3843 25.7778 20.377C25.7737 20.3627 25.7698 20.3484 25.7657 20.3341C25.7634 20.3268 25.7614 20.3193 25.7591 20.3118C25.755 20.2974 25.7507 20.283 25.7462 20.2688C25.7442 20.2619 25.7421 20.2552 25.7401 20.2483C25.7356 20.2333 25.7309 20.2182 25.7262 20.2034C25.7247 20.1988 25.7234 20.1941 25.7219 20.1892C25.7048 20.1354 25.687 20.0818 25.6687 20.0285C25.6674 20.025 25.6661 20.0214 25.6648 20.0177C25.6593 20.0027 25.6539 19.9876 25.6485 19.9725C25.6463 19.9663 25.6442 19.9601 25.642 19.954C25.6367 19.9394 25.6315 19.925 25.6261 19.9106C25.6237 19.9039 25.6212 19.8973 25.6186 19.8906C25.6132 19.8766 25.6078 19.8622 25.6025 19.848C25.5999 19.8415 25.5973 19.8349 25.5947 19.8284C25.5891 19.814 25.5835 19.7996 25.5779 19.7852C25.5758 19.7796 25.5736 19.7742 25.5711 19.7686C25.5429 19.6983 25.5138 19.6288 25.4829 19.5599C25.4807 19.5548 25.4785 19.5496 25.476 19.5445L25.4568 19.5023C25.454 19.4958 25.451 19.4894 25.4482 19.4832C25.4416 19.4696 25.4357 19.4561 25.4291 19.4425C25.4261 19.4358 25.4228 19.4292 25.4196 19.4225C25.4132 19.4092 25.4069 19.3956 25.4002 19.3823C25.3972 19.3758 25.394 19.3696 25.391 19.3633C25.3843 19.3494 25.3774 19.3358 25.3706 19.322C25.3684 19.3173 25.3658 19.3128 25.3635 19.308C25.3392 19.2594 25.314 19.2115 25.2884 19.1635C25.2862 19.1592 25.2837 19.1545 25.2813 19.1502C25.274 19.137 25.2669 19.1239 25.2596 19.1108C25.2561 19.1043 25.2525 19.0977 25.249 19.091C25.2421 19.0787 25.2348 19.0662 25.2279 19.0538C25.2241 19.0467 25.22 19.0398 25.2159 19.0325C25.209 19.0206 25.2021 19.0082 25.1948 18.9961C25.1907 18.989 25.1866 18.9819 25.1825 18.975C25.1754 18.9626 25.1684 18.9505 25.161 18.9385C25.1572 18.9318 25.1531 18.9253 25.1492 18.9185C25.1417 18.906 25.1341 18.8933 25.1266 18.8808C25.1242 18.877 25.1215 18.8729 25.1189 18.8688C25.1015 18.84 25.0836 18.8113 25.0653 18.7829C25.0632 18.7795 25.0614 18.7761 25.0589 18.773C25.0515 18.761 25.0438 18.7492 25.0361 18.7374C25.0315 18.7303 25.027 18.7231 25.0223 18.7161C25.0152 18.7051 25.0077 18.6941 25.0004 18.6831C24.9954 18.6754 24.9904 18.6677 24.9851 18.6601C24.978 18.6492 24.9707 18.6386 24.9633 18.6279C24.958 18.6201 24.9526 18.6121 24.9472 18.6044C24.9401 18.5939 24.9328 18.5835 24.9253 18.5728C24.9201 18.565 24.9143 18.5569 24.9091 18.5493C24.9016 18.5388 24.8941 18.5283 24.887 18.5181C24.8812 18.5104 24.8756 18.5027 24.8702 18.4949C24.8625 18.4844 24.8551 18.474 24.8474 18.4637C24.8453 18.4607 24.8431 18.4575 24.8409 18.4545C24.8237 18.4312 24.8061 18.4076 24.7885 18.3845C24.7824 18.3762 24.7762 18.368 24.77 18.3598C24.7629 18.3504 24.7555 18.3409 24.748 18.3314C24.7416 18.3232 24.7351 18.3148 24.7287 18.3065C24.7213 18.2974 24.7142 18.2878 24.7067 18.2787C24.7002 18.2705 24.6934 18.2619 24.6869 18.2536C24.6796 18.2445 24.6721 18.2353 24.6646 18.2264C24.6581 18.2178 24.651 18.2094 24.6441 18.2009C24.637 18.192 24.6295 18.1832 24.6224 18.1742C24.6151 18.1656 24.6078 18.157 24.6006 18.1484C24.5935 18.1398 24.5862 18.1312 24.5791 18.1226C24.5708 18.1129 24.5626 18.1036 24.5544 18.0937C24.5434 18.081 24.5323 18.0681 24.5211 18.0556C24.512 18.0447 24.5026 18.0343 24.4935 18.0238C24.4862 18.0158 24.4793 18.0081 24.4724 18.0002C24.4641 17.9913 24.4563 17.9823 24.4483 17.9735C24.4408 17.9653 24.4337 17.9575 24.4262 17.9494C24.4185 17.9406 24.4107 17.9322 24.4027 17.9238C24.3952 17.9156 24.3879 17.9076 24.3804 17.8997C24.3724 17.8913 24.3642 17.8827 24.3563 17.8743C24.3488 17.8663 24.3414 17.8584 24.3339 17.8508C24.3259 17.842 24.3173 17.8336 24.309 17.8248C24.3018 17.8173 24.2945 17.8096 24.287 17.8024C24.278 17.793 24.269 17.784 24.2601 17.7749C24.2532 17.7682 24.2466 17.7612 24.2397 17.7543C24.2246 17.7392 24.2091 17.7241 24.1937 17.7089C24.187 17.7026 24.1805 17.6962 24.1739 17.6897C24.1646 17.6805 24.1549 17.6714 24.1453 17.6622C24.1379 17.6551 24.1302 17.648 24.1227 17.6407C24.1138 17.6325 24.105 17.6241 24.0964 17.6159C24.0883 17.6084 24.0805 17.6013 24.0725 17.5938C24.0641 17.586 24.0553 17.5779 24.0469 17.5703C24.0386 17.5628 24.0306 17.5553 24.0226 17.5482C24.0138 17.5402 24.0054 17.5325 23.9966 17.5247C23.9884 17.5174 23.9802 17.5103 23.9723 17.5032C23.9633 17.4951 23.9544 17.4875 23.9456 17.4798C23.9374 17.4725 23.9295 17.4656 23.9213 17.4585C23.9116 17.4501 23.9015 17.4415 23.8918 17.4331C23.8787 17.4221 23.8656 17.411 23.8525 17.4002C23.8428 17.392 23.8331 17.3836 23.823 17.3757C23.8226 17.375 23.8217 17.3744 23.8213 17.3739C23.8034 17.3593 23.7856 17.3447 23.7677 17.3301C23.7669 17.3296 23.7664 17.329 23.7656 17.3285C23.7643 17.3275 23.7628 17.3262 23.7615 17.3251C23.7589 17.323 23.7561 17.3208 23.7535 17.3187C23.7518 17.3172 23.7497 17.3159 23.7479 17.3144C23.7458 17.3129 23.7438 17.3113 23.7421 17.3096C23.7406 17.3085 23.7389 17.3072 23.7376 17.3062C23.7299 17.3 23.7225 17.2941 23.7148 17.2881C23.7146 17.2877 23.7141 17.2875 23.7139 17.2872C23.7126 17.2862 23.7112 17.2851 23.7099 17.2842C23.7013 17.2773 23.6924 17.2703 23.6834 17.2634C23.6763 17.2573 23.6694 17.2513 23.6615 17.2464C23.643 17.232 23.6244 17.218 23.6057 17.204C23.6057 17.2036 23.6059 17.2042 23.6057 17.204C23.6055 17.2036 23.6044 17.2029 23.6042 17.2027C23.5963 17.1971 23.5887 17.1911 23.581 17.1855C23.5804 17.1849 23.5797 17.1844 23.5793 17.1842C23.576 17.1816 23.5728 17.179 23.5694 17.1767C23.5616 17.1709 23.5535 17.1649 23.5457 17.1593C23.538 17.1537 23.5304 17.1479 23.5225 17.1423C23.5169 17.1382 23.5113 17.1341 23.5059 17.1304C23.5049 17.1296 23.5042 17.1293 23.5035 17.1285C23.4984 17.125 23.4936 17.1216 23.4887 17.118C23.4773 17.1098 23.4653 17.1014 23.4539 17.0934C23.4429 17.0855 23.4315 17.0775 23.4205 17.0698C23.4194 17.0689 23.4182 17.068 23.4169 17.0672C23.3992 17.0549 23.3816 17.0429 23.3637 17.0308C23.3633 17.0306 23.3629 17.0304 23.3626 17.03C23.3616 17.0293 23.3605 17.0289 23.3596 17.028C23.3512 17.0222 23.3424 17.0166 23.3336 17.0106C23.3328 17.01 23.3319 17.0093 23.3308 17.0089C23.3239 17.0042 23.317 16.9996 23.31 16.9949C23.3091 16.9941 23.308 16.9938 23.3072 16.9928C23.3071 16.9926 23.3074 16.993 23.3072 16.9928C23.2985 16.9872 23.2893 16.9811 23.2805 16.9755C23.2798 16.9749 23.279 16.9745 23.2783 16.974C23.2775 16.9738 23.277 16.9732 23.2762 16.9727C23.2611 16.9629 23.246 16.9528 23.2308 16.9431C23.2282 16.9416 23.2258 16.9398 23.2232 16.9381C23.219 16.9358 23.2153 16.9334 23.2116 16.931C23.2093 16.9297 23.2071 16.928 23.2047 16.9265C23.2013 16.9244 23.1981 16.9224 23.1947 16.9203C23.1826 16.9129 23.1708 16.9052 23.1589 16.8977C23.1538 16.8945 23.148 16.8912 23.143 16.888C23.1327 16.8816 23.1224 16.8755 23.1123 16.8693C23.112 16.8691 23.1114 16.8688 23.111 16.8686C23.0991 16.8611 23.0871 16.8542 23.0752 16.8471C23.0723 16.8452 23.0699 16.8437 23.0673 16.8422C23.0671 16.8418 23.0666 16.8418 23.0662 16.8417C23.0535 16.834 23.0404 16.8263 23.0273 16.8187C23.0247 16.817 23.0221 16.8155 23.0197 16.814C23.0176 16.8127 23.0155 16.8119 23.0135 16.8106C23.0122 16.8097 23.0107 16.809 23.009 16.808C23.0086 16.8076 23.0079 16.8073 23.0071 16.8067C23.003 16.8045 22.9989 16.8019 22.9948 16.7996C22.9909 16.7974 22.9868 16.7949 22.9827 16.7927C22.9799 16.7908 22.9765 16.7891 22.9735 16.7877C22.9658 16.783 22.958 16.7787 22.9501 16.7742C22.9475 16.7727 22.9447 16.7712 22.9419 16.7697C22.9414 16.7693 22.9406 16.7688 22.94 16.7686C22.9397 16.7684 22.9391 16.768 22.9389 16.7678C22.9335 16.7647 22.9279 16.7617 22.9225 16.7587C22.9219 16.7583 22.9217 16.7581 22.9212 16.7578C22.9081 16.7505 22.8948 16.7432 22.8817 16.7361C22.8804 16.7353 22.8793 16.7348 22.878 16.7342C22.8745 16.7322 22.8707 16.7299 22.867 16.7279C22.8659 16.7273 22.8646 16.7265 22.8629 16.7258C22.855 16.7215 22.847 16.7174 22.8391 16.7129C22.839 16.7127 22.8393 16.7131 22.8391 16.7129C22.8317 16.709 22.8233 16.7045 22.8156 16.7004C22.8137 16.6995 22.812 16.6983 22.8102 16.6974C22.8027 16.6935 22.7952 16.6897 22.7881 16.6858C22.7846 16.6839 22.7812 16.6819 22.7777 16.6802C22.776 16.6795 22.7743 16.6787 22.7728 16.6776C22.7676 16.675 22.7627 16.6725 22.7577 16.6699C22.7457 16.6638 22.7337 16.6576 22.7218 16.6514C22.7207 16.6509 22.7199 16.6505 22.7192 16.6501C22.7188 16.6499 22.7194 16.6501 22.7192 16.6501C22.7046 16.6426 22.6895 16.635 22.6749 16.6279C22.6717 16.6264 22.6689 16.6247 22.6657 16.6232C22.6601 16.6204 22.6545 16.6176 22.6489 16.615C22.6418 16.6112 22.6345 16.6079 22.6274 16.6045C22.6181 16.5999 22.6087 16.5954 22.5992 16.5907C22.5912 16.5868 22.5829 16.5827 22.5747 16.5791C22.5648 16.5742 22.5549 16.5698 22.5448 16.5647C22.5392 16.5623 22.5336 16.5597 22.5278 16.5569C22.5116 16.5494 22.4951 16.5417 22.4789 16.5343C22.4759 16.5328 22.4725 16.5315 22.4695 16.5301C22.4607 16.526 22.4518 16.5223 22.443 16.5184C22.4353 16.515 22.4278 16.5115 22.4206 16.5081C22.4185 16.5073 22.4164 16.5064 22.4146 16.5055C22.4136 16.5053 22.4127 16.5047 22.4118 16.5045C22.4075 16.5025 22.403 16.5004 22.3985 16.4986C22.3957 16.4974 22.3927 16.4961 22.3899 16.4948C22.3837 16.4922 22.3776 16.4896 22.3716 16.4868C22.3671 16.4851 22.363 16.4832 22.3587 16.4816C22.3552 16.4799 22.3512 16.4782 22.3477 16.4765C22.3406 16.4735 22.3331 16.4705 22.3258 16.4674C22.3241 16.4668 22.3226 16.4661 22.3208 16.4653C22.3168 16.4636 22.3127 16.4619 22.3086 16.4603C22.3075 16.4597 22.3058 16.4591 22.3043 16.4584C22.3034 16.4582 22.3026 16.4576 22.3017 16.4575C22.2987 16.4561 22.2959 16.4548 22.2927 16.4537C22.2903 16.4528 22.2879 16.4517 22.2856 16.4507C22.2772 16.4472 22.2686 16.4438 22.2602 16.4403C22.2567 16.439 22.2531 16.4375 22.2498 16.4358C22.2443 16.4337 22.2393 16.4317 22.2341 16.4296C22.2326 16.4292 22.2307 16.4285 22.2292 16.4279C22.1836 16.4094 22.1375 16.3917 22.0913 16.3745L22.0666 16.3653C22.0655 16.3648 22.0642 16.3644 22.0631 16.364C22.0444 16.3571 22.0255 16.3504 22.0065 16.3435C22.0053 16.3433 22.0044 16.3431 22.0035 16.3425C21.9678 16.33 21.9321 16.3179 21.8962 16.3059C21.8936 16.3052 21.8912 16.304 21.8885 16.3033C21.8686 16.2966 21.8486 16.2902 21.8286 16.2839C21.8254 16.2827 21.8224 16.2818 21.819 16.2807C21.8134 16.279 21.8074 16.2771 21.8018 16.2754C21.7932 16.2725 21.785 16.27 21.7762 16.2674C21.7742 16.2667 21.7719 16.2659 21.7699 16.2652C21.7675 16.2646 21.7654 16.2639 21.7632 16.2633C21.7611 16.2626 21.759 16.262 21.757 16.2614C21.7542 16.2605 21.7516 16.2597 21.7488 16.259C21.7475 16.2584 21.746 16.2579 21.7447 16.2577C21.7267 16.2523 21.7088 16.2469 21.6907 16.2414C21.6888 16.2411 21.6867 16.2403 21.685 16.2398C21.6742 16.2366 21.6634 16.2336 21.6523 16.2304C21.626 16.2227 21.5993 16.2155 21.5724 16.2082C21.5722 16.208 21.5716 16.208 21.5711 16.2076L21.5189 16.1938C21.5169 16.1934 21.515 16.1928 21.5129 16.1923C21.5116 16.1921 21.5107 16.1917 21.5094 16.1915C21.4982 16.1884 21.4868 16.1856 21.4756 16.1828C21.469 16.1813 21.4631 16.1794 21.4565 16.1779C21.4517 16.1766 21.4462 16.1753 21.4414 16.1742C21.4397 16.1738 21.4378 16.1734 21.4361 16.1729C21.4021 16.1646 21.3681 16.1566 21.3341 16.1489C21.3309 16.1482 21.3276 16.1474 21.3246 16.1467C21.3242 16.1467 21.324 16.1467 21.3235 16.1463C21.3222 16.1461 21.321 16.1459 21.3197 16.1456C21.3193 16.1454 21.3192 16.1454 21.3186 16.1454C21.3145 16.1444 21.3108 16.1435 21.3066 16.1428C21.2917 16.1394 21.2769 16.1362 21.2622 16.133C21.2607 16.1325 21.2592 16.1323 21.2577 16.1321C21.2414 16.1284 21.2254 16.1252 21.2091 16.1218C21.2012 16.1203 21.1932 16.1187 21.1854 16.117C21.1721 16.1144 21.1586 16.1117 21.1456 16.1093C21.1411 16.1084 21.1366 16.1074 21.1323 16.1067C21.1304 16.1063 21.1289 16.106 21.1271 16.1056C21.1261 16.1056 21.125 16.1052 21.1241 16.1052C21.1037 16.1013 21.0839 16.0974 21.0635 16.0938C21.063 16.0938 21.0626 16.0936 21.062 16.0936C21.0422 16.0903 21.0228 16.0867 21.003 16.0833C21.002 16.0833 21.0013 16.0832 21.0002 16.0828C20.9998 16.0828 20.9989 16.0828 20.9981 16.0826C20.9979 16.0826 20.9987 16.0826 20.9981 16.0826C20.9976 16.0824 20.9961 16.0824 20.9957 16.0824C20.9888 16.0811 20.9815 16.08 20.9746 16.0787C20.9667 16.0774 20.9589 16.0762 20.951 16.0749C20.9464 16.0742 20.9421 16.0736 20.9374 16.0729C20.9357 16.0725 20.9337 16.0721 20.9316 16.0718C20.929 16.0716 20.9264 16.071 20.9241 16.0708C20.9172 16.0697 20.9103 16.0684 20.9034 16.0675C20.8944 16.0662 20.8854 16.0647 20.8765 16.0633C20.8711 16.0628 20.8658 16.062 20.8608 16.0613C20.8561 16.0605 20.8516 16.06 20.8469 16.0592C20.8393 16.0583 20.8318 16.0572 20.8242 16.0562C20.82 16.0557 20.8159 16.0549 20.8118 16.0544C20.8105 16.0542 20.8092 16.0542 20.8077 16.0538C20.8049 16.0536 20.8021 16.0531 20.7995 16.0529C20.798 16.0525 20.7967 16.0523 20.7952 16.0523C20.7905 16.0516 20.7862 16.051 20.7815 16.0505C20.7787 16.0501 20.7759 16.0497 20.7733 16.0493C20.7724 16.0493 20.7713 16.049 20.7703 16.049C20.7696 16.0488 20.7688 16.0488 20.7679 16.0488C20.767 16.0484 20.7658 16.0484 20.7651 16.0482C20.763 16.048 20.761 16.0477 20.7589 16.0475C20.7541 16.0469 20.7492 16.0463 20.7442 16.0456C20.741 16.0454 20.738 16.0448 20.7348 16.0447C20.7333 16.0443 20.7315 16.0441 20.73 16.0439C20.7287 16.0439 20.7277 16.0435 20.7264 16.0434C20.7161 16.042 20.7055 16.0411 20.6948 16.0398C20.6918 16.0394 20.6887 16.0391 20.6855 16.0387C20.6823 16.0383 20.6793 16.0379 20.6762 16.0377C20.6752 16.0374 20.6741 16.0374 20.6732 16.0372C20.6724 16.0372 20.6715 16.0372 20.6711 16.037C20.6522 16.0349 20.6326 16.0329 20.6134 16.0308C20.61 16.0305 20.6066 16.0303 20.6035 16.0297C20.5829 16.0277 20.5622 16.026 20.5414 16.0241C20.541 16.0241 20.5414 16.0243 20.5414 16.0241C20.5209 16.0222 20.4996 16.0206 20.479 16.0187C20.4755 16.0185 20.4708 16.0183 20.467 16.0179C20.4652 16.0178 20.4635 16.0174 20.4616 16.0174C20.4437 16.0163 20.4256 16.0146 20.4072 16.0133C20.4058 16.0133 20.4039 16.0133 20.4024 16.0131C20.3968 16.0129 20.3914 16.0125 20.3859 16.0121H20.3837C20.3716 16.0114 20.3594 16.0105 20.3471 16.0097C20.3404 16.0095 20.334 16.0092 20.3273 16.0088C20.3133 16.008 20.2994 16.0075 20.2852 16.0067C20.2774 16.0064 20.2695 16.006 20.2617 16.0054C20.2536 16.0052 20.2458 16.0049 20.2378 16.0047C20.2342 16.0043 20.2308 16.0043 20.2275 16.0041C20.2224 16.0041 20.2174 16.0039 20.2123 16.0035C20.206 16.0034 20.1996 16.0032 20.1935 16.0028C20.183 16.0026 20.1725 16.0022 20.1623 16.0021C20.1576 16.0021 20.1533 16.0019 20.1488 16.0019C20.1451 16.0015 20.141 16.0015 20.137 16.0015H20.1344C20.1337 16.0015 20.1333 16.0015 20.1327 16.0013H20.1264C20.1169 16.0011 20.1073 16.0011 20.0978 16.0007C20.0886 16.0006 20.0791 16.0006 20.07 16.0002H20.0548C20.0365 16 20.0184 16 20.0003 16H19.9687C19.9569 16.0002 19.9451 16.0002 19.9332 16.0002C19.933 16.0002 19.932 16.0002 19.932 16.0002H19.9307C19.9205 16.0006 19.91 16.0007 19.8993 16.0007C19.8889 16.0011 19.8782 16.0011 19.8674 16.0013C19.8666 16.0015 19.8659 16.0015 19.8651 16.0015H19.8638C19.8603 16.0015 19.8569 16.0015 19.8536 16.0019C19.848 16.0019 19.842 16.0021 19.8364 16.0021C19.8263 16.0022 19.8164 16.0026 19.8063 16.0028C19.8007 16.0032 19.7949 16.0034 19.7891 16.0035C19.7861 16.0035 19.7831 16.0039 19.7799 16.0039C19.7723 16.0041 19.7646 16.0047 19.757 16.0049C19.75 16.0052 19.7427 16.0054 19.7358 16.0056C19.73 16.006 19.7243 16.0062 19.7186 16.0064C19.7117 16.0067 19.7048 16.0073 19.6979 16.0075C19.6942 16.0077 19.6901 16.0077 19.6861 16.008C19.6813 16.0082 19.676 16.0084 19.6712 16.0088C19.665 16.009 19.6592 16.0095 19.6529 16.0097C19.6422 16.0103 19.6321 16.011 19.6215 16.0118C19.6179 16.0121 19.614 16.0121 19.6104 16.0123C19.605 16.0129 19.6 16.0131 19.5949 16.0133C19.5798 16.0144 19.5649 16.0153 19.5499 16.0166C19.545 16.017 19.54 16.0172 19.5351 16.0178C19.5338 16.0178 19.5325 16.0179 19.5312 16.0179C19.5241 16.0185 19.5168 16.0192 19.5097 16.0198C19.494 16.0211 19.478 16.0224 19.4623 16.0235C19.4251 16.0269 19.3879 16.0308 19.3511 16.0346C19.3464 16.0351 19.3421 16.0357 19.3374 16.0363C19.3346 16.0364 19.3316 16.037 19.3285 16.0372C19.3268 16.0374 19.3251 16.0377 19.3234 16.0377C19.3145 16.0387 19.3051 16.0398 19.2961 16.0407C19.2885 16.0419 19.2808 16.0426 19.2733 16.0434C19.2705 16.0439 19.2675 16.0441 19.2644 16.0447C19.2618 16.0448 19.2593 16.0452 19.2567 16.0456C19.2444 16.0473 19.232 16.0488 19.2197 16.0503C19.2126 16.0512 19.2055 16.0521 19.1982 16.0531C19.1975 16.0531 19.1965 16.0531 19.1958 16.0533C19.1872 16.0544 19.1788 16.0557 19.17 16.057C19.1644 16.0577 19.1586 16.0585 19.1526 16.0592C19.1463 16.0604 19.1395 16.0611 19.1332 16.062C19.1298 16.0626 19.1268 16.0632 19.1235 16.0633C19.116 16.0647 19.1085 16.0656 19.1009 16.0669C19.0814 16.0697 19.0618 16.0729 19.0427 16.0759C19.0398 16.0764 19.037 16.077 19.0341 16.0774C19.0332 16.0774 19.0325 16.0777 19.0313 16.0777C19.0214 16.0794 19.0112 16.0811 19.0011 16.0828C19.0009 16.0828 19.0013 16.0828 19.0011 16.0828C18.98 16.0861 18.9587 16.0901 18.9377 16.0936C18.9374 16.0936 18.9368 16.0938 18.9366 16.0938C18.9187 16.0972 18.9005 16.1005 18.8826 16.1039C18.8783 16.1046 18.8736 16.1054 18.8693 16.1063C18.8684 16.1063 18.8675 16.1067 18.8665 16.1069C18.8635 16.1074 18.8605 16.108 18.8576 16.1084C18.8419 16.1116 18.826 16.1149 18.8105 16.1179C18.8079 16.1185 18.805 16.119 18.8026 16.1194L18.7981 16.1203C18.7845 16.1231 18.7709 16.1261 18.7574 16.1289C18.7529 16.1297 18.7486 16.1308 18.7439 16.1316C18.7426 16.1317 18.7413 16.1323 18.7402 16.1325C18.7382 16.1329 18.7357 16.1332 18.7335 16.1338C18.7211 16.1366 18.7092 16.1392 18.6969 16.142C18.6916 16.1431 18.6864 16.1441 18.6812 16.1454C18.6804 16.1456 18.6797 16.1456 18.6789 16.1459C18.6776 16.1461 18.6763 16.1463 18.675 16.1469C18.6742 16.1469 18.6733 16.1473 18.6724 16.1474C18.6584 16.1504 18.644 16.1538 18.63 16.1572L18.5907 16.1665C18.5789 16.1693 18.5672 16.1721 18.5556 16.1751C18.5543 16.1753 18.553 16.1757 18.5515 16.1758C18.5474 16.1772 18.5431 16.1783 18.5389 16.1792C18.5238 16.1831 18.5087 16.1867 18.4935 16.1908C18.4917 16.191 18.4902 16.1915 18.4883 16.1921C18.4792 16.1943 18.4696 16.197 18.4605 16.1994C18.4162 16.211 18.3723 16.2233 18.3284 16.2358C18.3198 16.2384 18.3108 16.2411 18.302 16.2435C18.3011 16.2439 18.2999 16.2441 18.299 16.2444C18.2971 16.2452 18.2951 16.2455 18.2932 16.2461C18.2872 16.248 18.2813 16.2497 18.2753 16.2515C18.2672 16.2541 18.2592 16.2564 18.251 16.259C18.2467 16.2603 18.242 16.2614 18.2373 16.2631C18.2342 16.2639 18.231 16.2652 18.228 16.2659C18.0525 16.3203 17.8808 16.382 17.7126 16.4515C17.708 16.4533 17.7035 16.4554 17.6986 16.4571C17.6947 16.459 17.6906 16.4604 17.6868 16.4619C17.6809 16.4646 17.6753 16.4668 17.6693 16.4694C17.6663 16.4707 17.6629 16.4722 17.6596 16.4735C17.6562 16.475 17.6528 16.4763 17.6496 16.4778C17.6483 16.4784 17.647 16.4789 17.6457 16.4795C17.6448 16.4799 17.6437 16.4804 17.6424 16.4806C17.6403 16.4817 17.6381 16.4827 17.6358 16.4838C17.5166 16.535 17.3991 16.5899 17.2839 16.6484C17.2838 16.6486 17.2832 16.6488 17.2826 16.6492C17.2817 16.6497 17.2808 16.6501 17.2797 16.6507C17.2681 16.6567 17.2565 16.6625 17.2451 16.6686C17.2415 16.6705 17.2376 16.6722 17.2341 16.6742C17.2333 16.6748 17.2327 16.675 17.232 16.6753C17.2316 16.6753 17.2322 16.6752 17.232 16.6753C17.2165 16.6834 17.2002 16.692 17.1847 16.7002C17.1845 16.7002 17.1851 16.7002 17.1847 16.7002C17.1827 16.7015 17.1799 16.7028 17.1778 16.7037C17.1774 16.7043 17.1765 16.7045 17.1761 16.7047C17.1589 16.714 17.1414 16.7232 17.1244 16.7327C17.1225 16.7336 17.1206 16.7348 17.1189 16.7357C17.1156 16.7376 17.1122 16.7394 17.1092 16.7411C17.0941 16.7493 17.0791 16.7576 17.0646 16.7658C17.0638 16.7664 17.0631 16.7665 17.0625 16.7671C17.0595 16.7686 17.0565 16.7705 17.0537 16.772C17.0382 16.7809 17.0225 16.7897 17.0072 16.7987C17.0066 16.7989 17.0061 16.7991 17.0053 16.7994C16.9872 16.8099 16.9693 16.8204 16.951 16.8312C16.9024 16.8602 16.8542 16.8897 16.8061 16.9198C16.8031 16.9216 16.8 16.9237 16.797 16.9256C16.7932 16.9278 16.7897 16.93 16.7863 16.9325C16.7708 16.9422 16.7553 16.9521 16.7398 16.9622C16.7364 16.9644 16.7331 16.9665 16.7297 16.9689C16.7276 16.97 16.7256 16.9713 16.7233 16.9728C16.5864 17.0624 16.4531 17.1573 16.3242 17.2574C16.3236 17.258 16.3229 17.2582 16.3223 17.2588C16.3214 17.2599 16.3201 17.2606 16.3192 17.2614C16.2872 17.2862 16.2558 17.3111 16.2244 17.3365C16.2222 17.3385 16.2199 17.3402 16.2175 17.3421C16.216 17.3434 16.2147 17.3443 16.2134 17.3455C15.9714 17.5428 15.7451 17.7584 15.5364 17.9905C15.5362 17.9907 15.5358 17.9913 15.5354 17.9915C15.5177 18.0113 15.5003 18.0309 15.4827 18.0509C15.4825 18.0513 15.4824 18.0515 15.482 18.0516C15.3758 18.1733 15.2744 18.2989 15.1783 18.4286C15.1778 18.4293 15.177 18.43 15.1765 18.4312C15.1613 18.4514 15.1464 18.4719 15.1316 18.4925C15.1303 18.4941 15.129 18.496 15.1277 18.4975C15.1133 18.5175 15.0991 18.5379 15.0849 18.5577C15.0836 18.5595 15.0823 18.5614 15.0813 18.5631C15.0668 18.5838 15.0522 18.605 15.0378 18.6263C15.0372 18.6268 15.0367 18.6276 15.0361 18.6283C14.9606 18.7393 14.8889 18.8531 14.8207 18.9692C14.8195 18.9708 14.8188 18.972 14.818 18.9737C14.8055 18.995 14.7932 19.0164 14.7809 19.0379C14.7796 19.0406 14.7781 19.0428 14.7768 19.0454C14.765 19.0662 14.7532 19.0871 14.7416 19.1082C14.7401 19.1108 14.7388 19.1131 14.7375 19.1157C14.7255 19.1373 14.7138 19.1592 14.7022 19.1811C14.7014 19.1826 14.7003 19.1841 14.6996 19.1856C14.6362 19.3046 14.5768 19.4261 14.5214 19.5496C14.5209 19.5509 14.5204 19.5526 14.5197 19.5537C14.5094 19.5765 14.4994 19.5997 14.4894 19.6226C14.4884 19.6253 14.4871 19.6279 14.4861 19.6305C14.4766 19.6527 14.4671 19.675 14.4579 19.6974C14.4566 19.6998 14.4556 19.7026 14.4545 19.7052C14.445 19.7284 14.4356 19.7514 14.4263 19.7746C14.4256 19.7761 14.425 19.7777 14.4243 19.7794C14.3738 19.9059 14.3276 20.0345 14.2858 20.1649C14.2856 20.1659 14.2851 20.1668 14.2848 20.1677C14.2769 20.1924 14.2692 20.2173 14.2617 20.2421C14.261 20.2444 14.2602 20.2464 14.2597 20.2488C14.2523 20.2726 14.2453 20.2965 14.2382 20.3206C14.2377 20.3228 14.2369 20.3255 14.2361 20.3279C14.2289 20.3524 14.222 20.3767 14.2153 20.4013C14.2148 20.4028 14.2143 20.4047 14.2141 20.4062C14.1774 20.5392 14.1454 20.6742 14.1179 20.8108C14.1177 20.8109 14.1179 20.8102 14.1179 20.8108C14.1126 20.8369 14.1072 20.8642 14.1023 20.8909C14.1018 20.893 14.1015 20.895 14.101 20.8975C14.0964 20.9225 14.092 20.9474 14.0877 20.9724C14.0872 20.975 14.0867 20.9776 14.0864 20.9803C14.082 21.0055 14.0777 21.0313 14.0738 21.0565C14.0736 21.0584 14.0733 21.0599 14.0728 21.0617C14.0513 21.2004 14.0341 21.3404 14.022 21.4822C14.0198 21.5097 14.0174 21.5375 14.0156 21.565C14.0154 21.5672 14.0151 21.5696 14.0151 21.5717C14.0133 21.5975 14.0115 21.6235 14.01 21.6492C14.01 21.652 14.0097 21.6549 14.0095 21.6578C14.0082 21.6836 14.0069 21.7096 14.0056 21.7358C14.0056 21.7378 14.0056 21.7401 14.0054 21.7421C14.0044 21.77 14.0033 21.7982 14.0026 21.8262C14.0008 21.884 14 21.9419 14 22C14 22.0333 14.0003 22.0667 14.0008 22.1V22.1041C14.0015 22.1357 14.0023 22.1671 14.0033 22.1986V22.205C14.0067 22.3038 14.0126 22.402 14.0205 22.4997C14.0208 22.5017 14.0208 22.5038 14.021 22.5059C14.0292 22.6038 14.0397 22.7006 14.0525 22.797C14.0528 22.7985 14.0528 22.8002 14.0531 22.8019C14.0661 22.8985 14.0813 22.9945 14.0987 23.0896C14.099 23.0908 14.0992 23.0921 14.0995 23.0934C14.1051 23.1246 14.111 23.1556 14.1174 23.1866V23.1877C14.1302 23.2511 14.1441 23.3141 14.1587 23.3767C14.1589 23.378 14.1592 23.3793 14.1597 23.3808C14.1666 23.4099 14.1736 23.4393 14.181 23.4682C14.1815 23.4708 14.1823 23.4731 14.1828 23.4757C14.3804 24.2572 14.7317 24.9779 15.2024 25.6034C15.6027 26.1362 16.0899 26.5998 16.6428 26.9737C16.6434 26.9739 16.6439 26.9745 16.6443 26.9748C16.6705 26.9924 16.6966 27.0096 16.7232 27.0268C16.7303 27.0316 16.7374 27.0363 16.7447 27.041C16.7695 27.0571 16.7945 27.0729 16.8198 27.0888C16.8218 27.0901 16.8239 27.0914 16.8259 27.0927C16.853 27.1096 16.8803 27.1262 16.9076 27.1426C16.9145 27.1468 16.9214 27.1512 16.9283 27.1552C16.9545 27.1709 16.981 27.1866 17.0076 27.2017C17.0089 27.2026 17.0106 27.2034 17.0121 27.2043C17.0399 27.2204 17.0679 27.2363 17.0961 27.2516C17.1031 27.2555 17.11 27.2592 17.1169 27.2632C17.1444 27.2781 17.1716 27.2929 17.1995 27.3078C17.2004 27.3082 17.2015 27.3088 17.2025 27.3093C17.2313 27.3245 17.2598 27.3392 17.2888 27.354C17.2957 27.3575 17.3026 27.3609 17.3096 27.3645C17.3378 27.3785 17.3664 27.3927 17.3948 27.4065C17.3955 27.4067 17.3963 27.4073 17.397 27.4078C17.4265 27.4218 17.4561 27.4357 17.4856 27.4493C17.4927 27.4527 17.4996 27.4556 17.5065 27.459C17.5355 27.4721 17.5644 27.4852 17.5938 27.4981C17.5945 27.4983 17.5953 27.4988 17.596 27.499C17.6257 27.5121 17.656 27.525 17.6859 27.5375C17.6932 27.5405 17.7003 27.5435 17.7076 27.5465C17.7369 27.5588 17.7664 27.5706 17.796 27.5823C17.7969 27.5825 17.7978 27.5831 17.7988 27.5835C17.829 27.5954 17.8595 27.607 17.89 27.6184C17.8974 27.6214 17.9049 27.6242 17.9124 27.627C17.9421 27.638 17.9718 27.6487 18.0019 27.6593C18.0028 27.6597 18.0041 27.6601 18.0051 27.6605C18.0359 27.6713 18.0667 27.6818 18.0978 27.692C18.1054 27.6947 18.1133 27.6973 18.1211 27.6997C18.151 27.7098 18.1811 27.7195 18.2112 27.729C18.2125 27.7292 18.2138 27.7298 18.2151 27.73C18.2461 27.7397 18.2773 27.749 18.3087 27.7582C18.317 27.7608 18.3248 27.763 18.333 27.7655C18.3631 27.7741 18.393 27.7827 18.4233 27.7907C18.4251 27.7913 18.4266 27.7918 18.4283 27.792C18.4597 27.8006 18.4913 27.8086 18.5227 27.8167C18.5313 27.8189 18.5399 27.821 18.5483 27.823C18.5784 27.8307 18.6087 27.838 18.6386 27.8449C18.6406 27.8455 18.643 27.8458 18.6451 27.8464C18.6765 27.8537 18.7081 27.8608 18.7398 27.8675C18.7488 27.8696 18.7578 27.8712 18.7671 27.8731C18.7968 27.8795 18.8267 27.8854 18.857 27.8912C18.8602 27.8918 18.8632 27.8926 18.8663 27.8931C18.8974 27.8989 18.9288 27.9045 18.9601 27.9103C18.9695 27.9118 18.9788 27.9133 18.9884 27.9152C19.0183 27.9202 19.0484 27.9251 19.0786 27.9297C19.0824 27.9303 19.0859 27.931 19.0898 27.9316C19.1209 27.9361 19.1521 27.9406 19.1831 27.9449C19.1928 27.9462 19.2027 27.9475 19.2124 27.9486C19.2427 27.9527 19.2726 27.9565 19.3029 27.96C19.3072 27.9606 19.3116 27.9609 19.3159 27.9615C19.347 27.9651 19.378 27.9682 19.409 27.9712C19.4189 27.9723 19.429 27.9731 19.4389 27.974C19.4692 27.9768 19.4994 27.9794 19.5301 27.9817C19.5348 27.9822 19.5398 27.9826 19.5447 27.983C19.5753 27.9854 19.6063 27.9875 19.6374 27.9892C19.6476 27.9897 19.6577 27.9905 19.668 27.991C19.6985 27.9925 19.7291 27.994 19.7599 27.9953C19.7648 27.9957 19.77 27.9957 19.7751 27.9959C19.8061 27.9972 19.8371 27.9979 19.8683 27.9985C19.8784 27.9987 19.8887 27.9989 19.899 27.9993C19.9302 27.9996 19.9614 28 19.9928 28H20.0059C20.0402 28 20.0748 27.9996 20.1092 27.9989C20.1184 27.9987 20.1275 27.9987 20.1369 27.9985C20.172 27.9978 20.2066 27.9966 20.2413 27.9953C20.2493 27.9948 20.2574 27.9946 20.2652 27.994C20.2964 27.9927 20.3275 27.9912 20.3589 27.9895C20.3656 27.989 20.3721 27.9886 20.3788 27.9882C20.4142 27.9862 20.4493 27.9836 20.4844 27.9808C20.4926 27.98 20.5005 27.9794 20.5087 27.9787C20.5452 27.9757 20.5816 27.9723 20.6175 27.9688C20.6188 27.9684 20.6197 27.9684 20.6208 27.9682C20.6586 27.9643 20.6961 27.9602 20.7339 27.9557C20.7369 27.9552 20.7402 27.9548 20.7436 27.9544C20.8628 27.9396 20.9809 27.9213 21.0979 27.8997C21.1 27.8993 21.1022 27.8989 21.1046 27.8985C21.1059 27.8982 21.1071 27.898 21.1084 27.8976C21.1271 27.8944 21.1459 27.8907 21.1642 27.8871C21.1676 27.8864 21.1708 27.8858 21.174 27.8851C21.4128 27.8376 21.6466 27.7761 21.8742 27.7016C21.874 27.7016 21.8743 27.7014 21.8742 27.7016C21.8749 27.7012 21.8764 27.7008 21.8773 27.7004C21.9743 27.6685 22.0704 27.6341 22.1651 27.5975C22.1698 27.5956 22.1745 27.5939 22.1788 27.5921C22.1802 27.5915 22.1816 27.5911 22.1829 27.5906C22.1954 27.5857 22.2083 27.5805 22.2208 27.5756C22.2283 27.5726 22.2354 27.5695 22.2428 27.5667C22.281 27.5513 22.3189 27.5354 22.3566 27.5196C22.3626 27.5169 22.3686 27.5143 22.3746 27.5119C22.3927 27.5039 22.4107 27.496 22.429 27.488C22.4333 27.4859 22.4379 27.4842 22.4422 27.4822C22.4449 27.4811 22.4475 27.4798 22.4497 27.4788C22.482 27.4644 22.5138 27.4499 22.5456 27.4347C22.5452 27.4351 22.5458 27.4347 22.5456 27.4347C22.58 27.4188 22.6143 27.4022 22.6482 27.3854C22.6493 27.385 22.6508 27.3843 22.6517 27.3837C22.6629 27.3781 22.6745 27.3723 22.6859 27.3667C22.6939 27.3626 22.7025 27.3583 22.7109 27.3542C22.7238 27.3475 22.7369 27.3409 22.7496 27.3342C22.756 27.3308 22.7621 27.3278 22.7687 27.3245C22.7853 27.3157 22.8018 27.3071 22.8184 27.2981C22.8289 27.2923 22.8393 27.2871 22.85 27.2811C22.8504 27.2809 22.8509 27.2806 22.8515 27.2804C22.8589 27.2763 22.8666 27.2721 22.8739 27.268C22.8784 27.2658 22.8829 27.2634 22.8874 27.2609C22.8903 27.2592 22.8931 27.2576 22.8963 27.2557C22.9163 27.2447 22.9359 27.2336 22.9559 27.2224C22.9578 27.2213 22.9597 27.2204 22.9614 27.2193C22.9638 27.2181 22.9658 27.217 22.9679 27.2157C22.978 27.2099 22.9881 27.2043 22.998 27.1983C23.0023 27.1957 23.0071 27.1933 23.0114 27.1907C23.0299 27.1798 23.0481 27.1692 23.0666 27.1583C23.0707 27.1557 23.0748 27.1531 23.0789 27.1509C23.0989 27.1389 23.1185 27.1268 23.1383 27.1148C23.1402 27.1135 23.1421 27.1124 23.1439 27.1114C23.1454 27.1103 23.1473 27.1094 23.1488 27.1083C23.1693 27.0956 23.1895 27.083 23.2099 27.07C23.2129 27.0681 23.2157 27.0662 23.2185 27.0645C24.4899 26.2548 25.4357 24.98 25.8159 23.4798L25.8206 23.4621C25.8266 23.438 25.8324 23.4139 25.838 23.3896C25.8397 23.3836 25.8412 23.3774 25.8425 23.3716C25.8563 23.3128 25.869 23.2539 25.8812 23.1947C25.8825 23.1876 25.8838 23.1806 25.8853 23.1734C25.8896 23.1507 25.8939 23.1279 25.8983 23.1055L25.9028 23.0809C25.9075 23.0553 25.9118 23.0298 25.9163 23.0042C25.917 23.0001 25.9178 22.9962 25.9183 22.9921C25.9232 22.9629 25.9279 22.9334 25.9324 22.9039C25.9335 22.896 25.9348 22.8878 25.9357 22.8798C25.9391 22.8581 25.9421 22.8364 25.9449 22.8148C25.9466 22.805 25.9479 22.7949 25.949 22.785C25.9518 22.7632 25.9548 22.7413 25.9572 22.7194C25.9583 22.7114 25.9593 22.7032 25.96 22.695C25.9634 22.666 25.9667 22.637 25.9695 22.6081C25.9703 22.5997 25.971 22.5909 25.9718 22.5825C25.9738 22.5612 25.9759 22.5399 25.9778 22.5184C25.9789 22.5073 25.9796 22.4963 25.9806 22.4851C25.9821 22.4651 25.9837 22.4451 25.9849 22.4251C25.9858 22.4145 25.9865 22.4042 25.9873 22.3941C25.989 22.3651 25.9908 22.3364 25.9923 22.3074C25.9927 22.2992 25.9929 22.2911 25.9935 22.2833C25.9944 22.2612 25.9951 22.239 25.9959 22.217C25.9964 22.205 25.9968 22.1936 25.9972 22.1818C25.9978 22.1626 25.9983 22.1431 25.9985 22.1235C25.9989 22.1123 25.9991 22.1007 25.9993 22.0891C25.9996 22.0641 25.9998 22.0387 25.9998 22.0133C25.9998 22.0088 26 22.0043 26 22C26 21.977 25.9998 21.9538 25.9996 21.9309Z" fill="#F79B39"/>
</svg>
