<svg width="12" height="15" viewBox="0 0 12 15" fill="none" xmlns="http://www.w3.org/2000/svg">
<path fill-rule="evenodd" clip-rule="evenodd" d="M3.39872 0.702578C5.03736 -0.249544 7.05152 -0.232903 8.67479 0.746171C10.2821 1.74519 11.259 3.52813 11.2499 5.44608C11.2125 7.35145 10.165 9.1425 8.8556 10.5271C8.09988 11.3298 7.25446 12.0396 6.33663 12.642C6.24211 12.6967 6.13856 12.7333 6.03111 12.75C5.9277 12.7456 5.82699 12.715 5.73806 12.6611C4.33682 11.7559 3.1075 10.6005 2.10925 9.25047C1.27394 8.12352 0.799377 6.76201 0.750001 5.35081C0.748916 3.42918 1.76007 1.6547 3.39872 0.702578ZM4.34562 6.14609C4.62126 6.82563 5.27189 7.26888 5.9937 7.26889C6.46658 7.27228 6.92114 7.08287 7.25611 6.74286C7.59107 6.40284 7.77861 5.94048 7.77694 5.45879C7.77946 4.72353 7.34659 4.05924 6.68045 3.77608C6.0143 3.49293 5.24628 3.64676 4.73499 4.16576C4.22369 4.68476 4.06998 5.46654 4.34562 6.14609Z" fill="#292B49"/>
<ellipse opacity="0.4" cx="6" cy="14.25" rx="3.75" ry="0.75" fill="#292B49"/>
</svg>
