<svg width="18" height="18" viewBox="0 0 18 18" fill="none" xmlns="http://www.w3.org/2000/svg">
<path d="M17.3332 8.37484H15.6332C15.3332 5.19984 12.7998 2.65817 9.62484 2.3665V0.666504C9.62484 0.324837 9.3415 0.0415039 8.99984 0.0415039C8.65817 0.0415039 8.37484 0.324837 8.37484 0.666504V2.3665C5.19984 2.6665 2.65817 5.19984 2.3665 8.37484H0.666504C0.324837 8.37484 0.0415039 8.65817 0.0415039 8.99984C0.0415039 9.3415 0.324837 9.62484 0.666504 9.62484H2.3665C2.6665 12.7998 5.19984 15.3415 8.37484 15.6332V17.3332C8.37484 17.6748 8.65817 17.9582 8.99984 17.9582C9.3415 17.9582 9.62484 17.6748 9.62484 17.3332V15.6332C12.7998 15.3332 15.3415 12.7998 15.6332 9.62484H17.3332C17.6748 9.62484 17.9582 9.3415 17.9582 8.99984C17.9582 8.65817 17.6748 8.37484 17.3332 8.37484ZM8.99984 11.5998C7.5665 11.5998 6.39984 10.4332 6.39984 8.99984C6.39984 7.5665 7.5665 6.39984 8.99984 6.39984C10.4332 6.39984 11.5998 7.5665 11.5998 8.99984C11.5998 10.4332 10.4332 11.5998 8.99984 11.5998Z" fill="#F79B39"/>
</svg>
