<svg width="12" height="12" viewBox="0 0 12 12" fill="none" xmlns="http://www.w3.org/2000/svg">
<path fill-rule="evenodd" clip-rule="evenodd" d="M7.08685 11.1458C6.96191 11.2707 6.81197 11.3332 6.63705 11.3332H5.36262C5.1877 11.3332 5.03777 11.2707 4.91282 11.1458C4.78788 11.0208 4.72541 10.8709 4.72541 10.696V7.27427H1.30372C1.1288 7.27427 0.978864 7.2118 0.85392 7.08685C0.728976 6.96191 0.666504 6.81197 0.666504 6.63705V5.36262C0.666504 5.1877 0.728976 5.03777 0.85392 4.91282C0.978864 4.78788 1.1288 4.72541 1.30372 4.72541H4.72541V1.30372C4.72541 1.1288 4.78788 0.978864 4.91282 0.85392C5.03777 0.728976 5.1877 0.666504 5.36262 0.666504H6.63705C6.81197 0.666504 6.96191 0.728976 7.08685 0.85392C7.2118 0.978864 7.27427 1.1288 7.27427 1.30372V4.72541H10.696C10.8709 4.72541 11.0208 4.78788 11.1458 4.91282C11.2707 5.03777 11.3332 5.1877 11.3332 5.36262V6.63705C11.3332 6.81197 11.2707 6.96191 11.1458 7.08685C11.0208 7.2118 10.8709 7.27427 10.696 7.27427H7.27427V10.696C7.27427 10.8709 7.2118 11.0208 7.08685 11.1458Z" fill="white"/>
</svg>
