<svg width="12" height="17" viewBox="0 0 12 17" fill="none" xmlns="http://www.w3.org/2000/svg">
<path d="M6.11992 8.715C6.09742 8.715 6.08242 8.715 6.05992 8.715C6.02242 8.7075 5.96992 8.7075 5.92492 8.715C3.74992 8.6475 2.10742 6.9375 2.10742 4.83C2.10742 2.685 3.85492 0.9375 5.99992 0.9375C8.14492 0.9375 9.89242 2.685 9.89242 4.83C9.88492 6.9375 8.23492 8.6475 6.14242 8.715C6.13492 8.715 6.12742 8.715 6.11992 8.715ZM5.99992 2.0625C4.47742 2.0625 3.23242 3.3075 3.23242 4.83C3.23242 6.33 4.40242 7.5375 5.89492 7.59C5.93242 7.5825 6.03742 7.5825 6.13492 7.59C7.60492 7.5225 8.75992 6.315 8.76742 4.83C8.76742 3.3075 7.52242 2.0625 5.99992 2.0625Z" fill="#F79C39"/>
<path d="M6.12721 16.9125C4.65721 16.9125 3.17971 16.5375 2.06221 15.7875C1.01971 15.0975 0.449707 14.1525 0.449707 13.125C0.449707 12.0975 1.01971 11.145 2.06221 10.4475C4.31221 8.955 7.95721 8.955 10.1922 10.4475C11.2272 11.1375 11.8047 12.0825 11.8047 13.11C11.8047 14.1375 11.2347 15.09 10.1922 15.7875C9.06721 16.5375 7.59721 16.9125 6.12721 16.9125ZM2.68471 11.3925C1.96471 11.8725 1.57471 12.4875 1.57471 13.1325C1.57471 13.77 1.97221 14.385 2.68471 14.8575C4.55221 16.11 7.70221 16.11 9.56971 14.8575C10.2897 14.3775 10.6797 13.7625 10.6797 13.1175C10.6797 12.48 10.2822 11.865 9.56971 11.3925C7.70221 10.1475 4.55221 10.1475 2.68471 11.3925Z" fill="#F79C39"/>
</svg>
