<svg width="24" height="24" viewBox="0 0 24 24" fill="none" xmlns="http://www.w3.org/2000/svg">
<path d="M12.5375 18.3501L12.5083 19.4339H15.4417C15.4557 19.4336 15.4693 19.4292 15.4807 19.4213C15.492 19.4134 15.5006 19.4024 15.5052 19.3897C15.5098 19.377 15.5103 19.3633 15.5065 19.3504C15.5027 19.3374 15.4949 19.3259 15.4841 19.3173L14.1195 18.2905L12.5375 18.3501Z" fill="#888AA0"/>
<path d="M12.5082 19.5605C12.4904 19.5606 12.4728 19.5573 12.4564 19.5507C12.44 19.5442 12.4251 19.5346 12.4127 19.5225C12.4003 19.5102 12.3907 19.4957 12.3843 19.4798C12.3779 19.4639 12.3749 19.4469 12.3756 19.4299L12.4047 18.3461C12.4047 18.3125 12.4187 18.2802 12.4436 18.2565C12.4685 18.2327 12.5022 18.2193 12.5374 18.2193L14.1154 18.1598C14.1466 18.1587 14.1771 18.1681 14.2016 18.1864L15.5702 19.2119C15.6031 19.2364 15.6271 19.2702 15.6389 19.3084C15.6508 19.3466 15.6498 19.3874 15.6363 19.4251C15.6227 19.4628 15.5971 19.4955 15.5632 19.5186C15.5292 19.5417 15.4886 19.5542 15.4469 19.5542H12.5135L12.5082 19.5605ZM12.6673 18.4716L12.6448 19.307H15.2546L14.0717 18.4196L12.6673 18.4716Z" fill="#093F68"/>
<path d="M14.1908 10.146C14.1908 10.146 15.3671 10.0421 15.5766 10.1891C15.7861 10.3362 16.0461 10.648 16.0328 10.8229C16.0195 10.9979 15.9453 11.2032 15.7676 11.2032C15.5753 11.187 15.3823 11.1815 15.1894 11.1867C14.9732 11.2083 14.1152 11.2184 14.1152 11.2184L14.1908 10.146Z" fill="#888AA0"/>
<path d="M14.1192 11.3399C14.1011 11.34 14.0832 11.3364 14.0665 11.3296C14.0499 11.3228 14.0349 11.3127 14.0225 11.3002C14.0101 11.2876 14.0005 11.2727 13.9943 11.2564C13.9881 11.2401 13.9855 11.2228 13.9866 11.2056L14.0595 10.1382C14.0616 10.108 14.0749 10.0796 14.097 10.0579C14.1192 10.0363 14.1487 10.023 14.1802 10.0203C14.4679 9.99497 15.4254 9.92398 15.6562 10.0862C15.8445 10.213 16.1866 10.5717 16.1667 10.8265C16.1442 11.1257 15.989 11.3209 15.7689 11.3247C15.6927 11.3247 15.6166 11.3209 15.5408 11.3133C15.4288 11.3031 15.316 11.3031 15.2039 11.3133C14.9838 11.3361 14.1523 11.3463 14.1165 11.3463L14.1192 11.3399ZM14.3168 10.2637L14.2611 11.0851C14.513 11.0851 15.0236 11.0712 15.1788 11.0547C15.308 11.0431 15.4381 11.0431 15.5673 11.0547C15.6389 11.0611 15.6999 11.0661 15.7689 11.0661C15.8378 11.0661 15.8922 10.9292 15.9015 10.8025C15.9094 10.7086 15.7119 10.4348 15.5036 10.2853C15.4029 10.2231 14.8326 10.2231 14.3154 10.2637H14.3168Z" fill="#093F68"/>
<path d="M10.6447 7.44594C10.2787 6.821 10.1275 6.55859 9.51619 6.55859H7.84262C7.50428 6.55859 7.17979 6.68707 6.94055 6.91577C6.7013 7.14446 6.56689 7.45464 6.56689 7.77806V11.7445H10.7906V10.4249C11.5757 11.3237 12.7798 11.4986 14.0674 11.6735L14.3075 10.0636C12.6525 9.84305 11.2508 8.49808 10.6447 7.44594Z" fill="#888AA0"/>
<path d="M10.7909 11.8713H6.56718C6.53201 11.8713 6.49828 11.8579 6.47341 11.8341C6.44854 11.8104 6.43457 11.7781 6.43457 11.7445V7.77299C6.43492 7.41605 6.58341 7.07383 6.84745 6.82143C7.11149 6.56904 7.4695 6.42709 7.84291 6.42676H9.51647C10.2008 6.42676 10.3838 6.74113 10.7511 7.36608L10.7617 7.38383C11.3837 8.46386 12.7655 9.72389 14.3276 9.93685C14.3622 9.94187 14.3933 9.95973 14.4142 9.98656C14.435 10.0134 14.444 10.047 14.439 10.0801L14.199 11.69C14.1966 11.7065 14.1907 11.7224 14.1819 11.7368C14.173 11.7511 14.1612 11.7637 14.1473 11.7737C14.1192 11.7938 14.0839 11.8025 14.0492 11.7977C12.9166 11.6431 11.7483 11.4834 10.9235 10.7418V11.7445C10.9235 11.7612 10.9201 11.7776 10.9134 11.793C10.9067 11.8084 10.897 11.8224 10.8846 11.8341C10.8723 11.8459 10.8577 11.8553 10.8416 11.8616C10.8255 11.868 10.8083 11.8713 10.7909 11.8713ZM6.69979 11.6177H10.6583V10.4198C10.6583 10.3938 10.6667 10.3684 10.6823 10.347C10.698 10.3257 10.7202 10.3095 10.7458 10.3007C10.7713 10.2916 10.7991 10.2903 10.8255 10.2969C10.8518 10.3034 10.8754 10.3176 10.893 10.3374C11.6277 11.1804 12.7496 11.3604 13.955 11.5252L14.1592 10.1638C12.5612 9.88868 11.1648 8.60583 10.5296 7.50172L10.5203 7.48524C10.1649 6.87931 10.0443 6.67522 9.51647 6.67522H7.84291C7.53984 6.67555 7.24929 6.79078 7.03499 6.99563C6.82069 7.20048 6.70015 7.47822 6.69979 7.76792V11.6177Z" fill="#093F68"/>
<path d="M10.3533 10.3565C10.3181 10.3565 10.2844 10.3431 10.2595 10.3193C10.2347 10.2956 10.2207 10.2633 10.2207 10.2297V8.27374C10.2207 8.24012 10.2347 8.20787 10.2595 8.1841C10.2844 8.16033 10.3181 8.14697 10.3533 8.14697C10.3885 8.14697 10.4222 8.16033 10.4471 8.1841C10.472 8.20787 10.4859 8.24012 10.4859 8.27374V10.2297C10.4859 10.2633 10.472 10.2956 10.4471 10.3193C10.4222 10.3431 10.3885 10.3565 10.3533 10.3565Z" fill="#093F68"/>
<path d="M8.39062 6.34668H9.30698V6.85374C9.30698 6.95258 9.2659 7.04737 9.19278 7.11726C9.11966 7.18716 9.0205 7.22642 8.9171 7.22642H8.78448C8.68108 7.22642 8.58191 7.18716 8.5088 7.11726C8.43568 7.04737 8.3946 6.95258 8.3946 6.85374V6.34668H8.39062Z" fill="#888AA0"/>
<path d="M8.91829 7.35104H8.78568C8.64774 7.34908 8.51603 7.29583 8.41849 7.20259C8.32094 7.10934 8.26524 6.98344 8.26318 6.85159V6.34454C8.26318 6.31092 8.27716 6.27867 8.30202 6.2549C8.32689 6.23113 8.36062 6.21777 8.3958 6.21777H9.31215C9.34732 6.21777 9.38105 6.23113 9.40592 6.2549C9.43079 6.27867 9.44476 6.31092 9.44476 6.34454V6.85159C9.44476 6.9175 9.43111 6.98276 9.40461 7.04361C9.3781 7.10445 9.33926 7.15968 9.29032 7.20611C9.24138 7.25254 9.18331 7.28925 9.11946 7.31412C9.05561 7.339 8.98724 7.35155 8.91829 7.35104ZM8.52045 6.47384V6.85413C8.52045 6.91935 8.54756 6.9819 8.5958 7.02802C8.64405 7.07414 8.70949 7.10005 8.77772 7.10005H8.91033C8.94405 7.10005 8.97744 7.09368 9.00858 7.08131C9.03972 7.06893 9.06799 7.0508 9.09178 7.02795C9.11556 7.00509 9.13439 6.97797 9.14717 6.94814C9.15996 6.91831 9.16645 6.88636 9.16627 6.85413V6.47384H8.52045Z" fill="#093F68"/>
<path d="M20.6745 21.2783H6.63093V20.325H0.132935C0.111717 16.9112 2.84485 15.0427 2.84485 15.0427H11.5628C11.5628 15.0427 10.3348 15.7907 9.97143 17.5311C9.72211 18.7126 11.828 19.8129 14.1606 19.3058C16.4933 18.7988 17.2107 17.7314 16.9137 15.6728C16.6166 13.6141 14.7428 11.5542 14.7428 11.5542H16.3753C16.3753 11.5542 17.3725 11.9738 19.0487 14.7956C19.3337 15.2824 19.5755 15.7912 19.7715 16.3167C20.4716 18.1497 20.6348 20.0056 20.6732 20.8359C20.6732 20.884 20.6732 20.9284 20.6732 20.9702C20.6759 21.1654 20.6745 21.2783 20.6745 21.2783Z" fill="#888AA0"/>
<path d="M20.6743 21.4051H6.63073C6.59556 21.4051 6.56183 21.3918 6.53696 21.368C6.51209 21.3442 6.49811 21.312 6.49811 21.2784V20.4519H0.132734C0.0975628 20.4519 0.0638323 20.4385 0.0389627 20.4147C0.0140932 20.391 0.000121668 20.3587 0.000121668 20.3251C-0.0210963 16.886 2.73989 14.9579 2.76774 14.9389C2.79028 14.9239 2.81716 14.9159 2.84465 14.9161H11.5626C11.5912 14.9162 11.619 14.9251 11.6418 14.9415C11.6647 14.9579 11.6814 14.9809 11.6895 15.0071C11.6975 15.0334 11.6965 15.0614 11.6865 15.087C11.6766 15.1126 11.6582 15.1345 11.6342 15.1493C11.6222 15.1569 10.4473 15.8947 10.0972 17.5578C10.011 17.9673 10.255 18.2969 10.4752 18.5022C11.0905 19.0777 12.4962 19.5354 14.1273 19.183C16.33 18.7063 17.0739 17.7277 16.7795 15.6919C16.4891 13.6941 14.6577 11.6582 14.6405 11.6354C14.6241 11.6171 14.6135 11.5947 14.61 11.5708C14.6064 11.5469 14.6101 11.5225 14.6205 11.5006C14.631 11.4786 14.6478 11.4599 14.6689 11.4468C14.6901 11.4336 14.7147 11.4265 14.74 11.4263H16.3724C16.3906 11.4263 16.4086 11.4298 16.4255 11.4364C16.4679 11.4542 17.4864 11.9054 19.1612 14.7323C19.4498 15.2237 19.6951 15.7371 19.8946 16.2674C20.429 17.7353 20.735 19.2703 20.803 20.8233C20.803 20.8727 20.803 20.9171 20.803 20.9577C20.8096 21.1655 20.803 21.2796 20.803 21.2796C20.8027 21.3124 20.7891 21.3437 20.7651 21.3671C20.7411 21.3905 20.7086 21.4042 20.6743 21.4051ZM6.76334 21.1516H20.5404C20.5404 21.1034 20.5404 21.0413 20.5404 20.9678C20.5404 20.9272 20.5404 20.8816 20.5404 20.8322C20.4739 19.3056 20.1732 17.7966 19.6479 16.3536C19.4533 15.837 19.2142 15.3367 18.9332 14.8578C17.4452 12.3529 16.4957 11.7622 16.3419 11.6798H15.0237C15.5078 12.2591 16.7954 13.9413 17.0448 15.6538C17.3604 17.8279 16.5329 18.9218 14.1896 19.4276C12.9789 19.69 11.243 19.5683 10.2935 18.681C9.91685 18.3286 9.75639 17.9115 9.84127 17.5059C10.0136 16.6099 10.4816 15.7903 11.1767 15.1671H2.88311C2.58075 15.3902 0.303803 17.1687 0.260041 20.1958H6.62542C6.66059 20.1958 6.69432 20.2092 6.71919 20.2329C6.74406 20.2567 6.75804 20.2889 6.75804 20.3226L6.76334 21.1516Z" fill="#093F68"/>
<path d="M20.6172 20.9883C20.6172 21.1746 20.6172 21.2785 20.6172 21.2785H15.9374C15.9307 21.1835 15.9268 21.0859 15.9268 20.9883C15.9321 19.9512 16.3233 18.9498 17.0303 18.1632C17.7373 17.3766 18.7141 16.8561 19.7858 16.6948C20.0125 16.6606 20.2418 16.6436 20.4714 16.6441C21.1133 16.6442 21.748 16.7743 22.3336 17.0258C22.9192 17.2773 23.4424 17.6444 23.8689 18.1031L20.6172 20.864L20.4714 20.9908L20.6172 20.9883Z" fill="#888AA0"/>
<path d="M20.628 21.4051H15.9375C15.9039 21.4052 15.8715 21.3931 15.8469 21.3712C15.8223 21.3493 15.8073 21.3193 15.8049 21.2872C15.7969 21.1845 15.793 21.0844 15.793 20.9881C15.8002 19.9211 16.2034 18.8913 16.9307 18.082C17.6581 17.2728 18.6624 16.7366 19.7647 16.5691C19.9981 16.5343 20.234 16.5169 20.4702 16.5171C21.1306 16.5175 21.7835 16.6515 22.3859 16.9102C22.9884 17.1688 23.5268 17.5464 23.9659 18.018C23.9776 18.0304 23.9867 18.045 23.9925 18.0608C23.9984 18.0766 24.0009 18.0934 23.9999 18.1101C23.9989 18.1268 23.9944 18.1432 23.9868 18.1583C23.9791 18.1734 23.9684 18.1869 23.9552 18.198L20.7394 20.9297C20.7478 20.9469 20.7528 20.9654 20.754 20.9843C20.754 21.1744 20.754 21.2796 20.754 21.2796C20.7537 21.3119 20.7405 21.3429 20.7171 21.3663C20.6936 21.3896 20.6618 21.4035 20.628 21.4051ZM16.0635 21.1516H20.4941C20.4941 21.1402 20.4941 21.1275 20.4941 21.1148H20.4729C20.4459 21.1148 20.4197 21.1069 20.3975 21.0923C20.3754 21.0776 20.3585 21.0569 20.349 21.0328C20.3395 21.0087 20.3379 20.9824 20.3443 20.9575C20.3508 20.9325 20.3651 20.91 20.3853 20.893L20.5312 20.7662L23.6807 18.0902C23.2682 17.6729 22.771 17.3404 22.2194 17.113C21.6678 16.8857 21.0735 16.7683 20.4729 16.7681C20.2508 16.7678 20.0291 16.7844 19.8098 16.8175C18.7699 16.9754 17.8224 17.4811 17.1361 18.2444C16.4498 19.0077 16.0692 19.9791 16.0622 20.9855C16.0604 21.0405 16.0608 21.0958 16.0635 21.1516Z" fill="#093F68"/>
<path d="M20.5058 23.8732C22.1867 23.8732 23.5493 22.5706 23.5493 20.9639C23.5493 19.3572 22.1867 18.0547 20.5058 18.0547C18.825 18.0547 17.4624 19.3572 17.4624 20.9639C17.4624 22.5706 18.825 23.8732 20.5058 23.8732Z" fill="#093F68"/>
<path d="M20.5061 24.0002C19.8783 24.0002 19.2645 23.8223 18.7423 23.489C18.2201 23.1557 17.8131 22.6819 17.5725 22.1275C17.3319 21.5731 17.2686 20.963 17.3906 20.3743C17.5126 19.7855 17.8145 19.2445 18.258 18.8197C18.7015 18.3948 19.2668 18.1052 19.8825 17.9873C20.4981 17.8695 21.1365 17.9287 21.717 18.1575C22.2974 18.3863 22.7939 18.7745 23.1437 19.2729C23.4935 19.7713 23.6809 20.3577 23.6822 20.9579C23.6822 21.7637 23.3478 22.5365 22.7523 23.1069C22.1569 23.6773 21.3491 23.9985 20.5061 24.0002ZM20.5061 18.1818C19.9286 18.1805 19.3636 18.3432 18.8828 18.6491C18.402 18.9551 18.027 19.3906 17.8054 19.9004C17.5838 20.4102 17.5254 20.9715 17.6378 21.5131C17.7501 22.0546 18.0281 22.5521 18.4366 22.9425C18.845 23.3329 19.3654 23.5987 19.932 23.7061C20.4985 23.8135 21.0857 23.7577 21.619 23.5459C22.1524 23.334 22.608 22.9756 22.928 22.516C23.2481 22.0564 23.4183 21.5163 23.417 20.9642C23.4152 20.2268 23.108 19.52 22.5625 18.9986C22.017 18.4771 21.2776 18.1834 20.5061 18.1818Z" fill="#093F68"/>
<path d="M20.5061 22.1846C21.2114 22.1846 21.7831 21.6381 21.7831 20.9639C21.7831 20.2897 21.2114 19.7432 20.5061 19.7432C19.8008 19.7432 19.229 20.2897 19.229 20.9639C19.229 21.6381 19.8008 22.1846 20.5061 22.1846Z" fill="white"/>
<path d="M20.5057 22.3102C20.2268 22.3105 19.9541 22.2316 19.7221 22.0837C19.49 21.9357 19.3091 21.7253 19.2023 21.479C19.0954 21.2327 19.0674 20.9617 19.1217 20.7002C19.1761 20.4387 19.3104 20.1984 19.5076 20.0099C19.7048 19.8214 19.9561 19.693 20.2297 19.6411C20.5033 19.5891 20.7868 19.6159 21.0445 19.718C21.3021 19.8202 21.5222 19.9931 21.677 20.2149C21.8318 20.4367 21.9143 20.6974 21.9141 20.964C21.9134 21.3208 21.7648 21.6629 21.5008 21.9152C21.2368 22.1675 20.879 22.3096 20.5057 22.3102ZM20.5057 19.87C20.2793 19.8698 20.0579 19.9337 19.8695 20.0538C19.6812 20.1738 19.5343 20.3446 19.4474 20.5445C19.3606 20.7444 19.3378 20.9644 19.3818 21.1766C19.4258 21.3889 19.5347 21.584 19.6947 21.7371C19.8547 21.8902 20.0586 21.9945 20.2806 22.0369C20.5027 22.0792 20.7329 22.0576 20.942 21.9748C21.1512 21.8921 21.3301 21.7518 21.4559 21.5719C21.5817 21.392 21.6488 21.1804 21.6488 20.964C21.6485 20.6742 21.528 20.3963 21.3137 20.1913C21.0995 19.9862 20.8089 19.8707 20.5057 19.87Z" fill="#093F68"/>
<path d="M4.38573 23.8732C6.06658 23.8732 7.42918 22.5706 7.42918 20.9639C7.42918 19.3572 6.06658 18.0547 4.38573 18.0547C2.70488 18.0547 1.34229 19.3572 1.34229 20.9639C1.34229 22.5706 2.70488 23.8732 4.38573 23.8732Z" fill="#093F68"/>
<path d="M4.38573 24.0002C3.75813 23.999 3.14499 23.82 2.62371 23.4859C2.10242 23.1518 1.69637 22.6776 1.4568 22.1231C1.21724 21.5686 1.1549 20.9587 1.27766 20.3704C1.40042 19.782 1.70278 19.2417 2.14656 18.8174C2.59034 18.3932 3.15565 18.1042 3.77112 17.9869C4.3866 17.8695 5.02465 17.9291 5.60473 18.1581C6.1848 18.3871 6.6809 18.7753 7.0304 19.2736C7.37989 19.7719 7.56711 20.358 7.56842 20.9579C7.56842 21.7648 7.2331 22.5386 6.63623 23.1091C6.03936 23.6797 5.22984 24.0002 4.38573 24.0002ZM4.38573 18.1817C3.80843 18.1817 3.2441 18.3455 2.76419 18.6522C2.28427 18.9589 1.91034 19.3948 1.68972 19.9048C1.4691 20.4148 1.41171 20.9758 1.52482 21.517C1.63793 22.0581 1.91645 22.555 2.32513 22.9448C2.73381 23.3345 3.25427 23.5997 3.82064 23.7065C4.38701 23.8134 4.97382 23.7573 5.5068 23.5453C6.03978 23.3332 6.49497 22.9748 6.81474 22.5153C7.13452 22.0559 7.30451 21.5161 7.3032 20.9642C7.30144 20.2257 6.99329 19.518 6.44635 18.9963C5.89941 18.4747 5.15835 18.1817 4.38573 18.1817Z" fill="#093F68"/>
<path d="M4.38545 22.1846C5.09075 22.1846 5.66251 21.6381 5.66251 20.9639C5.66251 20.2897 5.09075 19.7432 4.38545 19.7432C3.68016 19.7432 3.1084 20.2897 3.1084 20.9639C3.1084 21.6381 3.68016 22.1846 4.38545 22.1846Z" fill="white"/>
<path d="M4.38574 22.3102C4.10688 22.3102 3.83428 22.2312 3.60243 22.0831C3.37059 21.9349 3.18991 21.7244 3.08325 21.4781C2.9766 21.2318 2.94876 20.9608 3.00326 20.6994C3.05776 20.438 3.19215 20.1979 3.38942 20.0095C3.5867 19.8211 3.83801 19.6928 4.11154 19.641C4.38508 19.5891 4.66856 19.616 4.92612 19.7182C5.18368 19.8204 5.40374 19.9933 5.55848 20.215C5.71322 20.4368 5.79567 20.6974 5.79541 20.964C5.7947 21.3211 5.64592 21.6633 5.38167 21.9156C5.11742 22.168 4.75927 22.3099 4.38574 22.3102ZM4.38574 19.87C4.15939 19.87 3.93813 19.9342 3.74992 20.0544C3.56172 20.1746 3.41503 20.3455 3.32841 20.5454C3.24179 20.7453 3.21913 20.9652 3.26329 21.1774C3.30745 21.3896 3.41644 21.5846 3.5765 21.7376C3.73655 21.8906 3.94047 21.9947 4.16247 22.037C4.38447 22.0792 4.61458 22.0575 4.8237 21.9747C5.03282 21.8919 5.21156 21.7517 5.33731 21.5718C5.46306 21.3919 5.53018 21.1804 5.53018 20.964C5.52983 20.674 5.40914 20.3959 5.1946 20.1908C4.98005 19.9857 4.68916 19.8704 4.38574 19.87Z" fill="#093F68"/>
<path d="M4.60597 13.3263H10.4409C10.7381 13.3263 11.0231 13.4391 11.2333 13.64C11.4434 13.8409 11.5615 14.1133 11.5615 14.3974V15.0401H2.80908C2.80908 14.5849 2.99826 14.1483 3.33499 13.8264C3.67173 13.5046 4.12843 13.3237 4.60465 13.3237L4.60597 13.3263Z" fill="#888AA0"/>
<path d="M11.5574 15.1672H2.80498C2.7698 15.1672 2.73608 15.1538 2.71121 15.13C2.68634 15.1063 2.67236 15.074 2.67236 15.0404C2.67271 14.5517 2.87597 14.0831 3.2375 13.7375C3.59903 13.3919 4.08927 13.1976 4.60054 13.1973H10.4355C10.7677 13.1976 11.0863 13.3239 11.3212 13.5485C11.5562 13.7731 11.6883 14.0776 11.6887 14.3952V15.0404C11.6887 15.0738 11.6749 15.1059 11.6503 15.1296C11.6257 15.1533 11.5923 15.1668 11.5574 15.1672ZM2.9482 14.9136H11.4248V14.3952C11.4244 14.1448 11.3202 13.9048 11.135 13.7278C10.9498 13.5507 10.6987 13.4511 10.4368 13.4508H4.60187C4.18456 13.452 3.78297 13.6031 3.47669 13.874C3.1704 14.145 2.98178 14.516 2.9482 14.9136Z" fill="#093F68"/>
<path d="M0.805176 20.3251H7.56839C7.56839 20.3251 9.54166 18.217 8.19697 16.9443C7.18382 15.986 5.17342 16.0722 3.49853 16.9304C1.82364 17.7885 1.16455 19.2856 0.805176 20.3251Z" fill="#888AA0"/>
<path d="M7.56823 20.4518H0.805014C0.783976 20.4517 0.763262 20.4468 0.744585 20.4376C0.725907 20.4283 0.709802 20.4149 0.697599 20.3986C0.685276 20.3823 0.677167 20.3635 0.673939 20.3436C0.670712 20.3238 0.672457 20.3035 0.679033 20.2845C1.04902 19.2133 1.73993 17.6871 3.43471 16.8187C5.24619 15.8908 7.28046 15.906 8.28964 16.8542C9.70726 18.1967 7.75124 20.32 7.66636 20.4036C7.65458 20.4179 7.63972 20.4296 7.62279 20.4379C7.60585 20.4462 7.58725 20.451 7.56823 20.4518ZM0.989345 20.1983H7.50723C7.77245 19.9004 9.2418 18.113 8.10266 17.0292C7.18233 16.157 5.27139 16.1608 3.56069 17.0368C2.04361 17.8189 1.38851 19.1119 0.990672 20.1983H0.989345Z" fill="#093F68"/>
<path d="M16.3656 10.436H14.749V11.5516H16.3656V10.436Z" fill="#888AA0"/>
<path d="M16.3659 11.6799H14.7493C14.7141 11.6799 14.6804 11.6665 14.6555 11.6428C14.6307 11.619 14.6167 11.5867 14.6167 11.5531V10.4363C14.6167 10.4027 14.6307 10.3705 14.6555 10.3467C14.6804 10.3229 14.7141 10.3096 14.7493 10.3096H16.3659C16.401 10.3096 16.4348 10.3229 16.4596 10.3467C16.4845 10.3705 16.4985 10.4027 16.4985 10.4363V11.5531C16.4985 11.5867 16.4845 11.619 16.4596 11.6428C16.4348 11.6665 16.401 11.6799 16.3659 11.6799ZM14.8819 11.4264H16.2332V10.5631H14.8819V11.4264Z" fill="#093F68"/>
<path d="M17.5632 10.042L16.3657 10.4362V11.553L17.5632 11.9473V10.042Z" fill="#888AA0"/>
<path d="M17.5673 12.0738C17.5524 12.0736 17.5376 12.0711 17.5236 12.0662L16.3301 11.6719C16.3042 11.6633 16.2817 11.6472 16.2658 11.6259C16.2499 11.6045 16.2413 11.579 16.2412 11.5528V10.436C16.2413 10.4098 16.2499 10.3843 16.2658 10.3629C16.2817 10.3416 16.3042 10.3255 16.3301 10.3168L17.5236 9.9226C17.5436 9.91592 17.565 9.91393 17.586 9.9168C17.607 9.91967 17.627 9.92731 17.6442 9.93908C17.6614 9.95074 17.6754 9.96614 17.6851 9.98399C17.6947 10.0018 17.6998 10.0216 17.6999 10.0418V11.9432C17.6998 11.9633 17.6947 11.9831 17.6851 12.001C17.6754 12.0188 17.6614 12.0342 17.6442 12.0459C17.6223 12.0628 17.5954 12.0725 17.5673 12.0738ZM16.5064 11.4615L17.4347 11.7696V10.223L16.5064 10.5311V11.4615Z" fill="#093F68"/>
<path d="M14.3237 12.1943C14.2969 12.1943 14.2708 12.1865 14.2488 12.172C14.2268 12.1575 14.2099 12.137 14.2003 12.1131C14.1907 12.0893 14.1888 12.0632 14.195 12.0383C14.2011 12.0134 14.215 11.9909 14.2348 11.9737L15.4681 10.9013C15.481 10.8901 15.4961 10.8814 15.5125 10.8757C15.5289 10.8701 15.5463 10.8675 15.5637 10.8683C15.5811 10.8691 15.5982 10.8731 15.614 10.8802C15.6298 10.8873 15.644 10.8972 15.6558 10.9096C15.6675 10.9219 15.6766 10.9363 15.6825 10.952C15.6885 10.9677 15.6911 10.9843 15.6903 11.001C15.6895 11.0176 15.6853 11.034 15.6779 11.0491C15.6705 11.0641 15.66 11.0777 15.6471 11.0889L14.4125 12.1614C14.3882 12.1825 14.3565 12.1942 14.3237 12.1943Z" fill="#093F68"/>
<path d="M15.5584 10.5629C15.526 10.5631 15.4946 10.5521 15.4702 10.5317C15.4458 10.5114 15.43 10.4833 15.4258 10.4526L15.2613 9.26101L14.4577 8.75395C14.4306 8.73447 14.4123 8.70582 14.4067 8.67387C14.401 8.64193 14.4083 8.60912 14.4272 8.58218C14.446 8.55525 14.4749 8.53623 14.508 8.52904C14.541 8.52185 14.5757 8.52703 14.6049 8.54352L15.4589 9.08227C15.4747 9.09223 15.4881 9.1053 15.4981 9.1206C15.5082 9.13591 15.5147 9.15309 15.5173 9.171L15.6897 10.4196C15.6921 10.4362 15.691 10.4531 15.6866 10.4693C15.6822 10.4855 15.6744 10.5006 15.6638 10.514C15.6532 10.5273 15.64 10.5385 15.6248 10.5469C15.6097 10.5552 15.593 10.5607 15.5756 10.5629H15.5584Z" fill="#093F68"/>
<path d="M14.5333 7.98593C14.5333 7.87532 14.4395 7.78564 14.3238 7.78564C14.2081 7.78564 14.1143 7.87532 14.1143 7.98593V9.30174C14.1143 9.41236 14.2081 9.50203 14.3238 9.50203C14.4395 9.50203 14.5333 9.41236 14.5333 9.30174V7.98593Z" fill="#888AA0"/>
<path d="M14.3236 9.6286C14.2787 9.6286 14.2342 9.62014 14.1927 9.60371C14.1511 9.58727 14.1134 9.56318 14.0817 9.53281C14.0499 9.50244 14.0247 9.46639 14.0075 9.42671C13.9903 9.38703 13.9814 9.3445 13.9814 9.30155V7.98574C13.9814 7.899 14.0175 7.81582 14.0817 7.75448C14.1458 7.69315 14.2328 7.65869 14.3236 7.65869C14.4143 7.65869 14.5013 7.69315 14.5655 7.75448C14.6297 7.81582 14.6657 7.899 14.6657 7.98574V9.30155C14.6657 9.3445 14.6569 9.38703 14.6397 9.42671C14.6225 9.46639 14.5973 9.50244 14.5655 9.53281C14.5337 9.56318 14.496 9.58727 14.4545 9.60371C14.413 9.62014 14.3685 9.6286 14.3236 9.6286ZM14.3236 7.91222C14.3032 7.91222 14.2836 7.91997 14.2692 7.93375C14.2548 7.94754 14.2467 7.96624 14.2467 7.98574V9.30155C14.2467 9.31121 14.2487 9.32077 14.2525 9.32969C14.2564 9.33861 14.2621 9.34672 14.2692 9.35354C14.2763 9.36037 14.2848 9.36579 14.2941 9.36948C14.3035 9.37318 14.3135 9.37508 14.3236 9.37508C14.3337 9.37508 14.3437 9.37318 14.353 9.36948C14.3624 9.36579 14.3708 9.36037 14.378 9.35354C14.3851 9.34672 14.3908 9.33861 14.3946 9.32969C14.3985 9.32077 14.4005 9.31121 14.4005 9.30155V7.98574C14.4005 7.96624 14.3924 7.94754 14.378 7.93375C14.3635 7.91997 14.344 7.91222 14.3236 7.91222Z" fill="#093F68"/>
<path d="M5.4732 19.5367H2.81035C2.77518 19.5367 2.74145 19.5234 2.71658 19.4996C2.69171 19.4758 2.67773 19.4436 2.67773 19.41C2.67773 19.3763 2.69171 19.3441 2.71658 19.3203C2.74145 19.2966 2.77518 19.2832 2.81035 19.2832H5.4732C5.50837 19.2832 5.5421 19.2966 5.56697 19.3203C5.59184 19.3441 5.60581 19.3763 5.60581 19.41C5.60581 19.4436 5.59184 19.4758 5.56697 19.4996C5.5421 19.5234 5.50837 19.5367 5.4732 19.5367Z" fill="#093F68"/>
<path d="M5.71685 18.9259H3.054C3.01883 18.9259 2.9851 18.9125 2.96023 18.8888C2.93536 18.865 2.92139 18.8327 2.92139 18.7991C2.92139 18.7655 2.93536 18.7333 2.96023 18.7095C2.9851 18.6857 3.01883 18.6724 3.054 18.6724H5.71685C5.75202 18.6724 5.78575 18.6857 5.81062 18.7095C5.83549 18.7333 5.84946 18.7655 5.84946 18.7991C5.84946 18.8327 5.83549 18.865 5.81062 18.8888C5.78575 18.9125 5.75202 18.9259 5.71685 18.9259Z" fill="#093F68"/>
<path d="M5.96232 18.316H3.29814C3.26297 18.316 3.22924 18.3027 3.20437 18.2789C3.1795 18.2551 3.16553 18.2229 3.16553 18.1893C3.16553 18.1556 3.1795 18.1234 3.20437 18.0996C3.22924 18.0759 3.26297 18.0625 3.29814 18.0625H5.96232C5.99749 18.0625 6.03122 18.0759 6.05609 18.0996C6.08096 18.1234 6.09493 18.1556 6.09493 18.1893C6.09493 18.2229 6.08096 18.2551 6.05609 18.2789C6.03122 18.3027 5.99749 18.316 5.96232 18.316Z" fill="#093F68"/>
<path d="M13.8542 10.4288C13.8542 10.4288 15.0265 10.2868 15.2413 10.4288C15.4561 10.5708 15.7253 10.8725 15.7187 11.0436C15.7121 11.2148 15.6444 11.4239 15.4681 11.4315C15.2755 11.4208 15.0824 11.4208 14.8899 11.4315C14.675 11.4607 13.8184 11.4974 13.8184 11.4974L13.8542 10.4288Z" fill="#888AA0"/>
<path d="M13.8197 11.6239C13.7851 11.6241 13.7518 11.6114 13.7269 11.5884C13.7137 11.5761 13.7033 11.5613 13.6965 11.5449C13.6896 11.5285 13.6864 11.511 13.6871 11.4934L13.7229 10.4247C13.7226 10.3938 13.7342 10.3638 13.7555 10.3405C13.7767 10.3171 13.8062 10.302 13.8383 10.298C14.126 10.2638 15.0795 10.1623 15.3169 10.3183C15.5092 10.445 15.8633 10.786 15.8473 11.0421C15.8341 11.3413 15.6869 11.5415 15.4707 11.5491C15.3951 11.5491 15.3169 11.5491 15.2426 11.5491C15.1302 11.5391 15.0169 11.5391 14.9045 11.5491C14.6857 11.5796 13.8555 11.6151 13.8197 11.6163V11.6239ZM13.9841 10.5414L13.9563 11.3641C14.2083 11.3527 14.7188 11.3273 14.8726 11.3058C15.0023 11.2933 15.1329 11.2933 15.2625 11.3058C15.3328 11.3058 15.3951 11.3058 15.4628 11.3058C15.5304 11.3058 15.5821 11.1663 15.5874 11.0396C15.5874 10.9445 15.3845 10.677 15.167 10.5325C15.0689 10.4691 14.4987 10.4869 13.9868 10.5414H13.9841Z" fill="#093F68"/>
<path d="M8.74454 7.78564C9.30549 8.48031 10.9459 10.075 14.2413 10.1789L14.3328 11.7965C14.3328 11.7965 14.236 11.8053 14.1856 11.8041C10.369 11.6849 8.31753 9.86204 7.4834 8.87835" fill="#888AA0"/>
<path d="M14.1974 11.931H14.1815C10.3556 11.8118 8.2789 10.0181 7.38111 8.95835C7.35913 8.93239 7.34874 8.89919 7.35222 8.86596C7.3557 8.83273 7.37275 8.80216 7.39968 8.78088C7.41324 8.77035 7.42885 8.76249 7.44561 8.75774C7.46236 8.753 7.47993 8.75146 7.4973 8.75323C7.51468 8.755 7.53152 8.76003 7.54686 8.76804C7.56219 8.77604 7.57572 8.78687 7.58666 8.79989C8.4566 9.82415 10.4696 11.5608 14.1894 11.6774L14.1191 10.3008C10.8436 10.1613 9.20188 8.55397 8.64358 7.86311C8.63165 7.85009 8.62264 7.83487 8.6171 7.8184C8.61156 7.80192 8.6096 7.78454 8.61136 7.76731C8.61311 7.75009 8.61854 7.73339 8.6273 7.71825C8.63606 7.70311 8.64797 7.68984 8.6623 7.67926C8.67663 7.66869 8.69307 7.66103 8.71061 7.65675C8.72816 7.65248 8.74643 7.65169 8.76431 7.65443C8.78218 7.65716 8.79928 7.66336 8.81455 7.67266C8.82983 7.68195 8.84295 7.69413 8.85311 7.70846C9.39549 8.37904 11.0054 9.95091 14.2491 10.0523C14.2829 10.0523 14.3155 10.0646 14.3402 10.0867C14.3648 10.1089 14.3797 10.1392 14.3817 10.1715L14.4732 11.7903C14.4734 11.8218 14.4612 11.8523 14.4392 11.8757C14.4171 11.8991 14.3867 11.9139 14.3539 11.917C14.3353 11.9234 14.2517 11.931 14.1974 11.931Z" fill="#093F68"/>
<path d="M10.6301 11.7446L6.5669 11.7687V12.4634C6.56594 12.7149 6.65784 12.9587 6.82643 13.1519C6.99502 13.3451 7.22948 13.4752 7.48856 13.5193L11.6539 14.2533C11.8802 14.2933 12.0847 14.4077 12.232 14.5767C12.3793 14.7457 12.46 14.9587 12.4602 15.1787V18.2413H14.3844V15.1787C14.3844 12.7397 10.6301 11.7446 10.6301 11.7446Z" fill="#093F68"/>
<path d="M14.3847 18.368H12.4538C12.4187 18.368 12.3849 18.3546 12.3601 18.3309C12.3352 18.3071 12.3212 18.2748 12.3212 18.2412V15.1786C12.3209 14.9883 12.251 14.8041 12.1236 14.6578C11.9963 14.5115 11.8194 14.4123 11.6237 14.3775L7.45834 13.646C7.17082 13.5956 6.91092 13.4504 6.72385 13.2357C6.53679 13.021 6.43443 12.7503 6.43457 12.4709V11.7763C6.43457 11.7426 6.44854 11.7104 6.47341 11.6866C6.49828 11.6628 6.53201 11.6495 6.56718 11.6495L10.6304 11.6254C10.6423 11.6236 10.6544 11.6236 10.6662 11.6254C11.3378 11.8174 11.9809 12.0909 12.5798 12.4392C13.8542 13.1884 14.5173 14.1353 14.5173 15.1786V18.2412C14.5173 18.2748 14.5033 18.3071 14.4784 18.3309C14.4536 18.3546 14.4198 18.368 14.3847 18.368ZM12.5825 18.1145H14.2521V15.1786C14.2521 12.9463 10.8784 11.9525 10.6079 11.8764L6.69582 11.8992V12.4684C6.69601 12.6884 6.77675 12.9013 6.92402 13.0704C7.07129 13.2394 7.27581 13.3538 7.5021 13.3938L11.6674 14.129C11.9243 14.1741 12.1565 14.3037 12.3237 14.4955C12.4908 14.6873 12.5824 14.929 12.5825 15.1786V18.1145Z" fill="#093F68"/>
<path d="M11.3714 2.70475C11.3714 2.70475 11.6287 4.09916 11.3714 5.29961C11.1141 6.50007 8.8438 7.12375 7.8996 6.18696C6.9554 5.25018 6.35467 2.92913 7.73516 2.11023C9.11565 1.29133 11.3714 2.70475 11.3714 2.70475Z" fill="#888AA0"/>
<path d="M9.17134 6.76757C8.92046 6.77755 8.67005 6.73901 8.43512 6.65428C8.20019 6.56955 7.98556 6.44036 7.80411 6.27446C7.1132 5.5874 6.69282 4.34257 6.81217 3.3779C6.89306 2.76183 7.18746 2.28646 7.66619 2.00251C9.10238 1.14939 11.3488 2.54126 11.4443 2.60084C11.4595 2.61024 11.4725 2.62251 11.4825 2.6369C11.4926 2.65129 11.4994 2.66749 11.5027 2.6845C11.5133 2.74281 11.7599 4.11947 11.5027 5.32753C11.37 5.92079 10.7879 6.43038 9.96833 6.65729C9.70936 6.72943 9.44109 6.76655 9.17134 6.76757ZM8.76024 1.9835C8.42511 1.97475 8.09419 2.05647 7.80543 2.21928C7.2909 2.52478 7.12513 3.03564 7.07606 3.41086C6.94345 4.39582 7.44208 5.5519 7.99507 6.10079C8.3929 6.5001 9.14216 6.62306 9.89407 6.41517C10.6062 6.21741 11.1353 5.7712 11.2414 5.27429C11.4615 4.24623 11.2931 3.04958 11.2507 2.78211C11.0001 2.63506 9.82909 1.9835 8.76024 1.9835Z" fill="#093F68"/>
<path d="M10.8558 4.56345C10.9934 4.56345 11.1051 4.45732 11.1051 4.3264C11.1051 4.19549 10.9934 4.08936 10.8558 4.08936C10.7181 4.08936 10.6064 4.19549 10.6064 4.3264C10.6064 4.45732 10.7181 4.56345 10.8558 4.56345Z" fill="#093F68"/>
<path d="M11.2787 4.56348C11.2787 4.56348 11.7243 5.36716 11.5545 5.40899C11.418 5.43144 11.2786 5.43144 11.1421 5.40899" fill="#888AA0"/>
<path d="M11.3689 5.55351C11.2849 5.55288 11.2011 5.5461 11.1183 5.53322C11.1008 5.53031 11.0842 5.52415 11.0693 5.51509C11.0544 5.50602 11.0414 5.49424 11.0313 5.48041C11.0211 5.46658 11.0139 5.45097 11.0101 5.43448C11.0062 5.41798 11.0058 5.40092 11.0089 5.38428C11.0119 5.36763 11.0183 5.35172 11.0278 5.33745C11.0373 5.32319 11.0496 5.31085 11.0641 5.30114C11.0786 5.29143 11.0949 5.28454 11.1122 5.28086C11.1294 5.27718 11.1473 5.27678 11.1647 5.2797C11.261 5.29498 11.359 5.29923 11.4564 5.29237C11.3843 5.05818 11.2852 4.83241 11.1607 4.61926C11.1443 4.5895 11.141 4.55476 11.1515 4.52267C11.1619 4.49058 11.1853 4.46377 11.2164 4.44812C11.2475 4.4325 11.2839 4.42933 11.3174 4.43932C11.351 4.4493 11.3791 4.47162 11.3954 4.50137C11.5797 4.83349 11.784 5.26195 11.7057 5.43055C11.6948 5.45437 11.6784 5.47552 11.6578 5.49242C11.6371 5.50933 11.6127 5.52154 11.5864 5.52815C11.5152 5.54478 11.4422 5.55329 11.3689 5.55351Z" fill="#093F68"/>
<path d="M9.93419 3.94982C9.89936 3.95298 9.86422 3.94955 9.83078 3.93973C9.79733 3.92992 9.76624 3.9139 9.73927 3.89259C9.68481 3.84956 9.65045 3.78761 9.64377 3.72037C9.64046 3.68708 9.64405 3.65349 9.65432 3.62152C9.66459 3.58955 9.68135 3.55983 9.70364 3.53405C9.72593 3.50827 9.75331 3.48694 9.78422 3.47128C9.81513 3.45561 9.84897 3.44592 9.8838 3.44276L11.0481 3.22726C11.083 3.21894 11.1193 3.21749 11.1548 3.223C11.1903 3.22851 11.2242 3.24085 11.2546 3.25929C11.2849 3.27773 11.311 3.30187 11.3313 3.33025C11.3516 3.35864 11.3656 3.39066 11.3726 3.42439C11.3795 3.45811 11.3792 3.49284 11.3716 3.52644C11.3641 3.56005 11.3495 3.59184 11.3287 3.61987C11.3079 3.64791 11.2814 3.67162 11.2507 3.68955C11.22 3.70748 11.1858 3.71926 11.1502 3.72418L9.98459 3.93968C9.96829 3.94502 9.95136 3.94843 9.93419 3.94982Z" fill="#093F68"/>
<path d="M11.6727 2.61753C11.6727 2.61753 9.98456 2.71514 9.47798 3.37812C8.9714 4.04109 9.89968 5.02605 9.69679 5.54071C9.49389 6.05537 9.15706 6.25186 8.34547 6.31651C7.53388 6.38116 6.37088 5.72705 5.89612 4.99816C5.42137 4.26927 4.72781 3.13346 5.67864 1.56412C6.5499 0.122816 8.43167 -0.0445127 9.58407 0.244509C10.8558 0.57156 11.6223 0.85678 11.6727 2.61753Z" fill="#888AA0"/>
<path d="M8.23675 6.44445C7.40925 6.44445 6.27143 5.81063 5.78342 5.06145C5.35376 4.39974 4.55145 3.1676 5.56329 1.49812C6.49157 -0.036996 8.49799 -0.165027 9.61856 0.122727C10.9447 0.463722 11.7536 0.800914 11.8053 2.61237C11.8054 2.64472 11.7925 2.67586 11.7693 2.69942C11.7462 2.72299 11.7145 2.7372 11.6807 2.73914C11.6648 2.73914 10.0482 2.84055 9.58408 3.44648C9.33345 3.7748 9.50319 4.21974 9.66763 4.64947C9.80024 4.993 9.92357 5.31752 9.82146 5.57865C9.6 6.14275 9.21675 6.36712 8.36273 6.43558C8.32092 6.44063 8.27887 6.4436 8.23675 6.44445ZM8.58021 0.252026C7.59092 0.252026 6.42129 0.589218 5.79536 1.62488C4.86707 3.16253 5.58185 4.26791 6.01151 4.92835C6.47035 5.63316 7.60286 6.24416 8.33753 6.18712C9.10138 6.12627 9.39047 5.96401 9.57613 5.49372C9.64376 5.32005 9.53502 5.03864 9.42097 4.74074C9.24195 4.27045 9.03772 3.73804 9.37323 3.3007C9.83074 2.70237 11.1211 2.54012 11.5388 2.49955C11.4605 0.935284 10.7617 0.677953 9.5496 0.367382C9.233 0.289284 8.90718 0.250513 8.58021 0.252026Z" fill="#093F68"/>
<path d="M11.6503 1.67432C11.6503 1.67432 10.1333 1.98362 10.0484 2.15982C9.96351 2.33602 10.1107 2.58702 10.7247 2.78097C11.3387 2.97492 12.9592 2.82914 12.942 2.50589C12.9247 2.18264 11.6503 1.67432 11.6503 1.67432Z" fill="#888AA0"/>
<path d="M11.5055 2.99793C11.2279 3.00513 10.9506 2.9744 10.682 2.90666C10.2723 2.77989 10.019 2.6113 9.92879 2.41481C9.90621 2.36745 9.89453 2.31601 9.89453 2.26396C9.89453 2.21192 9.90621 2.16048 9.92879 2.11311C10.0031 1.95593 10.5733 1.76958 11.6236 1.55662C11.6495 1.54883 11.6772 1.54883 11.7031 1.55662C12.1089 1.71888 13.0571 2.13593 13.0757 2.49848C13.0762 2.54407 13.0643 2.58901 13.041 2.62882C13.0177 2.66863 12.984 2.70192 12.9431 2.72538C12.7083 2.90159 12.0745 2.99793 11.5055 2.99793ZM10.1648 2.22847C10.1591 2.24173 10.1561 2.25594 10.1561 2.2703C10.1561 2.28466 10.1591 2.29888 10.1648 2.31213C10.1914 2.37045 10.2975 2.52129 10.7589 2.66581C11.3597 2.85595 12.7123 2.68355 12.8051 2.50735C12.7972 2.39326 12.2429 2.06114 11.6302 1.81268C11.0029 1.93818 10.2802 2.12833 10.1648 2.2234V2.22847Z" fill="#093F68"/>
<path d="M8.53647 5.70049C8.72543 5.70049 8.87861 5.55406 8.87861 5.37344C8.87861 5.19281 8.72543 5.04639 8.53647 5.04639C8.34752 5.04639 8.19434 5.19281 8.19434 5.37344C8.19434 5.55406 8.34752 5.70049 8.53647 5.70049Z" fill="#093F68"/>
<path d="M8.53627 5.82706C8.44238 5.82706 8.35059 5.80045 8.27252 5.75058C8.19444 5.70072 8.13359 5.62984 8.09766 5.54692C8.06173 5.46399 8.05233 5.37275 8.07065 5.28471C8.08896 5.19668 8.13418 5.11582 8.20057 5.05235C8.26697 4.98889 8.35156 4.94566 8.44366 4.92815C8.53575 4.91064 8.6312 4.91963 8.71795 4.95398C8.8047 4.98833 8.87885 5.04649 8.93102 5.12112C8.98318 5.19575 9.01103 5.28349 9.01103 5.37325C9.01103 5.43284 8.99875 5.49186 8.97489 5.54692C8.95103 5.60198 8.91606 5.652 8.87197 5.69414C8.82789 5.73628 8.77555 5.76971 8.71795 5.79252C8.66035 5.81533 8.59862 5.82706 8.53627 5.82706ZM8.53627 5.17296C8.49483 5.17296 8.45432 5.18471 8.41987 5.20672C8.38541 5.22872 8.35856 5.26 8.3427 5.2966C8.32684 5.3332 8.32269 5.37347 8.33077 5.41232C8.33886 5.45117 8.35881 5.48686 8.38812 5.51487C8.41742 5.54288 8.45475 5.56196 8.4954 5.56969C8.53604 5.57742 8.57817 5.57345 8.61646 5.55829C8.65474 5.54313 8.68747 5.51746 8.71049 5.48452C8.73351 5.45159 8.7458 5.41286 8.7458 5.37325C8.7458 5.32013 8.72373 5.26919 8.68443 5.23162C8.64514 5.19406 8.59184 5.17296 8.53627 5.17296Z" fill="#093F68"/>
<path d="M10.7296 5.85223C10.5621 5.86224 10.3964 5.81359 10.2637 5.71538C10.1309 5.61717 10.0401 5.47611 10.0082 5.31856C10.0049 5.30216 10.0051 5.2853 10.0087 5.26896C10.0122 5.25262 10.0191 5.23711 10.029 5.22333C10.0389 5.20955 10.0515 5.19777 10.0661 5.18866C10.0807 5.17955 10.0971 5.17329 10.1143 5.17024C10.1487 5.16392 10.1844 5.1709 10.2135 5.18968C10.2426 5.20845 10.2627 5.23747 10.2694 5.27039C10.3397 5.62786 10.7336 5.60124 10.7787 5.59617C10.7961 5.59442 10.8137 5.59597 10.8305 5.60073C10.8473 5.60548 10.8629 5.61335 10.8765 5.62389C10.8901 5.63442 10.9014 5.64742 10.9098 5.66213C10.9181 5.67684 10.9234 5.69298 10.9252 5.70963C10.927 5.72627 10.9254 5.7431 10.9204 5.75915C10.9155 5.7752 10.9072 5.79015 10.8962 5.80316C10.8852 5.81617 10.8716 5.82697 10.8562 5.83496C10.8408 5.84294 10.8239 5.84795 10.8065 5.8497C10.7809 5.85186 10.7553 5.85271 10.7296 5.85223Z" fill="#093F68"/>
</svg>
