<svg width="24" height="28" viewBox="0 0 24 28" fill="none" xmlns="http://www.w3.org/2000/svg">
<path fill-rule="evenodd" clip-rule="evenodd" d="M21.9459 11.7742C21.9459 17.2876 17.4887 21.7495 11.9999 21.7495C6.51108 21.7495 2.05389 17.2876 2.05389 11.7742C2.05389 6.26085 6.51108 1.79901 11.9999 1.79901C17.4887 1.79901 21.9459 6.26085 21.9459 11.7742ZM14.2602 23.3306C13.5288 23.4736 12.7731 23.5485 11.9999 23.5485C11.5408 23.5485 11.0878 23.5221 10.6424 23.4707V24.9924C10.6424 25.0919 10.6754 25.1887 10.7363 25.2675L12.0184 26.926C12.1929 27.1518 12.531 27.16 12.7163 26.9429L14.1526 25.2598C14.222 25.1784 14.2602 25.0749 14.2602 24.9679V23.3306ZM15.1597 23.1175C20.1116 21.7341 23.7449 17.1795 23.7449 11.7742C23.7449 5.27151 18.4865 0 11.9999 0C5.5133 0 0.254883 5.27151 0.254883 11.7742C0.254883 17.5031 4.33614 22.2763 9.74291 23.3313V24.9924C9.74291 25.291 9.842 25.5813 10.0246 25.8176L11.3067 27.4761C11.8304 28.1536 12.8446 28.1782 13.4005 27.5268L14.8368 25.8437C15.0452 25.5995 15.1597 25.289 15.1597 24.9679V23.1175Z" fill="#262626"/>
<path d="M18.3283 11.7429C18.3283 15.237 15.4953 18.0698 12.0002 18.0698C8.50503 18.0698 5.67196 15.237 5.67196 11.7429C5.67196 8.24889 8.50503 5.41611 12.0002 5.41611C15.4953 5.41611 18.3283 8.24889 18.3283 11.7429Z" stroke="#262626" stroke-width="1.79901"/>
<path fill-rule="evenodd" clip-rule="evenodd" d="M12.9034 11.8265C12.8613 12.2882 12.473 12.6502 11.9998 12.6502C11.4985 12.6502 11.0924 12.2439 11.0924 11.7431C11.0924 11.2423 11.4985 10.836 11.9998 10.836C12.473 10.836 12.8613 11.198 12.9034 11.6597V11.8265ZM13.565 12.6464C13.2525 13.1864 12.6686 13.5497 11.9998 13.5497C11.0019 13.5497 10.1929 12.7409 10.1929 11.7431C10.1929 10.7454 11.0019 9.93652 11.9998 9.93652C12.6686 9.93652 13.2526 10.2998 13.565 10.8398H20.1123C20.6216 10.8398 21.0346 11.2528 21.0346 11.7622C21.0346 12.2505 20.6387 12.6464 20.1503 12.6464H13.565Z" fill="#262626"/>
</svg>
