<svg width="18" height="17" viewBox="0 0 18 17" fill="none" xmlns="http://www.w3.org/2000/svg">
<path d="M1.55987 2.94625C2.15987 0.35125 6.06737 0.35125 6.65987 2.94625C7.01237 4.46875 6.04487 5.75875 5.20487 6.56125C4.58987 7.14625 3.62237 7.13875 3.00737 6.56125C2.17487 5.75875 1.20737 4.46875 1.55987 2.94625Z" stroke="#888AA0" stroke-width="1.5"/>
<path d="M11.3098 11.9463C11.9098 9.35125 15.8398 9.35125 16.4398 11.9463C16.7923 13.4688 15.8248 14.7587 14.9773 15.5612C14.3623 16.1462 13.3873 16.1387 12.7723 15.5612C11.9248 14.7587 10.9573 13.4688 11.3098 11.9463Z" stroke="#888AA0" stroke-width="1.5"/>
<path d="M9.0071 3.24609H11.0171C12.4046 3.24609 13.0496 4.96359 12.0071 5.87859L6.0146 11.1211C4.9721 12.0286 5.6171 13.7461 6.9971 13.7461H9.0071" stroke="#888AA0" stroke-width="1.5" stroke-linecap="round" stroke-linejoin="round"/>
<path d="M4.12162 3.62109H4.13029" stroke="#888AA0" stroke-width="2" stroke-linecap="round" stroke-linejoin="round"/>
<path d="M13.8716 12.6211H13.8802" stroke="#888AA0" stroke-width="2" stroke-linecap="round" stroke-linejoin="round"/>
</svg>
