<svg width="15" height="14" viewBox="0 0 15 14" fill="none" xmlns="http://www.w3.org/2000/svg">
<path d="M7.62523 6.99988H3.06404M2.93476 7.59778L2.18119 9.84883C1.76846 11.0817 1.5621 11.6981 1.71019 12.0777C1.8388 12.4074 2.11501 12.6573 2.45585 12.7525C2.84833 12.862 3.44113 12.5952 4.62673 12.0617L12.2275 8.64133C13.3848 8.12053 13.9634 7.8602 14.1422 7.49848C14.2976 7.18423 14.2976 6.81545 14.1422 6.5012C13.9634 6.13955 13.3848 5.87915 12.2275 5.35839L4.61362 1.93215C3.43159 1.40024 2.84059 1.13429 2.44849 1.24339C2.10798 1.33814 1.83179 1.5874 1.70274 1.91645C1.55413 2.29534 1.75829 2.91044 2.16661 4.14063L2.93622 6.45935C3.00634 6.67063 3.04141 6.7763 3.05525 6.8843C3.06754 6.98023 3.06741 7.07728 3.05488 7.17313C3.04076 7.28113 3.00543 7.38665 2.93476 7.59778Z" stroke="#888AA0" stroke-width="1.5" stroke-linecap="round" stroke-linejoin="round"/>
</svg>
