<svg width="6" height="6" viewBox="0 0 6 6" fill="none" xmlns="http://www.w3.org/2000/svg">
<path d="M2.46575 0.390855L2.75675 1.40961C2.77225 1.46336 2.82125 1.50036 2.877 1.50036H3.12275C3.1785 1.50036 3.2275 1.46336 3.243 1.40961L3.534 0.391106C3.54775 0.343856 3.565 0.298105 3.58575 0.254855C3.601 0.222855 3.602 0.185856 3.58825 0.152856C3.5745 0.120106 3.54775 0.0948555 3.51425 0.0828555C3.1965 -0.0281445 2.80425 -0.0283945 2.486 0.0828555C2.4525 0.0946055 2.4255 0.120106 2.412 0.152856C2.39825 0.185605 2.39925 0.222605 2.4145 0.254606C2.435 0.298355 2.4525 0.343856 2.46575 0.390855ZM1.08575 1.00386C1.0975 1.00361 1.1085 1.00261 1.12025 1.00036C1.28875 1.00036 1.454 1.05811 1.5855 1.16336L1.72025 1.27111C1.768 1.30936 1.80525 1.36061 1.831 1.42286C1.85025 1.46986 1.896 1.50036 1.9465 1.50036H2.36225C2.43125 1.50036 2.48725 1.44436 2.48725 1.37536C2.48725 1.35111 2.48025 1.32836 2.46825 1.30936L2.2255 0.459855C2.148 0.189355 1.8975 0.000355498 1.61625 0.000355498C1.34325 0.000355498 1.10175 0.174355 1.0155 0.433355C0.96675 0.579105 0.9485 0.732356 0.961 0.888856C0.9665 0.953856 1.02075 1.00386 1.08575 1.00386ZM3.543 1.45061C3.56675 1.48186 3.60375 1.50036 3.64275 1.50036H4.0535C4.10425 1.50036 4.15 1.46961 4.16925 1.42261C4.19475 1.36036 4.23175 1.30936 4.27975 1.27111L4.414 1.16361C4.54525 1.05886 4.71 1.00086 4.87825 1.00086H4.88025C4.885 1.00136 4.9055 1.00361 4.91025 1.00361C4.9755 1.00611 5.03325 0.955106 5.03875 0.888856C5.05125 0.732356 5.033 0.579105 4.98425 0.433355C4.898 0.174355 4.6565 0.000355498 4.3835 0.000355498C4.10225 0.000355498 3.85175 0.189355 3.77425 0.459855L3.5225 1.34111C3.51175 1.37886 3.5195 1.41936 3.543 1.45061ZM4.5705 1.35886L4.436 1.46636C4.41 1.48711 4.3935 1.51736 4.38975 1.55036C4.386 1.58336 4.39575 1.61636 4.4165 1.64236C4.45275 1.68736 4.47725 1.73661 4.48975 1.78861L4.68525 2.60936C4.694 2.64586 4.7185 2.67661 4.7525 2.69286C4.7695 2.70111 4.78825 2.70536 4.80675 2.70536C4.82475 2.70536 4.843 2.70136 4.8595 2.69361C4.9185 2.66611 4.9815 2.64486 5.0465 2.63036C5.08825 2.62111 5.1225 2.59111 5.137 2.55111L5.345 1.97961C5.365 1.92511 5.375 1.86811 5.375 1.81036V1.74561C5.375 1.47261 5.15275 1.25061 4.88 1.25061C4.76775 1.25036 4.658 1.28886 4.5705 1.35886ZM0.86275 2.55111C0.87725 2.59136 0.9115 2.62111 0.95325 2.63036C1.01825 2.64486 1.08125 2.66611 1.14025 2.69361C1.157 2.70136 1.175 2.70536 1.193 2.70536C1.2115 2.70536 1.23025 2.70111 1.24725 2.69286C1.28125 2.67661 1.30575 2.64586 1.3145 2.60936L1.51 1.78861C1.5225 1.73661 1.547 1.68736 1.58325 1.64236C1.604 1.61636 1.61375 1.58336 1.61 1.55036C1.60625 1.51736 1.58975 1.48711 1.56375 1.46636L1.42925 1.35886C1.34175 1.28886 1.232 1.25036 1.12 1.25036C0.847 1.25036 0.625 1.47261 0.625 1.74536V1.81011C0.625 1.86786 0.635 1.92486 0.655 1.97936L0.86275 2.55111ZM0.77525 4.32561C0.806 4.32561 0.8365 4.31436 0.8605 4.29211C0.90675 4.24911 0.95575 4.20936 1.0065 4.17361C1.05225 4.14161 1.06225 4.05911 1.04375 4.00636C1.04025 3.99661 1.03825 3.98636 1.032 3.96136L1.025 3.92586C1.025 3.92311 1.0245 3.90061 1.0245 3.89786C1.024 3.88611 1.023 3.87436 1.02375 3.86161C1.02425 3.84961 1.0265 3.83811 1.02925 3.82236C1.02925 3.82211 1.03225 3.79661 1.03225 3.79611L1.19475 3.11386C1.20625 3.06536 1.188 3.01461 1.14775 2.98461C0.98175 2.86086 0.75825 2.82361 0.563 2.88911C0.301 2.97636 0.125 3.22061 0.125 3.51311C0.125 3.70036 0.2065 3.87761 0.34875 3.99936L0.694 4.29536C0.7175 4.31561 0.74625 4.32561 0.77525 4.32561ZM5.437 2.88936C5.24175 2.82386 5.01825 2.86111 4.85225 2.98486C4.81225 3.01461 4.79375 3.06536 4.80525 3.11411L4.96775 3.79986C4.968 3.80286 4.97075 3.82386 4.97125 3.82686C4.97325 3.83836 4.9755 3.84986 4.97625 3.86261C4.977 3.87461 4.976 3.88661 4.97525 3.90386C4.975 3.90661 4.9735 3.93311 4.9735 3.93586C4.97225 3.94486 4.96975 3.95336 4.96425 3.97636C4.96175 3.98661 4.9595 3.99686 4.94975 4.02336C4.92725 4.07761 4.9455 4.14011 4.9935 4.17361C5.0445 4.20936 5.09325 4.24911 5.1395 4.29211C5.1635 4.31436 5.194 4.32561 5.22475 4.32561C5.25375 4.32561 5.2825 4.31561 5.306 4.29536L5.65125 3.99961C5.7935 3.87786 5.875 3.70036 5.875 3.49711C5.875 3.22086 5.699 2.97661 5.437 2.88936ZM4.5 4.25036H3.625V4.13961L3.65725 4.00036H4.5C4.5295 4.00036 4.55875 4.00361 4.588 4.00711C4.593 4.00786 4.598 4.00811 4.60275 4.00811C4.60275 4.00811 4.60275 4.00811 4.603 4.00811H4.60375C4.61325 4.00811 4.6225 4.00711 4.63225 4.00486C4.63475 4.00436 4.63675 4.00236 4.63925 4.00161C4.64875 3.99886 4.657 3.99436 4.6655 3.98961C4.67075 3.98661 4.67625 3.98411 4.681 3.98011C4.68825 3.97436 4.694 3.96686 4.7 3.95961C4.70375 3.95486 4.70825 3.95086 4.71125 3.94561C4.71575 3.93786 4.718 3.92911 4.72075 3.92061C4.72275 3.91411 4.72575 3.90811 4.72675 3.90111C4.727 3.90011 4.7275 3.89936 4.7275 3.89836C4.7285 3.89086 4.72625 3.88411 4.72575 3.87686C4.72525 3.86936 4.72675 3.86186 4.725 3.85436L4.247 1.84661C4.246 1.84261 4.24375 1.83961 4.2425 1.83586C4.2405 1.82986 4.238 1.82436 4.23525 1.81861C4.231 1.81036 4.226 1.80336 4.22025 1.79636C4.2165 1.79186 4.21275 1.78736 4.20825 1.78336C4.201 1.77686 4.19275 1.77186 4.18425 1.76711C4.17975 1.76461 4.1755 1.76161 4.1705 1.75961C4.156 1.75386 4.141 1.75036 4.125 1.75036H1.875C1.859 1.75036 1.844 1.75386 1.82975 1.75936C1.82475 1.76136 1.82075 1.76436 1.816 1.76686C1.8075 1.77161 1.79925 1.77661 1.792 1.78311C1.7875 1.78711 1.784 1.79161 1.78 1.79611C1.77425 1.80311 1.76925 1.81036 1.765 1.81836C1.762 1.82386 1.75975 1.82936 1.75775 1.83561C1.7565 1.83936 1.754 1.84236 1.75325 1.84636L1.27525 3.85411C1.2735 3.86186 1.27475 3.86911 1.2745 3.87661C1.274 3.88386 1.272 3.89061 1.27275 3.89811C1.27275 3.89911 1.2735 3.89986 1.2735 3.90086C1.2745 3.90786 1.2775 3.91386 1.27975 3.92036C1.2825 3.92886 1.28475 3.93761 1.28925 3.94536C1.29225 3.95061 1.29675 3.95461 1.3005 3.95961C1.30625 3.96711 1.312 3.97436 1.3195 3.98011C1.32425 3.98386 1.32975 3.98636 1.335 3.98961C1.34325 3.99461 1.35175 3.99886 1.361 4.00161C1.3635 4.00236 1.36525 4.00411 1.368 4.00486C1.37225 4.00586 1.3765 4.00486 1.381 4.00536C1.3865 4.00611 1.39125 4.00836 1.397 4.00836C1.402 4.00836 1.40725 4.00811 1.41225 4.00736C1.44125 4.00386 1.4705 4.00061 1.50025 4.00061H2.343L2.37525 4.13986V4.25036H1.50025C1.06625 4.25036 0.62525 4.89186 0.62525 5.25036C0.62525 5.69111 1.51725 6.00036 2.00025 6.00036H4.00025C4.48325 6.00036 5.37525 5.69111 5.37525 5.25036C5.375 4.89186 4.934 4.25036 4.5 4.25036ZM3.98875 2.56336L4.12725 2.42486L4.443 3.75036H3.715L3.98875 2.56336ZM1.557 3.75036L1.87275 2.42486L2.01125 2.56336L2.28525 3.75036H1.557ZM2.785 5.25036L2.8475 5.00036H3.15225L3.21475 5.25036H2.785ZM3.375 4.62536C3.375 4.69436 3.319 4.75036 3.25 4.75036H3.125V4.62536C3.125 4.60861 3.1215 4.59261 3.1155 4.57786C3.11575 4.57736 3.11625 4.57736 3.11675 4.57686C3.1405 4.54636 3.1485 4.50661 3.13875 4.46911C3.1295 4.43286 3.125 4.40311 3.125 4.37536C3.125 4.30636 3.069 4.25036 3 4.25036C2.931 4.25036 2.875 4.30636 2.875 4.37536C2.875 4.40311 2.8705 4.43286 2.86125 4.46911C2.8515 4.50661 2.85975 4.54636 2.88325 4.57686C2.8835 4.57736 2.884 4.57736 2.8845 4.57786C2.8785 4.59261 2.875 4.60861 2.875 4.62536V4.75036H2.75C2.681 4.75036 2.625 4.69436 2.625 4.62536V4.00036H3.375V4.62536ZM3.2865 2.16186C3.27 2.17836 3.25825 2.19936 3.253 2.22211L2.99975 3.31911L2.7465 2.22211C2.74125 2.19936 2.72975 2.17836 2.713 2.16186L2.55175 2.00036H3.44825L3.2865 2.16186Z" fill="#888AA0"/>
</svg>
