<svg width="17" height="18" viewBox="0 0 17 18" fill="none" xmlns="http://www.w3.org/2000/svg">
<path d="M12.53 10.1625C12.215 10.47 12.035 10.9125 12.08 11.385C12.1475 12.195 12.89 12.7875 13.7 12.7875H15.125V13.68C15.125 15.2325 13.8575 16.5 12.305 16.5H3.695C2.1425 16.5 0.875 15.2325 0.875 13.68V8.63251C0.875 7.08001 2.1425 5.8125 3.695 5.8125H12.305C13.8575 5.8125 15.125 7.08001 15.125 8.63251V9.71251H13.61C13.19 9.71251 12.8075 9.87749 12.53 10.1625Z" stroke="#888AA0" stroke-width="1.125" stroke-linecap="round" stroke-linejoin="round"/>
<path d="M0.875 9.30748V5.88002C0.875 4.98752 1.4225 4.19248 2.255 3.87748L8.21 1.62748C9.14 1.27498 10.1375 1.96501 10.1375 2.96251V5.8125" stroke="#888AA0" stroke-width="1.125" stroke-linecap="round" stroke-linejoin="round"/>
<path d="M15.9191 10.4779V12.0229C15.9191 12.4354 15.5891 12.7729 15.1691 12.7879H13.6991C12.8891 12.7879 12.1466 12.1954 12.0791 11.3854C12.0341 10.9129 12.2141 10.4704 12.5291 10.1629C12.8066 9.87787 13.1891 9.71289 13.6091 9.71289H15.1691C15.5891 9.72789 15.9191 10.0654 15.9191 10.4779Z" stroke="#888AA0" stroke-width="1.125" stroke-linecap="round" stroke-linejoin="round"/>
<path d="M4.25 9H9.5" stroke="#888AA0" stroke-width="1.125" stroke-linecap="round" stroke-linejoin="round"/>
</svg>
