<svg width="16" height="16" viewBox="0 0 16 16" fill="none" xmlns="http://www.w3.org/2000/svg">
<path d="M12.215 7.0625C11.8925 7.0625 11.6375 6.8 11.6375 6.485C11.6375 6.2075 11.36 5.63 10.895 5.1275C10.4375 4.64 9.935 4.355 9.515 4.355C9.1925 4.355 8.9375 4.0925 8.9375 3.7775C8.9375 3.4625 9.2 3.2 9.515 3.2C10.265 3.2 11.0525 3.605 11.7425 4.3325C12.3875 5.015 12.8 5.8625 12.8 6.4775C12.8 6.8 12.5375 7.0625 12.215 7.0625Z" fill="#F79B39"/>
<path d="M14.9224 7.0625C14.5999 7.0625 14.3449 6.8 14.3449 6.485C14.3449 3.8225 12.1774 1.6625 9.52245 1.6625C9.19995 1.6625 8.94495 1.4 8.94495 1.085C8.94495 0.77 9.19995 0.5 9.51495 0.5C12.8149 0.5 15.4999 3.185 15.4999 6.485C15.4999 6.8 15.2374 7.0625 14.9224 7.0625Z" fill="#F79B39"/>
<path d="M7.2875 10.2125L5.9 11.6C5.6075 11.8925 5.1425 11.8925 4.8425 11.6075C4.76 11.525 4.6775 11.45 4.595 11.3675C3.8225 10.5875 3.125 9.77 2.5025 8.915C1.8875 8.06 1.3925 7.205 1.0325 6.3575C0.68 5.5025 0.5 4.685 0.5 3.905C0.5 3.395 0.59 2.9075 0.77 2.4575C0.95 2 1.235 1.58 1.6325 1.205C2.1125 0.7325 2.6375 0.5 3.1925 0.5C3.4025 0.5 3.6125 0.545 3.8 0.635C3.995 0.725 4.1675 0.86 4.3025 1.055L6.0425 3.5075C6.1775 3.695 6.275 3.8675 6.3425 4.0325C6.41 4.19 6.4475 4.3475 6.4475 4.49C6.4475 4.67 6.395 4.85 6.29 5.0225C6.1925 5.195 6.05 5.375 5.87 5.555L5.3 6.1475C5.2175 6.23 5.18 6.3275 5.18 6.4475C5.18 6.5075 5.1875 6.56 5.2025 6.62C5.225 6.68 5.2475 6.725 5.2625 6.77C5.3975 7.0175 5.63 7.34 5.96 7.73C6.2975 8.12 6.6575 8.5175 7.0475 8.915C7.1225 8.99 7.205 9.065 7.28 9.14C7.58 9.4325 7.5875 9.9125 7.2875 10.2125Z" fill="#F79B39"/>
<path d="M15.4775 12.7475C15.4775 12.9575 15.44 13.175 15.365 13.385C15.3425 13.445 15.32 13.505 15.29 13.565C15.1625 13.835 14.9975 14.09 14.78 14.33C14.4125 14.735 14.0075 15.0275 13.55 15.215C13.5425 15.215 13.535 15.2225 13.5275 15.2225C13.085 15.4025 12.605 15.5 12.0875 15.5C11.3225 15.5 10.505 15.32 9.64245 14.9525C8.77995 14.585 7.91745 14.09 7.06245 13.4675C6.76995 13.25 6.47745 13.0325 6.19995 12.8L8.65245 10.3475C8.86245 10.505 9.04995 10.625 9.20745 10.7075C9.24495 10.7225 9.28995 10.745 9.34245 10.7675C9.40245 10.79 9.46245 10.7975 9.52995 10.7975C9.65745 10.7975 9.75495 10.7525 9.83745 10.67L10.4075 10.1075C10.595 9.92 10.775 9.7775 10.9475 9.6875C11.12 9.5825 11.2925 9.53 11.48 9.53C11.6225 9.53 11.7725 9.56 11.9375 9.6275C12.1025 9.695 12.275 9.7925 12.4625 9.92L14.945 11.6825C15.14 11.8175 15.275 11.975 15.3575 12.1625C15.4325 12.35 15.4775 12.5375 15.4775 12.7475Z" fill="#F79B39"/>
</svg>
