<svg width="20" height="20" viewBox="0 0 20 20" fill="none" xmlns="http://www.w3.org/2000/svg">
<path opacity="0.4" d="M1.98999 12.6599L0.470005 11.14C-0.149995 10.52 -0.149995 9.49998 0.470005 8.87998L1.98999 7.35996C2.24999 7.09996 2.46 6.58995 2.46 6.22995V4.07999C2.46 3.19999 3.18 2.47995 4.06 2.47995H6.21C6.57 2.47995 7.08 2.26998 7.34 2.00998L8.85999 0.489963C9.47999 -0.130037 10.5 -0.130037 11.12 0.489963L12.64 2.00998C12.9 2.26998 13.41 2.47995 13.77 2.47995H15.92C16.8 2.47995 17.52 3.19999 17.52 4.07999V6.22995C17.52 6.58995 17.73 7.09996 17.99 7.35996L19.51 8.87998C20.13 9.49998 20.13 10.52 19.51 11.14L17.99 12.6599C17.73 12.9199 17.52 13.43 17.52 13.79V15.94C17.52 16.82 16.8 17.54 15.92 17.54H13.77C13.41 17.54 12.9 17.75 12.64 18.01L11.12 19.53C10.5 20.15 9.47999 20.15 8.85999 19.53L7.34 18.01C7.08 17.75 6.57 17.54 6.21 17.54H4.06C3.18 17.54 2.46 16.82 2.46 15.94V13.79C2.46 13.42 2.24999 12.9099 1.98999 12.6599Z" fill="#F79B39"/>
<path d="M13 14C12.44 14 11.99 13.55 11.99 13C11.99 12.45 12.44 12 12.99 12C13.54 12 13.99 12.45 13.99 13C13.99 13.55 13.55 14 13 14Z" fill="#F79B39"/>
<path d="M7.01001 8C6.45001 8 6 7.55 6 7C6 6.45 6.45 6 7 6C7.55 6 8 6.45 8 7C8 7.55 7.56001 8 7.01001 8Z" fill="#F79B39"/>
<path d="M7 13.75C6.81 13.75 6.62 13.68 6.47 13.53C6.18 13.24 6.18 12.7599 6.47 12.4699L12.47 6.46994C12.76 6.17994 13.24 6.17994 13.53 6.46994C13.82 6.75994 13.82 7.24 13.53 7.53L7.53 13.53C7.38 13.68 7.19 13.75 7 13.75Z" fill="#F79B39"/>
</svg>
