<svg width="20" height="18" viewBox="0 0 20 18" fill="none" xmlns="http://www.w3.org/2000/svg">
<path d="M20 5.69001C20 6.88001 19.81 7.98001 19.48 9.00001H0.52C0.19 7.98001 0 6.88001 0 5.69001C0 2.60001 2.49 0.100006 5.56 0.100006C7.37 0.100006 8.99 0.980006 10 2.33001C11.01 0.980006 12.63 0.100006 14.44 0.100006C17.51 0.100006 20 2.60001 20 5.69001Z" fill="#F79B39"/>
<path opacity="0.4" d="M19.48 9C17.9 14 13.03 16.99 10.62 17.81C10.28 17.93 9.72 17.93 9.38 17.81C6.97 16.99 2.1 14 0.52 9H19.48Z" fill="#F79B39"/>
</svg>
