<svg width="16" height="18" viewBox="0 0 16 18" fill="none" xmlns="http://www.w3.org/2000/svg">
<path id="Home" d="M5.61199 16.3111V13.763C5.61199 13.1126 6.14315 12.5853 6.79837 12.5853H9.19352C9.50816 12.5853 9.80992 12.7093 10.0324 12.9302C10.2549 13.1511 10.3799 13.4507 10.3799 13.763V16.3111C10.3779 16.5815 10.4847 16.8416 10.6766 17.0335C10.8686 17.2254 11.1297 17.3333 11.4021 17.3333H13.0362C13.7994 17.3353 14.532 17.0357 15.0723 16.5007C15.6127 15.9656 15.9163 15.2392 15.9163 14.4815V7.22239C15.9163 6.61039 15.6431 6.02987 15.1702 5.63723L9.61136 1.2299C8.64439 0.45714 7.25893 0.48209 6.32083 1.28915L0.888851 5.63723C0.393625 6.0183 0.0976347 6.60054 0.0830078 7.22239V14.4741C0.0830078 16.0532 1.37249 17.3333 2.96315 17.3333H4.55992C5.1257 17.3333 5.58551 16.8802 5.58961 16.3185L5.61199 16.3111Z" fill="#292B49"/>
</svg>
