<svg width="20" height="20" viewBox="0 0 20 20" fill="none" xmlns="http://www.w3.org/2000/svg">
<path opacity="0.4" d="M8.75 0.450007C9.45 -0.139993 10.58 -0.139993 11.26 0.450007L12.84 1.80001C13.14 2.05001 13.71 2.26001 14.11 2.26001H15.81C16.87 2.26001 17.74 3.13001 17.74 4.19001V5.89001C17.74 6.29001 17.95 6.85001 18.2 7.15001L19.55 8.73001C20.14 9.43001 20.14 10.56 19.55 11.24L18.2 12.82C17.95 13.12 17.74 13.68 17.74 14.08V15.78C17.74 16.84 16.87 17.71 15.81 17.71H14.11C13.71 17.71 13.15 17.92 12.85 18.17L11.27 19.52C10.57 20.11 9.44 20.11 8.76 19.52L7.18 18.17C6.88 17.92 6.31 17.71 5.92 17.71H4.17C3.11 17.71 2.24 16.84 2.24 15.78V14.07C2.24 13.68 2.04 13.11 1.79 12.82L0.440001 11.23C-0.139999 10.54 -0.139999 9.42001 0.440001 8.73001L1.79 7.14001C2.04 6.84001 2.24 6.28001 2.24 5.89001V4.20001C2.24 3.14001 3.11 2.27001 4.17 2.27001H5.9C6.3 2.27001 6.86 2.06001 7.16 1.81001L8.75 0.450007Z" fill="#F79B39"/>
<path d="M10.41 12C9.99997 12 9.65997 11.66 9.65997 11.25V11.04C9.65997 9.88004 10.51 9.31003 10.83 9.09003C11.2 8.84003 11.3199 8.67003 11.3199 8.41003C11.3199 7.91003 10.91 7.5 10.41 7.5C9.90997 7.5 9.5 7.91003 9.5 8.41003C9.5 8.82003 9.16 9.16003 8.75 9.16003C8.34 9.16003 8 8.82003 8 8.41003C8 7.08003 9.07997 6 10.41 6C11.74 6 12.8199 7.08003 12.8199 8.41003C12.8199 9.55003 11.98 10.12 11.67 10.33C11.28 10.59 11.16 10.76 11.16 11.04V11.25C11.16 11.67 10.82 12 10.41 12Z" fill="#F79B39"/>
<path d="M10.4102 14.4902C9.99016 14.4902 9.66016 14.1502 9.66016 13.7402C9.66016 13.3302 10.0002 12.9902 10.4102 12.9902C10.8202 12.9902 11.1602 13.3302 11.1602 13.7402C11.1602 14.1502 10.8302 14.4902 10.4102 14.4902Z" fill="#F79B39"/>
</svg>
