<svg width="18" height="21" viewBox="0 0 18 21" fill="none" xmlns="http://www.w3.org/2000/svg">
<path opacity="0.4" d="M17.62 6.7C16.58 2.07 12.54 0 9 0C9 0 9 0 8.99 0C5.46 0 1.43 2.07 0.380002 6.69C-0.799998 11.85 2.36 16.22 5.22 18.98C6.28 20 7.64 20.51 9 20.51C10.36 20.51 11.72 20 12.77 18.98C15.63 16.22 18.79 11.86 17.62 6.7Z" fill="#F79B39"/>
<path d="M7.75 11.75C7.56 11.75 7.37 11.68 7.22 11.53L5.72 10.03C5.43 9.74 5.43 9.26 5.72 8.97C6.01 8.68 6.49 8.68 6.78 8.97L7.75 9.94L11.22 6.47C11.51 6.18 11.99 6.18 12.28 6.47C12.57 6.76 12.57 7.24 12.28 7.53L8.28 11.53C8.13 11.68 7.94 11.75 7.75 11.75Z" fill="#F79B39"/>
</svg>
