<svg width="20" height="20" viewBox="0 0 20 20" fill="none" xmlns="http://www.w3.org/2000/svg">
<g id="buildings-2">
<path id="Vector" d="M8.83366 3.45832C8.83366 3.61666 8.70033 3.74999 8.54199 3.74999H7.60033C5.80033 3.74999 4.33366 5.21666 4.33366 7.01666V14.7083C4.33366 14.8667 4.20033 15 4.04199 15H3.45866C2.46699 15 1.66699 14.2 1.66699 13.2083V3.45832C1.66699 2.46666 2.46699 1.66666 3.45866 1.66666H7.04199C8.03366 1.66666 8.83366 2.46666 8.83366 3.45832Z" fill="#292B49"/>
<path id="Vector_2" d="M18.3337 3.45832V13.2083C18.3337 14.2 17.5337 15 16.542 15H16.017C15.8587 15 15.7253 14.8667 15.7253 14.7083V7.01666C15.7253 5.21666 14.2587 3.74999 12.4587 3.74999H11.4587C11.3003 3.74999 11.167 3.61666 11.167 3.45832C11.167 2.46666 11.967 1.66666 12.9587 1.66666H16.542C17.5337 1.66666 18.3337 2.46666 18.3337 3.45832Z" fill="#292B49"/>
<path id="Vector_3" d="M12.458 5H7.59967C6.48301 5 5.58301 5.9 5.58301 7.01667V16.3167C5.58301 17.4333 6.48301 18.3333 7.59967 18.3333H8.95801C9.19134 18.3333 9.37467 18.15 9.37467 17.9167V15.8333C9.37467 15.4917 9.65801 15.2083 9.99967 15.2083C10.3413 15.2083 10.6247 15.4917 10.6247 15.8333V17.9167C10.6247 18.15 10.808 18.3333 11.0413 18.3333H12.4663C13.5747 18.3333 14.4747 17.4333 14.4747 16.325V7.01667C14.4747 5.9 13.5747 5 12.458 5ZM11.6663 12.2917H8.33301C7.99134 12.2917 7.70801 12.0083 7.70801 11.6667C7.70801 11.325 7.99134 11.0417 8.33301 11.0417H11.6663C12.008 11.0417 12.2913 11.325 12.2913 11.6667C12.2913 12.0083 12.008 12.2917 11.6663 12.2917ZM11.6663 9.79167H8.33301C7.99134 9.79167 7.70801 9.50833 7.70801 9.16667C7.70801 8.825 7.99134 8.54167 8.33301 8.54167H11.6663C12.008 8.54167 12.2913 8.825 12.2913 9.16667C12.2913 9.50833 12.008 9.79167 11.6663 9.79167Z" fill="#292B49"/>
</g>
</svg>
