<svg width="20" height="20" viewBox="0 0 20 20" fill="none" xmlns="http://www.w3.org/2000/svg">
<path opacity="0.4" d="M15 16.43H11L6.54999 19.39C5.88999 19.83 5 19.36 5 18.56V16.43C2 16.43 0 14.43 0 11.43V5.42999C0 2.42999 2 0.429993 5 0.429993H15C18 0.429993 20 2.42999 20 5.42999V11.43C20 14.43 18 16.43 15 16.43Z" fill="#F79B39"/>
<path d="M10 10.11C9.59 10.11 9.25 9.76999 9.25 9.35999V9.15002C9.25 7.99002 10.1 7.42001 10.42 7.20001C10.79 6.95001 10.91 6.78002 10.91 6.52002C10.91 6.02002 10.5 5.60999 10 5.60999C9.5 5.60999 9.09003 6.02002 9.09003 6.52002C9.09003 6.93002 8.75003 7.27002 8.34003 7.27002C7.93003 7.27002 7.59003 6.93002 7.59003 6.52002C7.59003 5.19002 8.67 4.10999 10 4.10999C11.33 4.10999 12.41 5.19002 12.41 6.52002C12.41 7.66002 11.57 8.23 11.26 8.44C10.87 8.7 10.75 8.87002 10.75 9.15002V9.35999C10.75 9.77999 10.41 10.11 10 10.11Z" fill="#F79B39"/>
<path d="M10 12.6C9.58 12.6 9.25 12.26 9.25 11.85C9.25 11.44 9.59 11.1 10 11.1C10.41 11.1 10.75 11.44 10.75 11.85C10.75 12.26 10.42 12.6 10 12.6Z" fill="#F79B39"/>
</svg>
