<svg width="20" height="20" viewBox="0 0 20 20" fill="none" xmlns="http://www.w3.org/2000/svg">
<g id="building-4">
<path id="Vector" d="M9.43333 2.5H4.24167C2.58333 2.5 1.75 3.34167 1.75 5.01667V18.3333H6.25V15.2083C6.25 14.8667 6.53333 14.5833 6.875 14.5833C7.21667 14.5833 7.5 14.8583 7.5 15.2083V18.3333H11.9167V5.01667C11.9167 3.34167 11.0917 2.5 9.43333 2.5ZM8.95833 10.625H4.83333C4.49167 10.625 4.20833 10.3417 4.20833 10C4.20833 9.65833 4.49167 9.375 4.83333 9.375H8.95833C9.3 9.375 9.58333 9.65833 9.58333 10C9.58333 10.3417 9.3 10.625 8.95833 10.625ZM8.95833 7.5H4.83333C4.49167 7.5 4.20833 7.21667 4.20833 6.875C4.20833 6.53333 4.49167 6.25 4.83333 6.25H8.95833C9.3 6.25 9.58333 6.53333 9.58333 6.875C9.58333 7.21667 9.3 7.5 8.95833 7.5Z" fill="#292B49"/>
<path id="Vector_2" d="M19.1663 17.7084H17.2747V15.2084C18.0663 14.95 18.6413 14.2084 18.6413 13.3334V11.6667C18.6413 10.575 17.7497 9.68335 16.658 9.68335C15.5663 9.68335 14.6747 10.575 14.6747 11.6667V13.3334C14.6747 14.2 15.2413 14.9334 16.0163 15.2V17.7084H0.833008C0.491341 17.7084 0.208008 17.9917 0.208008 18.3334C0.208008 18.675 0.491341 18.9584 0.833008 18.9584H16.608C16.6247 18.9584 16.633 18.9667 16.6497 18.9667C16.6663 18.9667 16.6747 18.9584 16.6913 18.9584H19.1663C19.508 18.9584 19.7913 18.675 19.7913 18.3334C19.7913 17.9917 19.508 17.7084 19.1663 17.7084Z" fill="#292B49"/>
</g>
</svg>
