<svg width="18" height="18" viewBox="0 0 18 18" fill="none" xmlns="http://www.w3.org/2000/svg">
<path id="Vector" d="M9 0.000295421C9.82363 0.000295421 10.6171 0.107435 11.3805 0.321713C12.1439 0.535992 12.8604 0.837321 13.53 1.2257C14.1996 1.61408 14.809 2.08616 15.3581 2.64195C15.9071 3.19774 16.3759 3.80374 16.7643 4.45997C17.1526 5.1162 17.4573 5.83269 17.6783 6.60945C17.8993 7.38621 18.0064 8.18306 17.9997 9C17.9997 9.82363 17.8926 10.6171 17.6783 11.3805C17.464 12.1439 17.1627 12.8604 16.7743 13.53C16.3859 14.1996 15.9138 14.809 15.3581 15.3581C14.8023 15.9071 14.1963 16.3759 13.54 16.7643C12.8838 17.1526 12.1673 17.4573 11.3905 17.6783C10.6138 17.8993 9.81694 18.0064 9 17.9997C8.17637 17.9997 7.38287 17.8926 6.6195 17.6783C5.85613 17.464 5.13964 17.1627 4.47001 16.7743C3.80039 16.3859 3.19104 15.9138 2.64195 15.3581C2.09286 14.8023 1.62413 14.1963 1.23575 13.54C0.847366 12.8838 0.542688 12.1673 0.321713 11.3905C0.100739 10.6138 -0.00640079 9.81694 0.000295421 9C0.000295421 8.17637 0.107435 7.38287 0.321713 6.6195C0.535992 5.85613 0.837321 5.13964 1.2257 4.47001C1.61408 3.80039 2.08616 3.19104 2.64195 2.64195C3.19774 2.09286 3.80374 1.62413 4.45997 1.23575C5.1162 0.847366 5.83269 0.542688 6.60945 0.321713C7.38621 0.100739 8.18306 -0.00640079 9 0.000295421ZM9 16.714C9.7098 16.714 10.3928 16.6236 11.049 16.4428C11.7053 16.262 12.318 16.0009 12.8871 15.6594C13.4563 15.3179 13.9786 14.9161 14.4541 14.4541C14.9295 13.992 15.3313 13.4731 15.6594 12.8972C15.9875 12.3213 16.2453 11.7053 16.4328 11.049C16.6203 10.3928 16.714 9.7098 16.714 9C16.714 8.2902 16.6236 7.60719 16.4428 6.95096C16.262 6.29473 16.0009 5.68203 15.6594 5.11285C15.3179 4.54367 14.9161 4.02137 14.4541 3.54594C13.992 3.07051 13.4731 2.66873 12.8972 2.34062C12.3213 2.01251 11.7053 1.7547 11.049 1.56721C10.3928 1.37971 9.7098 1.28597 9 1.28597C8.2902 1.28597 7.60719 1.37637 6.95096 1.55716C6.29473 1.73796 5.68203 1.99911 5.11285 2.34062C4.54367 2.68213 4.02137 3.0839 3.54594 3.54594C3.07051 4.00798 2.66873 4.52693 2.34062 5.10281C2.01251 5.67868 1.7547 6.29473 1.56721 6.95096C1.37971 7.60719 1.28597 8.2902 1.28597 9C1.28597 9.7098 1.37637 10.3928 1.55716 11.049C1.73796 11.7053 1.99911 12.318 2.34062 12.8871C2.68213 13.4563 3.0839 13.9786 3.54594 14.4541C4.00798 14.9295 4.52693 15.3313 5.10281 15.6594C5.67868 15.9875 6.29473 16.2453 6.95096 16.4328C7.60719 16.6203 8.2902 16.714 9 16.714ZM9 5.14298C9.529 5.14298 10.0279 5.24343 10.4966 5.44431C10.9653 5.6452 11.3738 5.92309 11.722 6.27799C12.0702 6.63289 12.3448 7.04136 12.5456 7.5034C12.7465 7.96544 12.8503 8.4643 12.857 9C12.857 9.529 12.7566 10.0279 12.5557 10.4966C12.3548 10.9653 12.0769 11.3738 11.722 11.722C11.3671 12.0702 10.9586 12.3448 10.4966 12.5456C10.0346 12.7465 9.5357 12.8503 9 12.857C8.471 12.857 7.97213 12.7566 7.5034 12.5557C7.03466 12.3548 6.62619 12.0769 6.27799 11.722C5.92979 11.3671 5.65524 10.9586 5.45436 10.4966C5.25347 10.0346 5.14968 9.5357 5.14298 9C5.14298 8.471 5.24343 7.97213 5.44431 7.5034C5.6452 7.03466 5.92309 6.62619 6.27799 6.27799C6.63289 5.92979 7.04136 5.65524 7.5034 5.45436C7.96544 5.25347 8.4643 5.14968 9 5.14298Z" fill="#48E98A"/>
</svg>
