<svg width="20" height="20" viewBox="0 0 20 20" fill="none" xmlns="http://www.w3.org/2000/svg">
<path opacity="0.4" d="M0 10.88V9.12C0 8.08 0.85 7.22 1.9 7.22C3.71 7.22 4.45 5.94 3.54 4.37C3.02 3.47 3.33 2.3 4.24 1.78L5.97 0.789997C6.76 0.319997 7.78 0.599998 8.25 1.39L8.36 1.58C9.26 3.15 10.74 3.15 11.65 1.58L11.76 1.39C12.23 0.599998 13.25 0.319997 14.04 0.789997L15.77 1.78C16.68 2.3 16.99 3.47 16.47 4.37C15.56 5.94 16.3 7.22 18.11 7.22C19.15 7.22 20.01 8.07 20.01 9.12V10.88C20.01 11.92 19.16 12.78 18.11 12.78C16.3 12.78 15.56 14.06 16.47 15.63C16.99 16.54 16.68 17.7 15.77 18.22L14.04 19.21C13.25 19.68 12.23 19.4 11.76 18.61L11.65 18.42C10.75 16.85 9.27 16.85 8.36 18.42L8.25 18.61C7.78 19.4 6.76 19.68 5.97 19.21L4.24 18.22C3.33 17.7 3.02 16.53 3.54 15.63C4.45 14.06 3.71 12.78 1.9 12.78C0.85 12.78 0 11.92 0 10.88Z" fill="#F79B39"/>
<path d="M10 13.25C11.7949 13.25 13.25 11.7949 13.25 10C13.25 8.20507 11.7949 6.75 10 6.75C8.20507 6.75 6.75 8.20507 6.75 10C6.75 11.7949 8.20507 13.25 10 13.25Z" fill="#F79B39"/>
</svg>
