<svg width="10" height="16" viewBox="0 0 10 16" fill="none" xmlns="http://www.w3.org/2000/svg">
<path fill-rule="evenodd" clip-rule="evenodd" d="M5.00551 8.97081L5.30059 8.96954C6.47098 8.9594 7.51522 8.88885 8.17698 8.76717C8.18891 8.76717 8.84524 8.63445 9.0637 8.5499C9.37947 8.41718 9.64751 8.17718 9.81733 7.87627C9.9385 7.63537 10 7.38264 10 7.1181C9.99036 6.91015 9.88572 6.5672 9.79798 6.32243L9.72003 6.11902C9.18487 4.77177 7.4362 2.19634 6.36681 1.20999L6.29206 1.13727L5.9418 0.812723C5.67377 0.608181 5.34606 0.5 4.99357 0.5C4.6778 0.5 4.36203 0.596362 4.10685 0.789087C4.02417 0.846784 3.91811 0.93972 3.82849 1.02244L3.49782 1.33833C2.39643 2.42538 0.851526 4.77904 0.339637 5.99902C0.328621 5.99902 0.0119332 6.7572 0 7.1181V7.16628C0 7.71991 0.31577 8.23718 0.826143 8.50172C0.965669 8.57399 1.23898 8.64331 1.47903 8.69604L1.93226 8.79081C2.6611 8.89899 3.77914 8.97081 5.00551 8.97081ZM3.73472 14.2473C3.73472 14.9391 4.30108 15.5 4.99963 15.5C5.69818 15.5 6.26455 14.9391 6.26455 14.2473L5.99192 11.1646C5.99192 10.6219 5.54856 10.1819 4.99963 10.1819C4.45162 10.1819 4.00734 10.6219 4.00734 11.1646L3.73472 14.2473Z" fill="#F79B39"/>
</svg>
