<svg width="10" height="16" viewBox="0 0 10 16" fill="none" xmlns="http://www.w3.org/2000/svg">
<path fill-rule="evenodd" clip-rule="evenodd" d="M3.73545 1.75271L4.00808 4.8354C4.00808 5.37812 4.45144 5.81812 5.00037 5.81812C5.54838 5.81812 5.99266 5.37812 5.99266 4.8354L6.26528 1.75271C6.26528 1.0609 5.69892 0.5 5.00037 0.5C4.30182 0.5 3.73545 1.0609 3.73545 1.75271ZM3.95844 15.0951C4.00532 15.1378 4.04126 15.1705 4.0582 15.1873C4.32623 15.3918 4.65394 15.5 5.00643 15.5C5.3222 15.5 5.63797 15.4036 5.89315 15.2109C6.07031 15.0873 6.35487 14.8018 6.35487 14.8018C7.46099 13.7909 9.12521 11.2764 9.66036 10.001C9.67138 10.001 9.98807 9.2428 10 8.8819V8.83372C10 8.28009 9.68423 7.76282 9.17386 7.49828C8.96283 7.38897 8.44576 7.28642 8.20064 7.23781C8.12163 7.22214 8.07088 7.21207 8.06774 7.20919C7.3389 7.10101 6.22086 7.02919 4.99449 7.02919C3.70571 7.02919 2.53993 7.10101 1.82302 7.23283C1.81109 7.23283 1.15476 7.36555 0.936295 7.4501C0.620525 7.58282 0.352488 7.82282 0.182669 8.12373C0.0615017 8.36463 0 8.61736 0 8.8819C0.0128511 9.15917 0.194603 9.67643 0.279971 9.88098C0.815128 11.2282 2.5638 13.8037 3.63319 14.79C3.7445 14.9002 3.87064 15.0151 3.95844 15.0951Z" fill="#60A5FA"/>
</svg>
