<svg width="10" height="10" viewBox="0 0 10 10" fill="none" xmlns="http://www.w3.org/2000/svg">
<path d="M5.4614 0.112251C5.66703 0.217825 5.83348 0.390971 5.93497 0.604886L6.91521 2.67104L9.1071 3.00237C9.67698 3.08851 10.0718 3.63893 9.98903 4.23176C9.95605 4.46783 9.84919 4.68601 9.68498 4.85252L8.09891 6.4608L8.47333 8.73173C8.57068 9.32216 8.18948 9.8829 7.6219 9.98417C7.39588 10.0245 7.16339 9.98619 6.96042 9.87518L4.99993 8.803L3.03945 9.87518C2.52973 10.1539 1.89928 9.95009 1.6313 9.41984C1.52459 9.20869 1.48777 8.96684 1.52653 8.73173L1.90095 6.4608L0.314886 4.85252C-0.0974877 4.43437 -0.105926 3.74764 0.296039 3.31866C0.456104 3.14784 0.665837 3.03667 0.892769 3.00237L3.08466 2.67104L4.0649 0.604886C4.31976 0.0676887 4.94499 -0.152871 5.4614 0.112251Z" fill="#CCCCCC"/>
</svg>
