<svg width="10" height="10" viewBox="0 0 10 10" fill="none" xmlns="http://www.w3.org/2000/svg">
<g id="vuesax/outline/clock">
<g id="vuesax/outline/clock_2">
<g id="clock">
<path id="Vector" d="M5.00016 9.47908C2.52933 9.47908 0.520996 7.47075 0.520996 4.99992C0.520996 2.52909 2.52933 0.520752 5.00016 0.520752C7.471 0.520752 9.47933 2.52909 9.47933 4.99992C9.47933 7.47075 7.471 9.47908 5.00016 9.47908ZM5.00016 1.14575C2.87516 1.14575 1.146 2.87492 1.146 4.99992C1.146 7.12492 2.87516 8.85408 5.00016 8.85408C7.12516 8.85408 8.85433 7.12492 8.85433 4.99992C8.85433 2.87492 7.12516 1.14575 5.00016 1.14575Z" fill="#888AA0"/>
<path id="Vector_2" d="M6.54593 6.63748C6.49176 6.63748 6.4376 6.62498 6.3876 6.59165L5.09593 5.82082C4.7751 5.62915 4.5376 5.20832 4.5376 4.83748V3.12915C4.5376 2.95832 4.67926 2.81665 4.8501 2.81665C5.02093 2.81665 5.1626 2.95832 5.1626 3.12915V4.83748C5.1626 4.98748 5.2876 5.20832 5.41676 5.28332L6.70843 6.05415C6.85843 6.14165 6.90426 6.33332 6.81676 6.48332C6.75426 6.58332 6.6501 6.63748 6.54593 6.63748Z" fill="#888AA0"/>
</g>
</g>
</g>
</svg>
