<svg width="20" height="20" viewBox="0 0 20 20" fill="none" xmlns="http://www.w3.org/2000/svg">
<g id="vuesax/outline/man">
<g id="man">
<path id="Vector" d="M8.54134 18.5417C4.63301 18.5417 1.45801 15.3667 1.45801 11.4583C1.45801 7.55 4.63301 4.375 8.54134 4.375C12.4497 4.375 15.6247 7.55 15.6247 11.4583C15.6247 15.3667 12.4497 18.5417 8.54134 18.5417ZM8.54134 5.625C5.32467 5.625 2.70801 8.24167 2.70801 11.4583C2.70801 14.675 5.32467 17.2917 8.54134 17.2917C11.758 17.2917 14.3747 14.675 14.3747 11.4583C14.3747 8.24167 11.758 5.625 8.54134 5.625Z" fill="#888AA0"/>
<path id="Vector_2" d="M13.3329 7.2917C13.1745 7.2917 13.0162 7.23337 12.8912 7.10837C12.6495 6.8667 12.6495 6.4667 12.8912 6.22503L17.4745 1.6417C17.7162 1.40003 18.1162 1.40003 18.3579 1.6417C18.5995 1.88337 18.5995 2.28337 18.3579 2.52503L13.7745 7.10837C13.6495 7.23337 13.4912 7.2917 13.3329 7.2917Z" fill="#888AA0"/>
<path id="Vector_3" d="M17.9167 8.12504C17.575 8.12504 17.2917 7.84171 17.2917 7.50004V2.70837H12.5C12.1583 2.70837 11.875 2.42504 11.875 2.08337C11.875 1.74171 12.1583 1.45837 12.5 1.45837H17.9167C18.2583 1.45837 18.5417 1.74171 18.5417 2.08337V7.50004C18.5417 7.84171 18.2583 8.12504 17.9167 8.12504Z" fill="#888AA0"/>
</g>
</g>
</svg>
