<svg width="10" height="10" viewBox="0 0 10 10" fill="none" xmlns="http://www.w3.org/2000/svg">
<g id="Group">
<g id="Group_2">
<path id="Vector" d="M4.10975 0.651751L4.59475 2.34967C4.62058 2.43925 4.70225 2.50092 4.79516 2.50092H5.20475C5.29766 2.50092 5.37933 2.43925 5.40516 2.34967L5.89016 0.652168C5.91308 0.573418 5.94183 0.497168 5.97641 0.425085C6.00183 0.371751 6.0035 0.310085 5.98058 0.255085C5.95766 0.200501 5.91308 0.158418 5.85725 0.138418C5.32766 -0.046582 4.67391 -0.0469987 4.1435 0.138418C4.08766 0.158001 4.04266 0.200501 4.02016 0.255085C3.99725 0.309668 3.99891 0.371335 4.02433 0.424668C4.0585 0.497585 4.08766 0.573418 4.10975 0.651751ZM1.80975 1.67342C1.82933 1.673 1.84766 1.67133 1.86725 1.66758C2.14808 1.66758 2.4235 1.76383 2.64266 1.93925L2.86725 2.11883C2.94683 2.18258 3.00891 2.268 3.05183 2.37175C3.08391 2.45008 3.16016 2.50092 3.24433 2.50092H3.93725C4.05225 2.50092 4.14558 2.40758 4.14558 2.29258C4.14558 2.25217 4.13391 2.21425 4.11391 2.18258L3.70933 0.766751C3.58016 0.315918 3.16266 0.000918018 2.69391 0.000918018C2.23891 0.000918018 1.83641 0.290918 1.69266 0.722585C1.61141 0.965501 1.581 1.22092 1.60183 1.48175C1.611 1.59008 1.70141 1.67342 1.80975 1.67342ZM5.90516 2.418C5.94475 2.47008 6.00641 2.50092 6.07141 2.50092H6.756C6.84058 2.50092 6.91683 2.44967 6.94891 2.37133C6.99141 2.26758 7.05308 2.18258 7.13308 2.11883L7.35683 1.93967C7.57558 1.76508 7.85016 1.66842 8.13058 1.66842H8.13391C8.14183 1.66925 8.176 1.673 8.18391 1.673C8.29266 1.67717 8.38891 1.59217 8.39808 1.48175C8.41891 1.22092 8.3885 0.965501 8.30725 0.722585C8.1635 0.290918 7.761 0.000918018 7.306 0.000918018C6.83725 0.000918018 6.41975 0.315918 6.29058 0.766751L5.871 2.2355C5.85308 2.29842 5.866 2.36592 5.90516 2.418ZM7.61766 2.26508L7.3935 2.44425C7.35016 2.47883 7.32266 2.52925 7.31641 2.58425C7.31016 2.63925 7.32641 2.69425 7.361 2.73758C7.42141 2.81258 7.46225 2.89467 7.48308 2.98133L7.80891 4.34925C7.8235 4.41008 7.86433 4.46133 7.921 4.48842C7.94933 4.50217 7.98058 4.50925 8.01141 4.50925C8.04141 4.50925 8.07183 4.50258 8.09933 4.48967C8.19766 4.44383 8.30266 4.40842 8.411 4.38425C8.48058 4.36883 8.53766 4.31883 8.56183 4.25217L8.9085 3.29967C8.94183 3.20883 8.9585 3.11383 8.9585 3.01758V2.90967C8.9585 2.45467 8.58808 2.08467 8.1335 2.08467C7.94641 2.08425 7.7635 2.14842 7.61766 2.26508ZM1.43808 4.25217C1.46225 4.31925 1.51933 4.36883 1.58891 4.38425C1.69725 4.40842 1.80225 4.44383 1.90058 4.48967C1.9285 4.50258 1.9585 4.50925 1.9885 4.50925C2.01933 4.50925 2.05058 4.50217 2.07891 4.48842C2.13558 4.46133 2.17641 4.41008 2.191 4.34925L2.51683 2.98133C2.53766 2.89467 2.5785 2.81258 2.63891 2.73758C2.6735 2.69425 2.68975 2.63925 2.6835 2.58425C2.67725 2.52925 2.64975 2.47883 2.60641 2.44425L2.38225 2.26508C2.23641 2.14842 2.0535 2.08425 1.86683 2.08425C1.41183 2.08425 1.04183 2.45467 1.04183 2.90925V3.01717C1.04183 3.11342 1.0585 3.20842 1.09183 3.29925L1.43808 4.25217ZM1.29225 7.20967C1.3435 7.20967 1.39433 7.19092 1.43433 7.15383C1.51141 7.08217 1.59308 7.01592 1.67766 6.95633C1.75391 6.903 1.77058 6.7655 1.73975 6.67758C1.73391 6.66133 1.73058 6.64425 1.72016 6.60258L1.7085 6.54342C1.7085 6.53883 1.70766 6.50133 1.70766 6.49675C1.70683 6.47717 1.70516 6.45758 1.70641 6.43633C1.70725 6.41633 1.711 6.39717 1.71558 6.37092C1.71558 6.3705 1.72058 6.328 1.72058 6.32717L1.99141 5.19008C2.01058 5.10925 1.98016 5.02467 1.91308 4.97467C1.63641 4.76842 1.26391 4.70633 0.938496 4.8155C0.501829 4.96092 0.208496 5.368 0.208496 5.8555C0.208496 6.16758 0.344329 6.463 0.581413 6.66592L1.15683 7.15925C1.196 7.193 1.24391 7.20967 1.29225 7.20967ZM9.06183 4.81592C8.73641 4.70675 8.36391 4.76883 8.08725 4.97508C8.02058 5.02467 7.98975 5.10925 8.00891 5.1905L8.27975 6.33342C8.28016 6.33842 8.28475 6.37342 8.28558 6.37842C8.28891 6.39758 8.29266 6.41675 8.29391 6.438C8.29516 6.458 8.2935 6.478 8.29225 6.50675C8.29183 6.51133 8.28933 6.5555 8.28933 6.56008C8.28725 6.57508 8.28308 6.58925 8.27391 6.62758C8.26975 6.64467 8.266 6.66175 8.24975 6.70592C8.21225 6.79633 8.24266 6.9005 8.32266 6.95633C8.40766 7.01592 8.48891 7.08217 8.566 7.15383C8.606 7.19092 8.65683 7.20967 8.70808 7.20967C8.75641 7.20967 8.80433 7.193 8.8435 7.15925L9.41891 6.66633C9.656 6.46342 9.79183 6.16758 9.79183 5.82883C9.79183 5.36842 9.4985 4.96133 9.06183 4.81592ZM7.50016 7.08425H6.04183V6.89967L6.09558 6.66758H7.50016C7.54933 6.66758 7.59808 6.673 7.64683 6.67883C7.65516 6.68008 7.6635 6.6805 7.67141 6.6805C7.67141 6.6805 7.67141 6.6805 7.67183 6.6805H7.67308C7.68891 6.6805 7.70433 6.67883 7.72058 6.67508C7.72475 6.67425 7.72808 6.67092 7.73225 6.66967C7.74808 6.66508 7.76183 6.65758 7.776 6.64967C7.78475 6.64467 7.79391 6.6405 7.80183 6.63383C7.81391 6.62425 7.8235 6.61175 7.8335 6.59967C7.83975 6.59175 7.84725 6.58508 7.85225 6.57633C7.85975 6.56342 7.8635 6.54883 7.86808 6.53467C7.87141 6.52383 7.87641 6.51383 7.87808 6.50217C7.8785 6.5005 7.87933 6.49925 7.87933 6.49758C7.881 6.48508 7.87725 6.47383 7.87641 6.46175C7.87558 6.44925 7.87808 6.43675 7.87516 6.42425L7.0785 3.078C7.07683 3.07133 7.07308 3.06633 7.071 3.06008C7.06766 3.05008 7.0635 3.04092 7.05891 3.03133C7.05183 3.01758 7.0435 3.00592 7.03391 2.99425C7.02766 2.98675 7.02141 2.97925 7.01391 2.97258C7.00183 2.96175 6.98808 2.95342 6.97391 2.9455C6.96641 2.94133 6.95933 2.93633 6.951 2.933C6.92683 2.92342 6.90183 2.91758 6.87516 2.91758H3.12516C3.0985 2.91758 3.0735 2.92342 3.04975 2.93258C3.04141 2.93592 3.03475 2.94092 3.02683 2.94508C3.01266 2.953 2.99891 2.96133 2.98683 2.97217C2.97933 2.97883 2.9735 2.98633 2.96683 2.99383C2.95725 3.0055 2.94891 3.01758 2.94183 3.03092C2.93683 3.04008 2.93308 3.04925 2.92975 3.05967C2.92766 3.06592 2.9235 3.07092 2.92225 3.07758L2.12558 6.42383C2.12266 6.43675 2.12475 6.44883 2.12433 6.46133C2.1235 6.47342 2.12016 6.48467 2.12141 6.49717C2.12141 6.49883 2.12266 6.50008 2.12266 6.50175C2.12433 6.51342 2.12933 6.52342 2.13308 6.53425C2.13766 6.54842 2.14141 6.563 2.14891 6.57592C2.15391 6.58467 2.16141 6.59133 2.16766 6.59967C2.17725 6.61217 2.18683 6.62425 2.19933 6.63383C2.20725 6.64008 2.21641 6.64425 2.22516 6.64967C2.23891 6.658 2.25308 6.66508 2.2685 6.66967C2.27266 6.67092 2.27558 6.67383 2.28016 6.67508C2.28725 6.67675 2.29433 6.67508 2.30183 6.67592C2.311 6.67717 2.31891 6.68092 2.3285 6.68092C2.33683 6.68092 2.34558 6.6805 2.35391 6.67925C2.40225 6.67342 2.451 6.668 2.50058 6.668H3.90516L3.95891 6.90008V7.08425H2.50058C1.77725 7.08425 1.04225 8.15342 1.04225 8.75092C1.04225 9.4855 2.52891 10.0009 3.33391 10.0009H6.66725C7.47225 10.0009 8.95891 9.4855 8.95891 8.75092C8.9585 8.15342 8.2235 7.08425 7.50016 7.08425ZM6.64808 4.27258L6.87891 4.04175L7.40516 6.25092H6.19183L6.64808 4.27258ZM2.59516 6.25092L3.12141 4.04175L3.35225 4.27258L3.80891 6.25092H2.59516ZM4.64183 8.75092L4.746 8.33425H5.25391L5.35808 8.75092H4.64183ZM5.62516 7.70925C5.62516 7.82425 5.53183 7.91758 5.41683 7.91758H5.2085V7.70925C5.2085 7.68133 5.20266 7.65467 5.19266 7.63008C5.19308 7.62925 5.19391 7.62925 5.19475 7.62842C5.23433 7.57758 5.24766 7.51133 5.23141 7.44883C5.216 7.38842 5.2085 7.33883 5.2085 7.29258C5.2085 7.17759 5.11516 7.08425 5.00016 7.08425C4.88516 7.08425 4.79183 7.17759 4.79183 7.29258C4.79183 7.33883 4.78433 7.38842 4.76891 7.44883C4.75266 7.51133 4.76641 7.57758 4.80558 7.62842C4.806 7.62925 4.80683 7.62925 4.80766 7.63008C4.79766 7.65467 4.79183 7.68133 4.79183 7.70925V7.91758H4.5835C4.4685 7.91758 4.37516 7.82425 4.37516 7.70925V6.66758H5.62516V7.70925ZM5.47766 3.60342C5.45016 3.63092 5.43058 3.66592 5.42183 3.70383L4.99975 5.53217L4.57766 3.70383C4.56891 3.66592 4.54975 3.63092 4.52183 3.60342L4.25308 3.33425H5.74725L5.47766 3.60342Z" fill="#F79C39"/>
</g>
</g>
</svg>
